<svg xmlns="http://www.w3.org/2000/svg" viewBox="0 0 11 13">
  <g fill="#fff">
    <path d="M2.721 13.495l-.087-.024a3.353 3.353 0 01-1.082-.469 1.521 1.521 0 01-.657-1.071 3.483 3.483 0 01-.036-.682 2.067 2.067 0 01.462-1.215 4.146 4.146 0 01.428-.457 15.7 15.7 0 001.708-1.9 2.579 2.579 0 011.289-.9 1.691 1.691 0 011.127.054 2 2 0 011.029.869c.209.344.424.685.636 1.028a2.655 2.655 0 00.384.5 1.075 1.075 0 00.257.187c.1.05.195.094.294.136a1.057 1.057 0 01.429.321c.142.181.278.366.414.552a1.653 1.653 0 01.3.759 2.331 2.331 0 01-.082.964 1.205 1.205 0 01-.374.582 2.158 2.158 0 01-1.146.545 2.391 2.391 0 01-.631 0 5.152 5.152 0 01-.881-.205 3.668 3.668 0 00-1.235-.175 3.589 3.589 0 00-1 .169 1.363 1.363 0 00-.361.181.856.856 0 01-.344.144c-.123.023-.246.048-.37.067-.094.014-.189.02-.283.031-.021 0-.041.008-.061.012zM11.026 7.336a.7.7 0 00-.011.072 2.147 2.147 0 01-.113.574c-.032.091-.061.184-.1.273a1.6 1.6 0 01-.361.522 2.033 2.033 0 01-.7.479 1.648 1.648 0 01-.757.09 2.758 2.758 0 01-.276-.042 1.035 1.035 0 01-.514-.29 1.816 1.816 0 01-.377-.539 2.1 2.1 0 01-.213-.993 1.255 1.255 0 01.137-.537c.147-.284.264-.581.388-.875a5.606 5.606 0 01.3-.627c.1-.176.209-.349.316-.522a.912.912 0 01.176-.208.577.577 0 01.6-.121 1.148 1.148 0 01.345.2 2.034 2.034 0 01.554.687c.053.1.1.208.147.315.1.243.2.487.324.722a1.179 1.179 0 01.123.483.588.588 0 00.011.066zM8.261 3.893a2.666 2.666 0 01-.114.842 1.681 1.681 0 01-1.127 1.12 1.185 1.185 0 01-.888-.062.5.5 0 01-.2-.145 2.431 2.431 0 01-.459-.839 1.63 1.63 0 01-.054-.394 4.712 4.712 0 01.064-.754c.033-.223.079-.446.1-.671.02-.267.016-.535.023-.8 0-.091 0-.183.013-.273a1.565 1.565 0 01.122-.455.639.639 0 01.692-.389 1.314 1.314 0 01.852.471 2.132 2.132 0 01.3.438c.131.251.261.5.389.755a2.817 2.817 0 01.238.627 2.74 2.74 0 01.049.529zM4.967 3.614a4.425 4.425 0 01-.076.862.407.407 0 000 .079 1.228 1.228 0 01-.05.343.879.879 0 01-.63.632 2.306 2.306 0 01-.24.049c-.09.017-.179.034-.269.048a1.032 1.032 0 01-.142.014.481.481 0 01-.257-.062 3.772 3.772 0 01-.392-.253 1.706 1.706 0 01-.6-.837 2.8 2.8 0 01-.139-.644 4.274 4.274 0 010-.826 1.268 1.268 0 01.27-.656c.132-.172.27-.339.411-.5a3.109 3.109 0 01.763-.646 2.115 2.115 0 01.411-.194.313.313 0 01.306.052.905.905 0 01.343.51 7.841 7.841 0 01.215 1.043 8.407 8.407 0 01.076.986zM3.014 7.311a.936.936 0 01-.179.617c-.079.123-.157.247-.24.368-.059.086-.122.17-.188.25a1.211 1.211 0 01-.324.276.2.2 0 00-.033.022.517.517 0 01-.3.127 1.792 1.792 0 01-.877-.117 1.124 1.124 0 01-.547-.464.907.907 0 01-.059-.1 2.618 2.618 0 01-.255-.794 2.092 2.092 0 01.009-.551 4.462 4.462 0 01.563-1.55q.091-.158.189-.312a1.061 1.061 0 01.406-.382.375.375 0 01.414.018 1.592 1.592 0 01.443.446c.086.132.183.257.276.384s.176.234.259.354a2.474 2.474 0 01.422 1.161c0 .025.006.049.008.074.007.055.01.114.013.173zM.836 4.417c.024-.171.042-.343.072-.513a.681.681 0 01.227-.4c.024-.021.046-.046.069-.068a.111.111 0 01.125-.029.116.116 0 01.075.105c.011.09.021.181.038.27a1.42 1.42 0 00.193.508.309.309 0 01.03.061.1.1 0 01-.008.088c-.018.031-.04.042-.071.025a.722.722 0 00-.29-.072.344.344 0 00-.332.135c0 .006-.009.012-.014.018-.031.033-.062.03-.09-.007s-.018-.081-.024-.121zM6.175.359a.481.481 0 01.026-.224c.034-.086.086-.1.165-.055a.616.616 0 01.2.2c.053.085.1.172.155.259s.111.194.166.292c.015.026.035.052.011.083a.09.09 0 01-.1.026l-.2-.05a.41.41 0 00-.17 0 .352.352 0 01-.051.005.153.153 0 01-.169-.142.667.667 0 01-.006-.068Q6.185.519 6.175.359zM4.461.001a.625.625 0 00.075 0 .073.073 0 01.074.041.308.308 0 01.045.213 2.592 2.592 0 00-.033.4.263.263 0 01-.035.136.1.1 0 01-.118.058.431.431 0 01-.077-.02.608.608 0 00-.251-.041.622.622 0 01-.124-.009C3.968.771 3.957.75 3.969.703a.1.1 0 01.006-.016 1.39 1.39 0 01.228-.392c.084-.097.168-.193.258-.294zM9.058 4.246l.089-.585a.232.232 0 000-.066.077.077 0 01.127-.078.8.8 0 01.235.274c.044.08.083.162.124.243l.1.2a.365.365 0 01.02.041.056.056 0 01-.049.082.166.166 0 01-.056 0 .963.963 0 00-.457 0h-.006c-.086.012-.127-.024-.127-.111z"/>
  </g>
</svg>