<svg xmlns="http://www.w3.org/2000/svg" width="40.11" height="28.881" viewBox="0 0 40.11 28.881">
  <path id="beef_icon" d="M870.357,920.238s.182.934-.079,1.034.392,1.005,1.824.875c0,0,.267-.66.554-.637s1.367-.289,1.585-.08.968,1.123,1.428.8a1.449,1.449,0,0,0,.713-1.114c-.012-.368-.289-.575-.078-.955a.754.754,0,0,1,.315-.159s.021.556.159.636a1.644,1.644,0,0,1-.792,2.228c-.61.306-.061.966.159.955a.7.7,0,0,0,.633-.4c.18-.307.961-.394,1.506-.239s1.171.287.635.875-1.369,1.536-1.744,1.114-1.007-.316-1.03-.159a1.647,1.647,0,0,1-.4.8,2.033,2.033,0,0,0,1.189,1.83c.316.079.152.4.08.8a2.046,2.046,0,0,0,0,.954c.075.229-.824.321-.872.4a.526.526,0,0,1-.793.159c-.46-.316-1.546-.788-1.428.4s-.95,3.66-2.378,3.659c0,0-.328.025-.316.8s-.792,6.289-4.123,6.125c0,0-.414-.13-.317.478s-.194,1.938-.872,2.068-.42,2.733.158,3.023,1.7,1.312,1.507,2.307l-1.982.08a1.518,1.518,0,0,1-.079-1.114,1.147,1.147,0,0,1-.634-1.114s-.059-.412-.158-.078a6.433,6.433,0,0,0,.238,1.67l-1.348-.08a4.88,4.88,0,0,0-.159-1.749c-.246-.462.014-.346.079-1.114a8.79,8.79,0,0,0-.238-2.706c-.184-.415-.156-.392,0-1.273s.125-2.057-.713-2.227-13.612,1.321-15.617-1.114c0,0-.385-.59-1.268.954s-2.4,2.692-1.585,6.922c0,0,.206,1.4.951,1.831s.476.954.476.954l-1.9-.08a6.885,6.885,0,0,0-1.11-2.307,1,1,0,0,1-.079-.8,11.736,11.736,0,0,0-.238-2.546,5.627,5.627,0,0,0,0,2.865,15.6,15.6,0,0,1,.872,2.307l-1.665-.08s-.062-1.487-.4-1.671-.287-.308-.238-.717a15.192,15.192,0,0,0-.317-3.1,11.271,11.271,0,0,1-.238-1.989,5.5,5.5,0,0,1-.476,1.592s-1.367-.868-.4-3.582a3.749,3.749,0,0,0,0-2.227,5.985,5.985,0,0,1,.238-3.183c.184-.815-.6-6.82,1.506-8.195s7.256-.782,8.72-.079,10.478.277,11.812-.318,4.638-.832,6.1.08,1.793.839,1.9.716.278-.57-.317-.716-1.634-.856-.633-1.352a1.206,1.206,0,0,1,1.585.159.869.869,0,0,0,.952-.079s-1.938-.905-1.745-1.909c0,0,.036-.495.317-.636S870.132,920.479,870.357,920.238ZM841.1,928.433s-.955,3.988.238,5.808-.793,4.137-.793,4.137a7.927,7.927,0,0,1-.555-3.738C840.821,931.245,839.934,929.264,841.1,928.433Z" transform="translate(-839.014 -919.999)" fill="#fff" fill-rule="evenodd"/>
</svg>
