<svg xmlns="http://www.w3.org/2000/svg" width="34.152" height="35.38" viewBox="0 0 34.152 35.38">
  <path id="chicken_icon" d="M1191.537,832.239s-.715-2.69.917-1.622c0,0-.172,1.941.351,2.187s.988-1.053.988-1.975.956-.193,1.268-.071-.224-.783-.563-.988c0,0-.459-.606-.071-.917l.494.07s.258-.036-.211-.423-.155-.467.071-.565.115-.24-.211-.282.592-.289.422-.494a2.671,2.671,0,0,1-1.764-2.045s-.155-.217-.28,0-.595,1.115-1.2-.071c0,0-.327-.227-.354.353s-.238.342-.916-.141-1.022.38-.774.846a.265.265,0,0,0-.071.494c.371.327.369.885-.14.987a5.786,5.786,0,0,0-5.287,3.456c-1.877,4.247-5,2.962-5,2.962s-.2-.13-2.609.987-6.6,1.323-8.811-.917-7.425-3.893-6.415-1.9l.777.635c.243.2.057.735-.848,1.128s.484.682,1.551.776,2.462,1.112.494,1.763.59,1.189,1.059,1.129-.966,1.089-.917,1.481.985.268.774.635.622.635.848.635.317.637-.211.705-1.391.491-.354,1.128c.582.357,1.251.28.988,1.27s1.56.055,1.268.776-.238.77.071.917.867-.039.563.635-.015.656.494,1.058,2.592,1.213,2.327,3.879-.627,4.7-.423,6.066c0,0-.13.831-.565.917s-.351.282-.351.282a2.1,2.1,0,0,0,.705,0c.319-.07.445-.189.634.423a2.751,2.751,0,0,0,1.693,1.975.762.762,0,0,0-.282-.776,1.817,1.817,0,0,1-.565-1.34,3.455,3.455,0,0,0,1.833,1.129,4.607,4.607,0,0,0,2.327.211.327.327,0,0,0-.211-.423,1.717,1.717,0,0,0-1.2-.423c-.943-.056-3.071-1.051-2.749-2.962s1.921-4.632,3.877-4.867,3.843-.258,3.877.211.167,2.62,1.622,3.1c0,0,2.916,2.334,2.82,3.1s-.87.626-.988.635a.643.643,0,0,0-.422.211c-.091.129,1.157.169,1.41.141s1.005-.3,3.384.917a3.077,3.077,0,0,0,1.2.141c.8-.028.666-.25,0-.423a3.648,3.648,0,0,1-1.339-.635c-.292-.214,1.14-.35,2.184-.353a2.1,2.1,0,0,1,.776-.353c.41-.074.265-.359-.423-.423a1.677,1.677,0,0,0-1.128.141c-.125.1-2.514.39-2.892.07a27.5,27.5,0,0,0-2.467-2.751l-.283-.282s.229-.339,0-.494-.241-.818.143-1.34a.816.816,0,0,0-.211-1.129c-.177-.166-.125-.9,1.762-1.9S1193.395,844.756,1191.537,832.239Z" transform="translate(-1161.002 -825.001)" fill="#fff" fill-rule="evenodd"/>
</svg>
