<svg xmlns="http://www.w3.org/2000/svg" width="89.032" height="47.194" viewBox="0 0 89.032 47.194">
  <path id="tuna_icon" d="M403,616.038s6.648,9.592,6.4,14.257c-.355,6.723-6.11,12.22-6.11,12.22s7.282-.792,13.384-10.765c0,0,14.309,7.545,21.24,8.147,0,0-.733,5.708-7.856,7.856,0,0-2.746,2.013,2.036,1.164s11.389-3.588,13.384-6.4a47.278,47.278,0,0,0,15.712,2.328,3.548,3.548,0,0,1,.582,2.909c-.357,1.828.873,5.237.873,5.237s4.877-2.124,5.528-9.02c0,0,8.038-1.458,12.511-4.655s3.251.029,10.474-5.528l.873-1.455s-.579-.55-1.746.291c0,0-2.97.169-.873-1.746s2.037-1.746,2.037-1.746.512-.669-1.455-2.037-5.822-4.884-19.2-9.6c0,0-2.014-9.626-8.146-11.638,0,0-1.231-.4-.873.873s.468,4.483-3.491,5.237-7.849,2.362-9.892,5.237a5.005,5.005,0,0,1-3.492-1.455c-1.866-1.624-9.153-4.99-13.093-4.655,0,0,.129.72,1.746,1.454s9.214,4.924,5.528,6.4-14.751,4.4-21.24,8.438c0,0-.638.839-2.328-1.746S406.651,617.612,403,616.038Z" transform="translate(-403 -605.796)" fill="#fff" fill-rule="evenodd"/>
</svg>
