<svg xmlns="http://www.w3.org/2000/svg" width="34.433" height="31.642" viewBox="0 0 34.433 31.642">
  <path id="duck_icon" d="M1131.346,645.685s-2.512-.064-3.5,1.014c-.447.488-2.308-.086-2.424-.541s-1.142-.763-1.414.541,3.69,2.776,4.848,3.584,1,2.618,4.241,3.449,4.33,1,5.925,1.556,2.154.135,2.154.135.365.025.537.541.342,3.624,2.357,4.125a36.815,36.815,0,0,0,3.7.541s1.712-.033,1.01-.474c0,0,1.866-.086,2.087-.135s-.5-.512-1.28-.541-1.133-.675-.27-.744,2.271-.144,1.952-.541l.675-.135s.372-.459-1.212-.745-4.439.638-4.578-.676-.344-1.277-.537-1.488-.8-1.409,1.547-1.758,10.623-3.164,9.292-8.791-8.191-8.984-5.925-9.941,2.624.136,2.961.406a8.128,8.128,0,0,0,4.713,2.1s.61-.231-.2-1.15-2.978-2.5-2.961-3.719a5.59,5.59,0,0,0-8.347-1.759c-1.37,1.342-2.58,3.89-1.617,5.68a34.16,34.16,0,0,1,1.749,3.99s-5.027-.608-11.646,3.449C1135.182,643.657,1132.109,644.451,1131.346,645.685Zm12.251,8.791a1.692,1.692,0,0,0-.335,1.893l.267.947.27-.744a2.689,2.689,0,0,1-.135-1.217S1143.792,655.144,1143.6,654.476Zm.742,2.975-.337.676a.574.574,0,0,1,.4.27.563.563,0,0,0,.6.338.48.48,0,0,0,.4-.135A5.168,5.168,0,0,1,1144.339,657.452Z" transform="translate(-1123.993 -628.988)" fill="#fff" fill-rule="evenodd"/>
</svg>
