<?xml version="1.0" standalone="no"?>
<!DOCTYPE svg PUBLIC "-//W3C//DTD SVG 20010904//EN"
 "http://www.w3.org/TR/2001/REC-SVG-20010904/DTD/svg10.dtd">
<svg version="1.0" xmlns="http://www.w3.org/2000/svg"
 width="512.000000pt" height="512.000000pt" viewBox="0 0 512.000000 512.000000"
 preserveAspectRatio="xMidYMid meet">
<metadata>
Created by potrace 1.14, written by Peter Selinger 2001-2017
</metadata>
<g transform="translate(0.000000,512.000000) scale(0.100000,-0.100000)"
fill="#000000" stroke="none">
<path d="M2517 4942 c-15 -16 -17 -52 -17 -294 0 -254 1 -276 18 -291 24 -22
65 -21 85 1 15 16 17 52 17 294 0 254 -1 276 -18 291 -24 22 -65 21 -85 -1z"/>
<path d="M1032 4330 c-46 -43 -36 -59 171 -266 200 -200 219 -213 259 -181 17
12 21 27 19 59 -1 14 -267 288 -362 374 -37 33 -62 37 -87 14z"/>
<path d="M4003 4317 c-52 -46 -327 -321 -351 -351 -33 -42 -9 -96 44 -96 21 0
64 38 220 194 145 144 194 199 194 217 0 32 -10 46 -43 58 -24 9 -31 7 -64
-22z"/>
<path d="M2457 4164 c-1 -1 -24 -4 -52 -8 -458 -54 -852 -336 -1049 -751 -95
-199 -130 -354 -129 -575 1 -278 69 -505 222 -738 58 -88 177 -217 312 -337
98 -87 169 -198 204 -318 38 -131 37 -163 -6 -172 -47 -10 -106 -75 -116 -127
-18 -86 21 -171 93 -205 l34 -17 0 -200 0 -201 -38 -18 c-110 -53 -126 -209
-30 -291 23 -20 55 -38 72 -41 17 -3 293 -5 613 -3 l581 3 39 31 c48 38 75 91
75 148 0 70 -44 136 -104 158 l-28 10 0 201 1 202 44 27 c51 31 71 58 83 113
19 89 -39 192 -120 213 -30 8 -33 12 -34 48 -3 77 60 238 131 333 35 48 103
115 189 186 61 50 175 181 227 260 81 123 164 320 190 450 20 99 24 153 23
315 -1 144 -4 179 -28 273 -43 169 -98 296 -189 432 -218 326 -580 550 -954
591 -52 6 -251 12 -256 8z m245 -128 c37 -4 81 -11 98 -16 16 -5 30 -7 30 -5
0 9 208 -68 265 -98 333 -172 571 -480 651 -842 29 -129 25 -396 -7 -520 -69
-270 -198 -476 -412 -659 -87 -74 -109 -97 -158 -162 -92 -119 -150 -257 -168
-399 l-6 -50 -187 -3 -188 -2 0 575 0 575 70 0 c67 0 71 -1 80 -26 12 -30 -1
-54 -29 -54 -30 0 -61 -30 -61 -59 0 -42 31 -65 79 -58 154 20 186 229 47 301
-43 22 -436 23 -489 1 -107 -45 -123 -207 -26 -275 41 -30 110 -38 132 -15 35
35 19 92 -29 101 -40 7 -55 29 -43 62 8 20 15 22 79 22 l70 0 0 -575 0 -575
-192 2 -193 3 -6 56 c-21 196 -138 401 -309 544 -291 243 -452 575 -454 935 0
170 18 278 73 429 156 426 564 747 1001 787 41 3 76 7 77 8 5 4 137 -1 205 -8z
m436 -2892 c29 -20 29 -67 0 -94 -21 -19 -34 -20 -315 -20 -280 0 -294 -1
-313 -20 -11 -11 -20 -29 -20 -40 0 -11 9 -29 20 -40 19 -19 33 -20 270 -20
l250 0 0 -195 0 -195 -470 0 -470 0 0 195 0 195 30 0 c34 0 70 31 70 60 0 42
-34 60 -115 60 -84 0 -115 18 -115 65 0 14 9 34 20 45 20 20 33 20 578 20 488
0 560 -2 580 -16z m6 -766 c22 -32 20 -64 -6 -82 -20 -14 -91 -16 -578 -16
-612 0 -600 -1 -600 60 0 61 -13 60 607 60 l562 0 15 -22z"/>
<path d="M2023 3787 c-68 -40 -83 -78 -46 -119 24 -27 52 -22 121 22 53 34 62
45 62 70 0 65 -55 76 -137 27z"/>
<path d="M1764 3573 c-141 -151 -258 -376 -295 -568 -19 -97 -20 -111 -24
-192 -4 -89 4 -108 46 -118 17 -4 32 0 47 12 17 15 22 33 27 103 8 119 22 189
57 294 47 142 141 295 250 410 16 16 29 34 29 40 5 41 -23 76 -58 76 -17 0
-42 -18 -79 -57z"/>
<path d="M406 2828 c-21 -30 -20 -54 4 -78 19 -19 33 -20 294 -20 l275 0 19
25 c22 28 19 62 -7 82 -12 9 -91 12 -293 13 -275 0 -277 0 -292 -22z"/>
<path d="M4129 2837 c-26 -20 -29 -54 -7 -82 l19 -25 275 0 c261 0 275 1 294
20 11 11 20 29 20 40 0 11 -9 29 -20 40 -19 19 -33 20 -292 20 -199 -1 -277
-4 -289 -13z"/>
<path d="M1398 1710 c-9 -6 -100 -94 -202 -196 -154 -154 -186 -191 -186 -215
0 -30 31 -59 63 -59 21 0 399 372 410 403 7 19 -8 56 -27 69 -15 10 -38 9 -58
-2z"/>
<path d="M3663 1708 c-24 -12 -34 -48 -20 -75 18 -34 385 -393 401 -393 32 0
66 31 66 60 0 22 -34 62 -186 214 -102 102 -194 191 -204 196 -22 12 -29 12
-57 -2z"/>
</g>
</svg>
