<?xml version="1.0" standalone="no"?>
<!DOCTYPE svg PUBLIC "-//W3C//DTD SVG 20010904//EN"
 "http://www.w3.org/TR/2001/REC-SVG-20010904/DTD/svg10.dtd">
<svg version="1.0" xmlns="http://www.w3.org/2000/svg"
 width="128.000000pt" height="128.000000pt" viewBox="0 0 128.000000 128.000000"
 preserveAspectRatio="xMidYMid meet">

<g transform="translate(0.000000,128.000000) scale(0.100000,-0.100000)"
fill="#000000" stroke="none">
<path d="M642 1245 c-112 -35 -160 -114 -169 -280 l-6 -105 -59 0 -58 0 0
-110 0 -110 60 0 60 0 2 -307 3 -308 128 -3 127 -3 0 311 0 310 89 0 88 0 7
93 c4 50 9 100 12 110 5 15 -4 17 -95 17 l-101 0 0 73 c0 102 8 111 109 115
l81 4 0 104 0 104 -117 -1 c-69 0 -136 -6 -161 -14z"/>
</g>
</svg>
