<?xml version="1.0" standalone="no"?>
<!DOCTYPE svg PUBLIC "-//W3C//DTD SVG 20010904//EN"
 "http://www.w3.org/TR/2001/REC-SVG-20010904/DTD/svg10.dtd">
<svg version="1.0" xmlns="http://www.w3.org/2000/svg"
 width="128.000000pt" height="128.000000pt" viewBox="0 0 128.000000 128.000000"
 preserveAspectRatio="xMidYMid meet">

<g transform="translate(0.000000,128.000000) scale(0.100000,-0.100000)"
fill="#000000" stroke="none">
<path d="M58 1264 c-15 -8 -32 -23 -38 -34 -14 -26 -14 -1154 0 -1181 27 -49
31 -49 620 -49 589 0 593 0 620 49 14 27 14 1155 0 1182 -27 49 -30 49 -622
49 -469 -1 -557 -3 -580 -16z m313 -233 c22 -23 29 -39 29 -69 0 -94 -123
-134 -185 -60 -57 68 -11 158 80 158 38 0 52 -5 76 -29z m563 -243 c22 -7 57
-29 78 -50 58 -58 68 -108 68 -335 l0 -193 -94 0 -94 0 -4 188 c-3 203 -8 221
-60 243 -38 15 -83 3 -113 -33 -25 -29 -25 -31 -25 -214 l0 -184 -95 0 -95 0
0 290 0 291 93 -3 92 -3 3 -38 3 -38 21 27 c44 56 136 77 222 52z m-544 -288
l0 -290 -95 0 -95 0 0 290 0 290 95 0 95 0 0 -290z"/>
</g>
</svg>
