<?xml version="1.0" standalone="no"?>
<!DOCTYPE svg PUBLIC "-//W3C//DTD SVG 20010904//EN"
 "http://www.w3.org/TR/2001/REC-SVG-20010904/DTD/svg10.dtd">
<svg version="1.0" xmlns="http://www.w3.org/2000/svg"
 width="128.000000pt" height="128.000000pt" viewBox="0 0 128.000000 128.000000"
 preserveAspectRatio="xMidYMid meet">

<g transform="translate(0.000000,128.000000) scale(0.100000,-0.100000)"
fill="#000000" stroke="none">
<path d="M814 1149 c-108 -31 -186 -136 -188 -250 l-1 -61 -57 6 c-157 18
-345 115 -447 231 l-31 36 -15 -35 c-21 -50 -19 -152 4 -202 10 -22 33 -57 51
-78 l33 -37 -29 7 c-16 4 -40 11 -53 16 -13 5 -26 7 -28 5 -8 -9 19 -103 38
-134 26 -41 73 -81 124 -104 l40 -19 -30 -1 c-16 -1 -40 -1 -52 0 -39 3 -25
-35 36 -103 30 -33 114 -76 151 -76 l25 -1 -30 -24 c-54 -44 -152 -77 -255
-84 l-95 -7 75 -36 c188 -91 394 -100 591 -28 162 59 289 169 381 330 53 93
98 259 98 363 0 28 10 44 62 95 34 34 59 64 57 67 -3 2 -27 -2 -54 -10 -65
-20 -86 -20 -56 1 23 16 81 100 81 116 0 5 -10 2 -22 -6 -13 -8 -48 -22 -79
-31 l-56 -18 -44 30 c-71 49 -150 64 -225 42z"/>
</g>
</svg>
