<svg width="595" height="292" viewBox="0 0 595 292" fill="none" xmlns="http://www.w3.org/2000/svg">
<circle cx="302" cy="146.001" r="145.5" stroke="white"/>
<path fill-rule="evenodd" clip-rule="evenodd" d="M282 67.4664C282 60.0934 275.988 54.1164 268.571 54.1164H132.775V54.0004H110.027L87.2727 54V78.4594V79.2001V104.4V129.601H110.022V154.06H87.2727V179.26H110.022V204.46H132.504V232L268.571 232C275.988 232 282 226.023 282 218.65L282 67.4664ZM132.504 178.519V154.06H110.027V178.519H132.504ZM87.26 79.2001V54H64.5059V79.2001H87.26ZM77.8935 115.815V141.015H55.14V115.815H77.8935ZM60.5062 191.86V217.06H37.7522V191.86H60.5062ZM22.7547 116.704V91.5039H0V116.704H22.7547Z" fill="url(#paint0_linear_3_793)"/>
<circle cx="449" cy="146" r="145" stroke="#3FA046" stroke-width="2"/>
<rect x="399" y="96" width="99" height="100" rx="49.5" fill="#3FA046"/>
<path d="M432.808 166L428.5 161.692L458.038 132.154H431.577V126H468.5V162.923H462.346V136.462L432.808 166Z" fill="white"/>
<path d="M450.413 266.356L448.884 267.747C447.881 266.429 446.689 265.744 445.309 265.69C444.598 265.663 443.978 265.845 443.45 266.237C442.921 266.643 442.644 267.173 442.619 267.826C442.593 268.507 442.835 269.064 443.345 269.496C443.841 269.927 444.58 270.354 445.561 270.775C446.528 271.211 447.212 271.571 447.614 271.857C448.848 272.743 449.438 273.861 449.386 275.209C449.344 276.302 448.881 277.216 447.998 277.949C447.1 278.696 446.003 279.045 444.709 278.995C443.229 278.938 441.911 278.39 440.755 277.35L442.074 275.844C442.858 276.557 443.734 276.932 444.702 276.969C445.37 276.995 445.961 276.833 446.473 276.483C446.971 276.147 447.231 275.673 447.255 275.063C447.277 274.495 447.032 274.01 446.52 273.606C446.008 273.217 445.283 272.805 444.345 272.371C443.393 271.95 442.709 271.59 442.293 271.289C441.031 270.388 440.428 269.227 440.483 267.808C440.533 266.516 441.014 265.489 441.927 264.728C442.84 263.968 443.958 263.613 445.281 263.664C447.386 263.745 449.097 264.642 450.413 266.356Z" fill="white"/>
<path d="M439.612 263.019L438.607 272.984L436.589 272.781L437.593 262.816L439.612 263.019ZM438.281 275.585C438.51 275.865 438.606 276.189 438.569 276.557C438.532 276.924 438.373 277.222 438.093 277.451C437.811 277.694 437.485 277.797 437.117 277.76C436.749 277.723 436.451 277.558 436.223 277.263C435.979 276.982 435.876 276.657 435.913 276.29C435.95 275.922 436.116 275.625 436.411 275.398C436.691 275.169 437.016 275.073 437.384 275.11C437.753 275.147 438.051 275.305 438.281 275.585Z" fill="white"/>
<path d="M427.563 262.679C428.513 262.106 429.571 261.919 430.735 262.118C431.662 262.276 432.452 262.634 433.108 263.193C433.803 263.772 434.315 264.494 434.643 265.357C434.956 266.232 435.029 267.152 434.864 268.118C434.698 269.085 434.315 269.927 433.716 270.646C433.116 271.366 432.391 271.883 431.543 272.2C430.755 272.498 429.912 272.57 429.014 272.417C427.821 272.213 426.853 271.666 426.11 270.776L425.955 271.679L424.019 271.348L425.638 261.896C425.876 260.51 426.257 259.466 426.782 258.762C427.321 258.062 427.998 257.565 428.814 257.272C429.618 256.962 430.504 256.89 431.473 257.055C432.638 257.254 433.601 257.656 434.364 258.262C435.113 258.865 435.625 259.5 435.901 260.167L434.194 261.281C433.511 259.954 432.524 259.18 431.233 258.96C430.124 258.771 429.26 259.012 428.639 259.685C428.178 260.182 427.85 260.998 427.656 262.133L427.563 262.679ZM427.181 264.905L426.548 268.602C427.103 269.662 427.963 270.292 429.127 270.491C430.054 270.649 430.874 270.457 431.587 269.916C432.285 269.386 432.71 268.673 432.864 267.777C433.017 266.881 432.841 266.058 432.333 265.309C431.81 264.571 431.078 264.122 430.138 263.961C429.029 263.772 428.044 264.087 427.181 264.905Z" fill="white"/>
<path d="M419.208 270.405L419.459 269.479C418.471 270.021 417.4 270.137 416.246 269.824C414.789 269.43 413.769 268.544 413.185 267.164C412.769 266.198 412.763 264.968 413.169 263.473L414.454 258.743L416.412 259.272L415.1 264.105C414.824 265.12 414.813 265.919 415.068 266.503C415.391 267.268 415.972 267.763 416.81 267.99C417.91 268.287 418.962 268.079 419.967 267.365L421.771 260.721L423.73 261.251L421.105 270.917L419.208 270.405Z" fill="white"/>
<path d="M404.537 254.038C405.898 254.618 406.77 255.6 407.153 256.984C407.42 257.917 407.251 259.088 406.647 260.499L404.632 265.202L402.767 264.406L404.907 259.41C405.254 258.6 405.34 257.91 405.165 257.341C404.95 256.616 404.469 256.094 403.723 255.776C402.741 255.357 401.689 255.426 400.568 255.983L397.857 262.312L395.992 261.517L399.936 252.307L401.743 253.078L401.382 253.92C401.756 253.771 402.232 253.688 402.812 253.673C403.386 253.67 403.961 253.792 404.537 254.038Z" fill="white"/>
<path d="M395.956 251.357L398.835 246.103L400.615 247.074L393.341 260.349L391.617 259.408L392.057 258.604C390.921 258.842 389.822 258.672 388.76 258.092C387.96 257.656 387.345 257.077 386.912 256.356C386.444 255.582 386.198 254.727 386.175 253.792C386.153 252.856 386.377 251.959 386.848 251.099C387.319 250.239 387.956 249.566 388.757 249.08C389.54 248.6 390.383 248.348 391.289 248.325C392.15 248.293 392.993 248.502 393.818 248.951C394.854 249.517 395.567 250.319 395.956 251.357ZM393.067 256.629L394.87 253.339C394.703 252.163 394.126 251.305 393.139 250.767C392.302 250.31 391.455 250.212 390.598 250.473C389.722 250.74 389.065 251.272 388.628 252.07C388.191 252.868 388.087 253.694 388.317 254.548C388.527 255.407 389.045 256.062 389.869 256.512C390.906 257.078 391.972 257.117 393.067 256.629Z" fill="white"/>
<path d="M371.763 236.572L369.694 236.625C369.801 234.973 369.351 233.676 368.343 232.734C367.824 232.248 367.236 231.981 366.579 231.932C365.913 231.894 365.356 232.113 364.909 232.59C364.442 233.087 364.259 233.666 364.361 234.326C364.453 234.977 364.731 235.782 365.196 236.741C365.64 237.702 365.921 238.421 366.037 238.9C366.388 240.376 366.101 241.607 365.176 242.592C364.427 243.39 363.478 243.778 362.329 243.755C361.16 243.733 360.102 243.28 359.157 242.396C358.076 241.386 357.44 240.11 357.248 238.569L359.234 238.293C359.359 239.344 359.775 240.2 360.481 240.86C360.97 241.317 361.522 241.58 362.139 241.651C362.735 241.722 363.243 241.534 363.661 241.088C364.051 240.674 364.185 240.147 364.063 239.507C363.931 238.878 363.654 238.093 363.23 237.152C362.786 236.212 362.506 235.492 362.389 234.994C362.027 233.488 362.333 232.216 363.306 231.18C364.192 230.236 365.229 229.775 366.419 229.796C367.608 229.818 368.686 230.28 369.652 231.183C371.19 232.621 371.893 234.417 371.763 236.572Z" fill="white"/>
<path d="M365.46 227.923L358.16 234.796L356.767 233.324L364.068 226.451L365.46 227.923ZM356.205 236.549C356.195 236.91 356.055 237.218 355.786 237.471C355.516 237.725 355.201 237.846 354.838 237.836C354.466 237.835 354.152 237.7 353.898 237.432C353.644 237.163 353.528 236.843 353.549 236.472C353.549 236.1 353.684 235.787 353.954 235.534C354.223 235.28 354.544 235.164 354.916 235.185C355.278 235.195 355.586 235.335 355.84 235.604C356.094 235.872 356.216 236.187 356.205 236.549Z" fill="white"/>
<path d="M357.038 218.735C358.133 218.919 359.057 219.465 359.81 220.374C360.408 221.097 360.773 221.883 360.905 222.733C361.053 223.625 360.969 224.505 360.654 225.373C360.319 226.24 359.773 226.985 359.016 227.61C358.259 228.234 357.418 228.624 356.493 228.779C355.568 228.933 354.681 228.855 353.831 228.542C353.039 228.255 352.353 227.761 351.772 227.061C351.001 226.13 350.625 225.085 350.644 223.927L349.936 224.511L348.685 223L356.091 216.889C357.177 215.993 358.149 215.449 359.006 215.258C359.873 215.077 360.711 215.142 361.521 215.45C362.333 215.739 363.052 216.261 363.678 217.017C364.431 217.925 364.898 218.858 365.081 219.813C365.254 220.758 365.227 221.573 365 222.258L362.978 221.991C363.328 220.54 363.086 219.312 362.251 218.304C361.534 217.439 360.721 217.06 359.811 217.165C359.136 217.243 358.355 217.648 357.466 218.382L357.038 218.735ZM355.293 220.174L352.397 222.564C352.124 223.729 352.364 224.766 353.117 225.674C353.716 226.397 354.463 226.786 355.358 226.84C356.232 226.892 357.021 226.629 357.723 226.05C358.425 225.47 358.829 224.731 358.935 223.833C359.02 222.933 358.759 222.116 358.151 221.383C357.435 220.518 356.482 220.115 355.293 220.174Z" fill="white"/>
<path d="M346.186 219.149L346.981 218.61C345.877 218.379 344.99 217.769 344.319 216.782C343.472 215.535 343.277 214.199 343.736 212.773C344.052 211.77 344.852 210.833 346.136 209.964L350.201 207.213L351.34 208.888L347.186 211.699C346.314 212.289 345.784 212.889 345.596 213.497C345.341 214.287 345.458 215.041 345.945 215.758C346.585 216.698 347.519 217.225 348.748 217.337L354.456 213.473L355.595 215.149L347.288 220.771L346.186 219.149Z" fill="white"/>
<path d="M345.509 197.479C346.161 198.805 346.18 200.118 345.565 201.415C345.157 202.295 344.263 203.073 342.882 203.749L338.281 206.001L337.387 204.183L342.277 201.791C343.069 201.403 343.585 200.936 343.825 200.392C344.136 199.702 344.113 198.993 343.755 198.266C343.285 197.309 342.443 196.677 341.23 196.369L335.036 199.4L334.143 197.583L343.155 193.172L344.02 194.933L343.195 195.336C343.576 195.466 343.992 195.714 344.441 196.079C344.877 196.451 345.234 196.918 345.509 197.479Z" fill="white"/>
<path d="M340.6 189.498L346.219 187.394L346.931 189.29L332.735 194.605L332.045 192.77L332.904 192.448C331.888 191.888 331.167 191.042 330.742 189.912C330.422 189.061 330.334 188.221 330.479 187.393C330.631 186.502 331.004 185.694 331.598 184.971C332.193 184.247 332.95 183.714 333.87 183.369C334.79 183.025 335.712 182.93 336.637 183.084C337.544 183.23 338.348 183.589 339.049 184.161C339.723 184.698 340.224 185.405 340.554 186.283C340.97 187.387 340.985 188.459 340.6 189.498ZM334.961 191.609L338.481 190.292C339.124 189.292 339.248 188.267 338.852 187.216C338.517 186.325 337.94 185.699 337.12 185.339C336.282 184.97 335.436 184.945 334.583 185.265C333.73 185.584 333.111 186.142 332.726 186.938C332.323 187.727 332.286 188.56 332.617 189.438C333.032 190.541 333.813 191.265 334.961 191.609Z" fill="white"/>
<path d="M331.629 163.286L330.032 161.974C331.197 160.796 331.708 159.521 331.564 158.151C331.49 157.444 331.221 156.858 330.757 156.392C330.279 155.928 329.715 155.73 329.063 155.798C328.384 155.869 327.866 156.187 327.51 156.752C327.152 157.304 326.834 158.094 326.556 159.123C326.261 160.139 326.001 160.866 325.775 161.304C325.071 162.648 324.046 163.391 322.701 163.531C321.611 163.645 320.639 163.318 319.785 162.55C318.916 161.769 318.415 160.736 318.28 159.45C318.126 157.981 318.483 156.601 319.35 155.311L321.031 156.399C320.436 157.276 320.188 158.194 320.289 159.155C320.358 159.819 320.603 160.379 321.023 160.835C321.427 161.279 321.934 161.469 322.543 161.405C323.109 161.346 323.556 161.035 323.884 160.473C324.197 159.911 324.503 159.137 324.8 158.149C325.082 157.148 325.342 156.421 325.581 155.968C326.296 154.594 327.362 153.833 328.778 153.685C330.066 153.551 331.153 153.88 332.038 154.673C332.922 155.467 333.433 156.52 333.571 157.834C333.79 159.926 333.143 161.743 331.629 163.286Z" fill="white"/>
<path d="M332.981 152.114L322.955 152.578L322.861 150.556L332.888 150.092L332.981 152.114ZM320.328 152.635C320.084 152.902 319.777 153.045 319.407 153.062C319.037 153.079 318.718 152.966 318.45 152.722C318.168 152.479 318.019 152.173 318.002 151.804C317.984 151.435 318.105 151.117 318.363 150.849C318.607 150.567 318.914 150.418 319.283 150.401C319.653 150.384 319.972 150.504 320.241 150.762C320.509 151.006 320.651 151.312 320.668 151.681C320.685 152.05 320.572 152.368 320.328 152.635Z" fill="white"/>
<path d="M332.446 140.171C333.15 141.029 333.485 142.047 333.453 143.226C333.428 144.163 333.185 144.995 332.723 145.721C332.247 146.49 331.604 147.098 330.794 147.545C329.97 147.978 329.068 148.181 328.086 148.154C327.103 148.128 326.213 147.869 325.415 147.379C324.616 146.888 324 146.246 323.565 145.453C323.158 144.717 322.967 143.895 322.991 142.986C323.024 141.779 323.429 140.745 324.208 139.885L323.29 139.861L323.343 137.901L332.949 138.16C334.358 138.198 335.449 138.426 336.221 138.845C336.993 139.278 337.582 139.876 337.988 140.641C338.41 141.391 338.607 142.256 338.58 143.236C338.548 144.415 338.286 145.424 337.793 146.263C337.301 147.088 336.744 147.684 336.121 148.051L334.774 146.523C335.994 145.66 336.621 144.576 336.657 143.269C336.687 142.147 336.325 141.328 335.57 140.81C335.01 140.425 334.154 140.217 333.001 140.186L332.446 140.171ZM330.183 140.11L326.426 140.009C325.453 140.708 324.95 141.646 324.918 142.825C324.893 143.762 325.199 144.545 325.838 145.173C326.462 145.787 327.229 146.106 328.14 146.131C329.051 146.155 329.842 145.864 330.514 145.257C331.172 144.635 331.514 143.848 331.539 142.897C331.57 141.775 331.118 140.846 330.183 140.11Z" fill="white"/>
<path d="M323.468 133.169L324.422 133.287C323.744 132.387 323.479 131.345 323.626 130.161C323.812 128.667 324.548 127.534 325.835 126.762C326.735 126.215 327.955 126.037 329.495 126.227L334.369 126.83L334.12 128.839L329.139 128.223C328.094 128.094 327.299 128.196 326.756 128.53C326.043 128.957 325.633 129.6 325.526 130.46C325.386 131.588 325.741 132.598 326.591 133.491L333.437 134.338L333.187 136.347L323.226 135.115L323.468 133.169Z" fill="white"/>
<path d="M337.245 116.019C336.863 117.446 336.013 118.448 334.695 119.023C333.808 119.419 332.622 119.419 331.136 119.023L326.184 117.704L326.707 115.749L331.969 117.15C332.822 117.377 333.518 117.364 334.057 117.111C334.746 116.794 335.195 116.245 335.404 115.463C335.68 114.433 335.461 113.405 334.749 112.377L328.084 110.601L328.607 108.646L338.305 111.229L337.798 113.123L336.911 112.887C337.113 113.234 337.263 113.693 337.361 114.263C337.445 114.83 337.406 115.415 337.245 116.019Z" fill="white"/>
<path d="M339.423 106.733L345.05 108.816L344.344 110.714L330.128 105.452L330.811 103.613L331.672 103.932C331.272 102.845 331.282 101.735 331.703 100.602C332.02 99.75 332.505 99.0583 333.158 98.5272C333.857 97.9528 334.669 97.5866 335.593 97.4288C336.517 97.2709 337.44 97.3624 338.361 97.7033C339.282 98.0443 340.041 98.5753 340.639 99.2965C341.228 99.9994 341.6 100.796 341.755 101.687C341.911 102.533 341.826 103.395 341.499 104.274C341.088 105.38 340.396 106.199 339.423 106.733ZM333.777 104.643L337.301 105.948C338.443 105.613 339.209 104.919 339.601 103.867C339.932 102.974 339.907 102.124 339.524 101.316C339.133 100.489 338.51 99.9176 337.656 99.6013C336.801 99.2851 335.967 99.3022 335.154 99.6525C334.332 99.9846 333.757 100.59 333.431 101.469C333.02 102.575 333.135 103.633 333.777 104.643Z" fill="white"/>
<path d="M347.49 85.6897L347.063 83.6697C348.711 83.4751 349.907 82.7979 350.653 81.638C351.037 81.0401 351.194 80.4147 351.123 79.7618C351.04 79.1012 350.723 78.5945 350.172 78.2416C349.597 77.8734 348.993 77.7993 348.361 78.0193C347.737 78.2274 346.994 78.6464 346.132 79.2763C345.266 79.8866 344.608 80.2923 344.157 80.4933C342.766 81.105 341.502 81.0465 340.363 80.3178C339.44 79.7272 338.886 78.866 338.7 77.7344C338.51 76.5831 338.764 75.4633 339.464 74.3752C340.263 73.1315 341.405 72.276 342.89 71.8084L343.522 73.7066C342.508 74.0201 341.74 74.5833 341.218 75.3965C340.856 75.9585 340.697 76.5485 340.74 77.1664C340.778 77.7647 341.055 78.2288 341.57 78.5587C342.049 78.8655 342.593 78.9012 343.201 78.6659C343.797 78.4229 344.52 78.0082 345.371 77.4218C346.217 76.8158 346.875 76.4101 347.345 76.2048C348.764 75.5768 350.072 75.6464 351.271 76.4134C352.361 77.1114 353.004 78.0459 353.198 79.2169C353.393 80.3878 353.133 81.5293 352.418 82.6414C351.28 84.4111 349.638 85.4273 347.49 85.6897Z" fill="white"/>
<path d="M355.446 78.026L347.33 72.1342L348.523 70.4971L356.64 76.3889L355.446 78.026ZM345.243 70.5406C344.885 70.5969 344.556 70.5165 344.257 70.2992C343.958 70.0819 343.78 69.7946 343.723 69.4374C343.655 69.0718 343.73 68.7397 343.948 68.441C344.166 68.1423 344.459 67.9689 344.829 67.9209C345.195 67.8531 345.528 67.9278 345.827 68.1451C346.127 68.3624 346.3 68.6554 346.349 69.0241C346.405 69.3813 346.324 69.7093 346.107 70.008C345.889 70.3067 345.601 70.4842 345.243 70.5406Z" fill="white"/>
<path d="M361.792 67.994C361.808 69.1018 361.436 70.1073 360.677 71.0106C360.073 71.7288 359.364 72.2294 358.55 72.5122C357.698 72.8185 356.815 72.8955 355.902 72.7432C354.988 72.5709 354.154 72.1697 353.402 71.5396C352.649 70.9095 352.113 70.1546 351.794 69.2749C351.474 68.3953 351.391 67.51 351.546 66.6193C351.685 65.7903 352.048 65.0275 352.633 64.3311C353.411 63.406 354.373 62.8482 355.518 62.6574L354.815 62.0684L356.078 60.5666L363.439 66.7308C364.519 67.6349 365.231 68.4905 365.574 69.2975C365.909 70.1153 365.997 70.9496 365.839 71.8004C365.701 72.6494 365.317 73.4493 364.685 74.2002C363.926 75.1035 363.091 75.7309 362.182 76.0825C361.283 76.4232 360.475 76.5442 359.759 76.4453L359.656 74.4122C361.149 74.4937 362.316 74.0339 363.158 73.0327C363.881 72.1729 364.108 71.3061 363.84 70.432C363.641 69.7838 363.1 69.0898 362.217 68.3501L361.792 67.994ZM360.058 66.5419L357.178 64.131C355.981 64.0742 355.003 64.4974 354.243 65.4007C353.639 66.1189 353.391 66.9221 353.499 67.8101C353.606 68.6781 354.008 69.4044 354.706 69.9888C355.404 70.5733 356.205 70.8361 357.109 70.7774C358.012 70.6986 358.77 70.2947 359.383 69.5655C360.106 68.7058 360.331 67.6979 360.058 66.5419Z" fill="white"/>
<path d="M360.016 57.1021L360.691 57.7851C360.719 56.6602 361.159 55.6789 362.011 54.8412C363.086 53.7841 364.368 53.3514 365.856 53.543C366.902 53.6711 367.97 54.2867 369.059 55.3896L372.507 58.8804L371.062 60.3015L367.539 56.7347C366.8 55.986 366.113 55.5741 365.479 55.4992C364.655 55.3928 363.933 55.6437 363.315 56.252C362.503 57.0498 362.154 58.0619 362.266 59.2884L367.107 64.1907L365.663 65.6118L358.617 58.4783L360.016 57.1021Z" fill="white"/>
<path d="M381.341 52.2304C380.153 53.1125 378.864 53.3707 377.473 53.0048C376.531 52.7655 375.601 52.0305 374.683 50.7997L371.623 46.697L373.251 45.4883L376.502 49.8474C377.029 50.5539 377.583 50.975 378.163 51.1107C378.9 51.2895 379.594 51.1372 380.245 50.6537C381.101 50.0175 381.57 49.0759 381.652 47.8288L377.533 42.3073L379.161 41.0986L385.154 49.1329L383.578 50.3035L383.029 49.5685C382.971 49.966 382.803 50.4186 382.525 50.9262C382.238 51.4224 381.843 51.8571 381.341 52.2304Z" fill="white"/>
<path d="M387.646 46.0257L390.755 51.1474L389.02 52.1963L381.165 39.2554L382.845 38.2397L383.321 39.0234C383.685 37.9231 384.384 37.06 385.419 36.4344C386.199 35.9633 387.01 35.7224 387.852 35.7115C388.758 35.6955 389.622 35.9123 390.444 36.3621C391.266 36.8118 391.932 37.4558 392.441 38.2942C392.95 39.1327 393.214 40.0196 393.232 40.9551C393.255 41.8711 393.05 42.726 392.617 43.5196C392.212 44.2791 391.608 44.9017 390.804 45.3875C389.793 45.9984 388.741 46.2112 387.646 46.0257ZM384.526 40.8859L386.473 44.0937C387.576 44.5398 388.609 44.4721 389.571 43.8906C390.387 43.3975 390.897 42.7156 391.101 41.8449C391.309 40.9547 391.178 40.1208 390.706 39.3431C390.234 38.5655 389.57 38.0615 388.714 37.8312C387.863 37.5814 387.036 37.6994 386.233 38.1852C385.222 38.7961 384.653 39.6963 384.526 40.8859Z" fill="white"/>
<path d="M412.245 32.485L413.24 30.6749C414.617 31.5978 415.967 31.8615 417.29 31.4659C417.972 31.262 418.499 30.8893 418.871 30.3478C419.24 29.7928 419.33 29.2022 419.142 28.5763C418.946 27.9231 418.536 27.4746 417.913 27.2309C417.304 26.983 416.466 26.8182 415.401 26.7362C414.346 26.6366 413.581 26.5166 413.108 26.3764C411.653 25.9364 410.732 25.0701 410.344 23.7773C410.029 22.7295 410.17 21.7158 410.768 20.7363C411.375 19.739 412.299 19.0549 413.54 18.6837C414.959 18.2596 416.384 18.3525 417.816 18.9625L417.056 20.8135C416.082 20.3928 415.132 20.3211 414.205 20.5984C413.564 20.7901 413.058 21.1342 412.686 21.6308C412.325 22.1096 412.232 22.6417 412.408 23.2268C412.571 23.7711 412.96 24.1516 413.575 24.3681C414.186 24.571 415.006 24.7263 416.034 24.8341C417.072 24.9242 417.836 25.0442 418.327 25.194C419.813 25.6394 420.761 26.5425 421.169 27.9033C421.541 29.1416 421.419 30.2682 420.802 31.2832C420.185 32.2981 419.243 32.9952 417.974 33.3744C415.956 33.978 414.046 33.6816 412.245 32.485Z" fill="white"/>
<path d="M423.766 31.7958L421.511 22.0366L423.488 21.5817L425.743 31.3409L423.766 31.7958ZM420.983 19.4683C420.676 19.2766 420.48 19.0007 420.397 18.6408C420.314 18.2809 420.369 17.9476 420.561 17.641C420.75 17.3205 421.025 17.1188 421.385 17.0358C421.746 16.9528 422.082 17.0141 422.392 17.2196C422.713 17.4081 422.915 17.6824 422.999 18.0423C423.082 18.4022 423.02 18.7371 422.814 19.0469C422.622 19.3535 422.346 19.5483 421.985 19.6313C421.624 19.7143 421.29 19.66 420.983 19.4683Z" fill="white"/>
<path d="M435.599 29.1512C434.884 29.9984 433.942 30.5147 432.775 30.7001C431.847 30.8475 430.983 30.7618 430.183 30.4431C429.338 30.117 428.621 29.5979 428.031 28.886C427.454 28.1578 427.088 27.3097 426.933 26.3416C426.779 25.3736 426.87 24.4529 427.206 23.5795C427.543 22.7062 428.062 21.9836 428.764 21.4118C429.414 20.877 430.189 20.5382 431.088 20.3952C432.284 20.2054 433.376 20.413 434.367 21.0181L434.222 20.1132L436.163 19.805L437.673 29.2748C437.895 30.6637 437.87 31.7753 437.6 32.6094C437.315 33.4458 436.834 34.1336 436.156 34.6728C435.494 35.2239 434.678 35.5765 433.708 35.7306C432.541 35.9159 431.498 35.8441 430.581 35.5152C429.677 35.184 428.988 34.7469 428.512 34.2039L429.77 32.6016C430.844 33.6393 432.028 34.0555 433.321 33.85C434.432 33.6736 435.173 33.1675 435.544 32.3317C435.82 31.7125 435.868 30.8347 435.686 29.6983L435.599 29.1512ZM435.243 26.9205L434.653 23.2167C433.785 22.3907 432.768 22.0703 431.601 22.2557C430.673 22.4031 429.959 22.8475 429.457 23.5889C428.967 24.314 428.794 25.1255 428.937 26.0234C429.08 26.9213 429.513 27.6437 430.234 28.1908C430.968 28.7216 431.805 28.9122 432.748 28.7626C433.858 28.5862 434.69 27.9721 435.243 26.9205Z" fill="white"/>
<path d="M440.113 19.419L440.176 20.3759C440.934 19.5431 441.91 19.0877 443.104 19.0095C444.609 18.9108 445.863 19.4194 446.864 20.5355C447.571 21.3148 447.976 22.477 448.078 24.0221L448.4 28.9126L446.375 29.0453L446.046 24.0485C445.977 22.9995 445.727 22.24 445.297 21.7699C444.743 21.1514 444.032 20.8705 443.166 20.9273C442.029 21.0018 441.101 21.5395 440.382 22.5405L440.834 29.4085L438.81 29.5412L438.152 19.5475L440.113 19.419Z" fill="white"/>
<path d="M460.313 29.3403C458.836 29.2321 457.692 28.5856 456.88 27.4008C456.324 26.6052 456.103 25.4423 456.215 23.9122L456.591 18.8118L458.614 18.96L458.215 24.3792C458.151 25.2576 458.293 25.9375 458.643 26.419C459.084 27.0353 459.708 27.373 460.518 27.4323C461.583 27.5104 462.555 27.1044 463.434 26.2145L463.939 19.3502L465.962 19.4984L465.227 29.4867L463.268 29.3431L463.335 28.4293C463.03 28.6919 462.606 28.9243 462.063 29.1267C461.521 29.3149 460.938 29.3861 460.313 29.3403Z" fill="white"/>
<path d="M469.335 29.2569L468.323 35.1591L466.323 34.8179L468.879 19.9049L470.815 20.2354L470.661 21.1385C471.658 20.5448 472.753 20.3498 473.946 20.5533C474.844 20.7065 475.615 21.0543 476.259 21.5965C476.954 22.1763 477.464 22.9047 477.791 23.7819C478.117 24.6591 478.198 25.5808 478.032 26.547C477.866 27.5132 477.484 28.3558 476.884 29.075C476.3 29.7825 475.584 30.2944 474.736 30.6108C473.932 30.9204 473.066 30.9962 472.14 30.8381C470.975 30.6394 470.04 30.1123 469.335 29.2569ZM470.349 23.3337L469.716 27.0305C470.257 28.0884 471.082 28.7119 472.19 28.9011C473.131 29.0615 473.964 28.8793 474.689 28.3546C475.431 27.8182 475.879 27.1019 476.032 26.2057C476.186 25.3096 476.015 24.4949 475.519 23.7619C475.04 23.0172 474.338 22.5658 473.411 22.4078C472.247 22.209 471.226 22.5177 470.349 23.3337Z" fill="white"/>
<path d="M496.127 35.2124L498.069 34.5009C498.499 36.0998 499.343 37.1841 500.6 37.7539C501.248 38.0476 501.891 38.1126 502.528 37.949C503.172 37.7724 503.629 37.3866 503.899 36.7916C504.182 36.1707 504.169 35.564 503.86 34.9715C503.564 34.385 503.041 33.7115 502.293 32.951C501.563 32.1835 501.066 31.5917 500.802 31.1756C499.996 29.8896 499.872 28.6323 500.431 27.4034C500.885 26.4074 501.659 25.7364 502.755 25.3903C503.869 25.0372 505.016 25.1279 506.196 25.6625C507.544 26.2734 508.557 27.2783 509.234 28.6772L507.442 29.5737C506.985 28.618 506.316 27.9404 505.435 27.541C504.826 27.2649 504.218 27.1922 503.611 27.3229C503.023 27.4466 502.602 27.7865 502.349 28.3427C502.114 28.8601 502.157 29.4021 502.477 29.9687C502.804 30.5224 503.319 31.1771 504.023 31.9328C504.745 32.6815 505.242 33.2733 505.513 33.7082C506.34 35.0189 506.459 36.321 505.87 37.6145C505.335 38.7916 504.5 39.5602 503.367 39.9204C502.233 40.2805 501.064 40.1875 499.858 39.6412C497.94 38.7718 496.696 37.2955 496.127 35.2124Z" fill="white"/>
<path d="M506.001 42.2866L510.719 33.4464L512.509 34.398L507.792 43.2382L506.001 42.2866ZM512.01 31.163C511.904 30.8171 511.938 30.4811 512.112 30.1551C512.286 29.8291 512.546 29.6133 512.893 29.5078C513.246 29.3898 513.586 29.4176 513.913 29.5912C514.24 29.7648 514.453 30.0308 514.552 30.3893C514.67 30.7419 514.642 31.0812 514.468 31.4072C514.294 31.7332 514.028 31.9456 513.668 32.0445C513.322 32.15 512.985 32.1159 512.658 31.9423C512.332 31.7687 512.115 31.5089 512.01 31.163Z" fill="white"/>
<path d="M516.533 46.8948C515.436 47.0682 514.386 46.8439 513.382 46.2218C512.584 45.7272 511.986 45.098 511.59 44.3342C511.165 43.5358 510.963 42.675 510.985 41.7518C511.026 40.8241 511.305 39.9438 511.824 39.111C512.342 38.2783 513.014 37.6416 513.842 37.2009C514.669 36.7603 515.535 36.553 516.441 36.5789C517.283 36.599 518.091 36.8489 518.865 37.3285C519.893 37.9655 520.583 38.8362 520.935 39.9405L521.419 39.162L523.089 40.1962L518.02 48.3429C517.276 49.5377 516.529 50.3621 515.777 50.8161C515.013 51.2626 514.198 51.4683 513.332 51.4332C512.47 51.4176 511.622 51.1513 510.787 50.6342C509.783 50.0122 509.042 49.2772 508.565 48.4293C508.099 47.5888 507.864 46.808 507.86 46.0867L509.863 45.6968C509.994 47.1827 510.616 48.2704 511.728 48.9599C512.684 49.5519 513.576 49.6532 514.405 49.2638C515.02 48.9759 515.631 48.3431 516.24 47.3655L516.533 46.8948ZM517.727 44.9758L519.709 41.7896C519.595 40.5987 519.037 39.6923 518.033 39.0703C517.234 38.5757 516.403 38.4448 515.537 38.6778C514.691 38.9061 514.028 39.4065 513.547 40.1789C513.067 40.9514 512.92 41.78 513.106 42.665C513.313 43.5453 513.821 44.2365 514.632 44.7386C515.587 45.3307 516.619 45.4097 517.727 44.9758Z" fill="white"/>
<path d="M526.909 43.1203L526.327 43.8832C527.447 43.7521 528.483 44.0481 529.434 44.771C530.635 45.6834 531.246 46.8883 531.266 48.3859C531.287 49.4373 530.827 50.5791 529.887 51.8111L526.912 55.7105L525.298 54.4841L528.338 50.4998C528.976 49.6634 529.287 48.9269 529.272 48.2904C529.261 47.4606 528.91 46.7832 528.219 46.2582C527.313 45.5696 526.26 45.3673 525.059 45.6512L520.88 51.1274L519.266 49.901L525.346 41.9325L526.909 43.1203Z" fill="white"/>
<path d="M534.906 63.4756C533.863 62.4271 533.425 61.1898 533.591 59.764C533.695 58.7999 534.293 57.7774 535.384 56.6965L539.021 53.0932L540.45 54.5299L536.586 58.3584C535.959 58.9789 535.62 59.5855 535.567 60.178C535.494 60.9311 535.743 61.5951 536.315 62.1697C537.067 62.9259 538.068 63.256 539.317 63.1601L544.212 58.3107L545.641 59.7474L538.518 66.8038L537.134 65.4125L537.786 64.7669C537.383 64.7654 536.91 64.6632 536.367 64.4603C535.834 64.2475 535.347 63.9192 534.906 63.4756Z" fill="white"/>
<path d="M541.638 69.0566L536.999 72.8555L535.712 71.2906L547.433 61.6919L548.679 63.2074L547.969 63.7887C549.113 63.9919 550.068 64.5602 550.836 65.4937C551.414 66.1965 551.768 66.9632 551.899 67.7936C552.043 68.686 551.951 69.5703 551.622 70.4464C551.292 71.3225 550.748 72.0716 549.989 72.6934C549.229 73.3153 548.387 73.7019 547.462 73.8533C546.556 74.0066 545.679 73.9254 544.83 73.6098C544.019 73.3182 543.316 72.81 542.72 72.0852C541.97 71.1737 541.61 70.1642 541.638 69.0566ZM546.293 65.2442L543.388 67.6235C543.102 68.7765 543.316 69.7867 544.029 70.6543C544.635 71.3901 545.383 71.7968 546.276 71.8744C547.189 71.954 547.997 71.7054 548.702 71.1285C549.406 70.5517 549.812 69.8244 549.918 68.9466C550.045 68.0708 549.811 67.2705 549.215 66.5457C548.465 65.6342 547.491 65.2004 546.293 65.2442Z" fill="white"/>
<path d="M558.192 92.006L560.129 92.7313C559.409 94.2225 559.339 95.5934 559.92 96.8438C560.219 97.4883 560.663 97.9561 561.253 98.247C561.856 98.532 562.455 98.5372 563.049 98.2625C563.669 97.976 564.056 97.5076 564.209 96.8575C564.369 96.2203 564.413 95.3699 564.343 94.3064C564.292 93.2497 564.303 92.4778 564.375 91.9905C564.604 90.491 565.333 89.4576 566.56 88.8904C567.555 88.4307 568.581 88.4264 569.637 88.8775C570.713 89.3355 571.523 90.151 572.067 91.3241C572.689 92.6648 572.8 94.0855 572.398 95.5862L570.454 95.0991C570.733 94.0778 570.669 93.1288 570.262 92.2522C569.981 91.6463 569.568 91.1954 569.022 90.8994C568.496 90.6104 567.955 90.5942 567.4 90.8509C566.883 91.0898 566.561 91.5282 566.433 92.1664C566.319 92.7986 566.281 93.6301 566.32 94.661C566.378 95.6988 566.368 96.4707 566.289 96.9769C566.058 98.5082 565.297 99.5723 564.005 100.169C562.829 100.713 561.694 100.752 560.6 100.287C559.505 99.822 558.68 98.9901 558.123 97.7912C557.238 95.8834 557.261 93.9549 558.192 92.006Z" fill="white"/>
<path d="M560.974 102.853L570.332 99.2294L571.066 101.117L561.708 104.741L560.974 102.853ZM572.804 98.3406C572.95 98.0096 573.195 97.7774 573.54 97.6437C573.886 97.5101 574.224 97.5162 574.556 97.662C574.9 97.8027 575.14 98.0453 575.274 98.3896C575.408 98.7339 575.395 99.0741 575.235 99.4102C575.094 99.7543 574.851 99.9932 574.506 100.127C574.161 100.261 573.82 100.248 573.483 100.089C573.152 99.9429 572.919 99.6978 572.785 99.3534C572.651 99.0091 572.657 98.6715 572.804 98.3406Z" fill="white"/>
<path d="M565.451 113.402C564.508 112.818 563.86 111.963 563.508 110.837C563.228 109.942 563.189 109.077 563.39 108.24C563.591 107.359 564.003 106.576 564.624 105.891C565.263 105.216 566.051 104.733 566.989 104.441C567.927 104.149 568.853 104.106 569.768 104.312C570.682 104.518 571.474 104.927 572.142 105.537C572.766 106.102 573.213 106.818 573.485 107.686C573.845 108.839 573.797 109.947 573.34 111.012L574.216 110.74L574.801 112.611L565.627 115.468C564.282 115.887 563.176 116.023 562.31 115.876C561.439 115.715 560.688 115.339 560.055 114.748C559.413 114.174 558.946 113.419 558.654 112.483C558.302 111.357 558.223 110.318 558.417 109.365C558.615 108.425 558.949 107.681 559.419 107.133L561.189 108.144C560.315 109.354 560.073 110.583 560.463 111.83C560.798 112.902 561.407 113.56 562.289 113.806C562.943 113.99 563.82 113.91 564.921 113.567L565.451 113.402ZM567.612 112.729L571.2 111.612C571.895 110.637 572.066 109.586 571.714 108.461C571.434 107.566 570.89 106.924 570.083 106.535C569.293 106.156 568.463 106.102 567.593 106.373C566.723 106.644 566.069 107.175 565.631 107.966C565.21 108.767 565.142 109.622 565.426 110.53C565.761 111.602 566.49 112.335 567.612 112.729Z" fill="white"/>
<path d="M576.024 117.812L575.083 118.01C576.017 118.641 576.607 119.541 576.853 120.708C577.164 122.182 576.837 123.492 575.871 124.639C575.198 125.448 574.102 126.012 572.584 126.331L567.777 127.341L567.359 125.36L572.27 124.328C573.301 124.112 574.019 123.757 574.425 123.266C574.96 122.631 575.138 121.889 574.959 121.041C574.725 119.929 574.06 119.089 572.965 118.52L566.215 119.939L565.797 117.958L575.619 115.894L576.024 117.812Z" fill="white"/>
<path d="M568.248 137.575C568.146 136.101 568.624 134.879 569.684 133.908C570.394 133.246 571.516 132.862 573.05 132.756L578.164 132.401L578.304 134.42L572.872 134.797C571.991 134.859 571.337 135.096 570.909 135.51C570.36 136.033 570.114 136.698 570.17 137.505C570.244 138.568 570.785 139.471 571.793 140.212L578.675 139.735L578.815 141.754L568.802 142.449L568.666 140.493L569.582 140.43C569.278 140.166 568.987 139.781 568.709 139.273C568.445 138.764 568.292 138.198 568.248 137.575Z" fill="white"/>
<path d="M569.736 148.337L563.738 148.152L563.801 146.129L578.956 146.596L578.896 148.556L577.978 148.527C578.705 149.431 579.05 150.486 579.012 151.693C578.984 152.602 578.746 153.412 578.296 154.123C577.817 154.89 577.164 155.495 576.338 155.938C575.513 156.382 574.609 156.589 573.627 156.558C572.645 156.528 571.756 156.266 570.959 155.773C570.176 155.294 569.569 154.657 569.138 153.862C568.72 153.11 568.525 152.265 568.554 151.328C568.591 150.15 568.985 149.153 569.736 148.337ZM575.756 148.523L571.999 148.407C571.024 149.088 570.519 149.989 570.484 151.11C570.454 152.062 570.75 152.86 571.371 153.504C572.006 154.163 572.779 154.507 573.69 154.535C574.6 154.563 575.385 154.282 576.045 153.691C576.718 153.115 577.069 152.358 577.098 151.421C577.134 150.242 576.687 149.276 575.756 148.523Z" fill="white"/>
<path d="M568.577 170.499L569.635 172.273C568.138 172.988 567.225 174.014 566.894 175.352C566.723 176.041 566.777 176.684 567.055 177.279C567.347 177.878 567.811 178.255 568.447 178.412C569.111 178.575 569.706 178.451 570.233 178.039C570.756 177.641 571.324 177.006 571.936 176.132C572.558 175.276 573.05 174.68 573.412 174.344C574.531 173.318 575.747 172.966 577.06 173.289C578.125 173.551 578.928 174.188 579.47 175.199C580.022 176.228 580.143 177.369 579.833 178.625C579.478 180.059 578.674 181.236 577.42 182.157L576.208 180.564C577.066 179.941 577.61 179.16 577.842 178.222C578.003 177.574 577.963 176.964 577.723 176.393C577.493 175.839 577.081 175.489 576.487 175.343C575.934 175.207 575.407 175.348 574.908 175.766C574.423 176.188 573.872 176.813 573.257 177.642C572.651 178.488 572.16 179.084 571.781 179.43C570.641 180.481 569.38 180.836 567.998 180.496C566.74 180.186 565.83 179.509 565.267 178.463C564.704 177.417 564.581 176.253 564.899 174.97C565.403 172.929 566.629 171.439 568.577 170.499Z" fill="white"/>
<path d="M564.283 180.81L573.865 183.794L573.261 185.727L563.679 182.743L564.283 180.81ZM576.353 184.636C576.674 184.468 577.012 184.439 577.365 184.549C577.718 184.659 577.979 184.874 578.147 185.195C578.329 185.519 578.365 185.858 578.255 186.21C578.145 186.563 577.922 186.821 577.588 186.985C577.262 187.166 576.923 187.202 576.57 187.092C576.216 186.982 575.958 186.76 575.794 186.426C575.625 186.106 575.596 185.769 575.707 185.417C575.817 185.064 576.032 184.804 576.353 184.636Z" fill="white"/>
<path d="M560.751 192.598C560.381 191.553 560.413 190.482 560.844 189.384C561.188 188.511 561.7 187.811 562.381 187.285C563.091 186.723 563.903 186.37 564.817 186.224C565.739 186.097 566.657 186.212 567.572 186.57C568.486 186.928 569.235 187.473 569.819 188.206C570.403 188.938 570.764 189.751 570.902 190.644C571.034 191.474 570.934 192.313 570.601 193.159C570.159 194.283 569.426 195.117 568.401 195.662L569.256 195.997L568.538 197.822L559.592 194.319C558.28 193.805 557.332 193.22 556.749 192.564C556.171 191.895 555.821 191.133 555.699 190.276C555.558 189.428 555.668 188.547 556.026 187.635C556.458 186.537 557.049 185.677 557.798 185.055C558.542 184.446 559.269 184.074 559.98 183.941L560.726 185.835C559.285 186.232 558.325 187.039 557.847 188.256C557.436 189.301 557.497 190.194 558.031 190.938C558.426 191.489 559.16 191.975 560.234 192.395L560.751 192.598ZM562.858 193.423L566.357 194.793C567.51 194.466 568.302 193.754 568.734 192.657C569.077 191.784 569.056 190.944 568.67 190.136C568.292 189.347 567.679 188.787 566.831 188.455C565.982 188.122 565.139 188.128 564.301 188.471C563.47 188.833 562.881 189.456 562.532 190.342C562.121 191.387 562.23 192.414 562.858 193.423Z" fill="white"/>
<path d="M566.248 201.063L565.39 200.631C565.723 201.706 565.621 202.776 565.082 203.842C564.403 205.186 563.327 206.005 561.855 206.299C560.823 206.511 559.614 206.269 558.229 205.572L553.843 203.364L554.757 201.557L559.238 203.812C560.178 204.285 560.961 204.457 561.585 204.325C562.401 204.163 563.004 203.695 563.395 202.921C563.908 201.906 563.915 200.836 563.416 199.71L557.257 196.61L558.17 194.802L567.132 199.313L566.248 201.063Z" fill="white"/>
<path d="M547.715 213.626C548.559 212.412 549.699 211.758 551.135 211.663C552.104 211.591 553.219 211.992 554.482 212.867L558.692 215.785L557.535 217.447L553.062 214.348C552.337 213.845 551.678 213.622 551.084 213.678C550.329 213.742 549.72 214.107 549.257 214.772C548.648 215.647 548.504 216.689 548.824 217.897L554.49 221.823L553.333 223.486L545.089 217.773L546.209 216.163L546.964 216.686C546.892 216.29 546.907 215.808 547.009 215.238C547.122 214.677 547.357 214.139 547.715 213.626Z" fill="white"/>
<path d="M543.65 220.773L539.067 216.907L540.377 215.361L551.956 225.129L550.687 226.626L549.986 226.034C549.993 227.193 549.605 228.233 548.824 229.156C548.236 229.85 547.544 230.336 546.749 230.614C545.896 230.918 545.008 230.987 544.085 230.822C543.162 230.657 542.325 230.259 541.575 229.626C540.824 228.993 540.291 228.236 539.975 227.355C539.66 226.494 539.581 225.619 539.739 224.729C539.88 223.88 540.254 223.098 540.86 222.382C541.623 221.481 542.553 220.945 543.65 220.773ZM548.249 224.652L545.378 222.231C544.19 222.159 543.233 222.551 542.507 223.409C541.891 224.135 541.626 224.944 541.711 225.834C541.797 226.744 542.189 227.493 542.884 228.08C543.58 228.667 544.37 228.933 545.255 228.879C546.141 228.846 546.887 228.471 547.494 227.755C548.257 226.854 548.508 225.82 548.249 224.652Z" fill="white"/>
<path d="M528.33 238.527L528.052 240.573C526.435 240.204 525.08 240.441 523.988 241.284C523.424 241.719 523.066 242.255 522.913 242.894C522.769 243.544 522.897 244.128 523.298 244.645C523.716 245.184 524.259 245.456 524.928 245.461C525.586 245.474 526.427 245.328 527.451 245.023C528.472 244.738 529.228 244.577 529.72 244.538C531.237 244.428 532.408 244.907 533.236 245.975C533.906 246.84 534.138 247.837 533.933 248.965C533.725 250.113 533.108 251.083 532.083 251.874C530.911 252.777 529.548 253.201 527.992 253.144L528.036 251.144C529.096 251.188 530.009 250.915 530.775 250.324C531.304 249.916 531.653 249.413 531.82 248.817C531.986 248.241 531.881 247.711 531.507 247.227C531.158 246.778 530.658 246.562 530.007 246.58C529.363 246.609 528.543 246.758 527.544 247.025C526.543 247.313 525.787 247.474 525.274 247.51C523.727 247.626 522.518 247.123 521.647 245.999C520.855 244.976 520.564 243.88 520.775 242.712C520.986 241.544 521.615 240.556 522.662 239.748C524.329 238.462 526.219 238.055 528.33 238.527Z" fill="white"/>
<path d="M517.981 243.564L523.615 251.853L521.936 252.99L516.302 244.701L517.981 243.564ZM525.036 254.058C525.392 254.126 525.674 254.313 525.882 254.619C526.09 254.925 526.16 255.255 526.091 255.61C526.031 255.977 525.848 256.264 525.541 256.472C525.235 256.679 524.9 256.743 524.536 256.663C524.168 256.603 523.881 256.42 523.673 256.114C523.465 255.809 523.401 255.474 523.481 255.111C523.549 254.756 523.737 254.475 524.043 254.267C524.349 254.06 524.681 253.99 525.036 254.058Z" fill="white"/>
<path d="M508.109 250.239C508.467 249.19 509.155 248.368 510.175 247.772C510.986 247.298 511.822 247.064 512.684 247.071C513.59 247.068 514.447 247.291 515.255 247.741C516.059 248.21 516.708 248.867 517.205 249.713C517.701 250.559 517.952 251.449 517.957 252.385C517.962 253.321 517.741 254.182 517.296 254.969C516.885 255.703 516.287 256.3 515.501 256.76C514.456 257.37 513.363 257.573 512.22 257.369L512.684 258.159L510.989 259.15L506.131 250.876C505.419 249.662 505.037 248.618 504.985 247.743C504.946 246.86 505.144 246.045 505.579 245.297C505.994 244.543 506.626 243.919 507.474 243.423C508.493 242.827 509.491 242.516 510.465 242.49C511.427 242.471 512.229 242.628 512.87 242.961L512.282 244.91C510.903 244.333 509.649 244.374 508.519 245.035C507.548 245.602 507.043 246.343 507.001 247.256C506.97 247.933 507.245 248.768 507.828 249.761L508.109 250.239ZM509.253 252.188L511.153 255.424C512.261 255.879 513.325 255.809 514.345 255.213C515.156 254.739 515.66 254.065 515.857 253.193C516.049 252.339 515.915 251.521 515.454 250.736C514.994 249.952 514.328 249.435 513.456 249.187C512.58 248.959 511.73 249.085 510.907 249.566C509.936 250.134 509.385 251.008 509.253 252.188Z" fill="white"/>
<path d="M506.931 261.67L506.527 260.8C506.119 261.849 505.373 262.625 504.288 263.126C502.919 263.759 501.566 263.734 500.229 263.052C499.288 262.579 498.491 261.64 497.839 260.235L495.775 255.788L497.616 254.937L499.725 259.481C500.168 260.435 500.675 261.054 501.246 261.338C501.986 261.716 502.75 261.723 503.539 261.359C504.572 260.881 505.244 260.046 505.553 258.854L502.655 252.609L504.496 251.758L508.714 260.846L506.931 261.67Z" fill="white"/>
<path d="M484.796 258.573C486.213 258.143 487.514 258.336 488.699 259.149C489.504 259.692 490.13 260.697 490.577 262.165L492.067 267.059L490.125 267.647L488.542 262.448C488.286 261.605 487.908 261.022 487.407 260.699C486.774 260.282 486.07 260.191 485.293 260.427C484.272 260.736 483.511 261.464 483.012 262.61L485.017 269.196L483.076 269.784L480.158 260.202L482.038 259.632L482.305 260.508C482.495 260.154 482.806 259.785 483.24 259.401C483.678 259.031 484.197 258.755 484.796 258.573Z" fill="white"/>
<path d="M475.95 262.118L474.781 256.245L476.771 255.851L479.725 270.69L477.798 271.072L477.619 270.173C476.901 271.083 475.948 271.656 474.761 271.891C473.867 272.069 473.022 272.019 472.227 271.742C471.37 271.448 470.632 270.95 470.013 270.247C469.394 269.544 468.989 268.712 468.798 267.751C468.606 266.789 468.662 265.866 468.965 264.98C469.256 264.111 469.742 263.378 470.421 262.78C471.061 262.204 471.842 261.825 472.764 261.642C473.923 261.412 474.985 261.571 475.95 262.118ZM477.124 268.012L476.391 264.334C475.507 263.538 474.514 263.25 473.41 263.469C472.475 263.654 471.762 264.122 471.273 264.87C470.772 265.636 470.61 266.465 470.788 267.356C470.965 268.248 471.417 268.948 472.142 269.456C472.856 269.981 473.674 270.152 474.596 269.969C475.755 269.739 476.597 269.087 477.124 268.012Z" fill="white"/>
<circle cx="194.309" cy="89.915" r="16" fill="white"/>
<circle cx="157" cy="148" r="8" fill="white"/>
<defs>
<linearGradient id="paint0_linear_3_793" x1="282" y1="143.074" x2="-10.4385" y2="143.074" gradientUnits="userSpaceOnUse">
<stop offset="0.197917" stop-color="#3FA046"/>
<stop offset="0.932292" stop-color="#3FA046" stop-opacity="0.48"/>
</linearGradient>
</defs>
</svg>
