<svg width="574" height="513" viewBox="0 0 574 513" fill="none" xmlns="http://www.w3.org/2000/svg">
<path d="M185.338 7.80923C187.274 8.25028 189.201 7.03843 189.642 5.10249C190.083 3.16656 188.871 1.23963 186.936 0.798584C185 0.357538 183.073 1.56939 182.632 3.50532C182.191 5.44126 183.402 7.36819 185.338 7.80923Z" fill="white"/>
<path d="M46.9337 365.572C72.8547 371.477 98.6551 355.252 104.56 329.331C110.466 303.41 94.2398 277.609 68.3188 271.704C42.3978 265.799 16.5975 282.024 10.6922 307.945C4.78683 333.866 21.0127 359.667 46.9337 365.572Z" fill="white"/>
<path d="M162.665 391.938C188.586 397.843 214.387 381.618 220.292 355.697C226.197 329.776 209.972 303.975 184.051 298.07C158.13 292.165 132.329 308.39 126.424 334.311C120.519 360.232 136.744 386.033 162.665 391.938Z" fill="white"/>
<path d="M278.395 418.305C304.316 424.21 330.117 407.985 336.022 382.064C341.927 356.143 325.702 330.342 299.781 324.437C273.86 318.532 248.059 334.757 242.154 360.678C236.249 386.599 252.474 412.4 278.395 418.305Z" fill="white"/>
<path fill-rule="" clip-rule="evenodd" d="M49.5489 293.735C46.814 305.739 54.321 317.687 66.3162 320.419L285.953 370.457L285.91 370.646L359.505 387.413L387.548 264.321L350.752 255.939L359.825 216.114L396.62 224.497L405.968 183.467L369.173 175.084L378.521 134.053L342.158 125.769L352.374 80.9294L132.299 30.7919C120.304 28.0591 108.363 35.5754 105.628 47.58L49.5489 293.735ZM332.536 168.006L323.463 207.83L359.818 216.112L368.891 176.289L332.536 168.006ZM368.852 346.383L359.505 387.413L396.328 395.802L405.675 354.772L368.852 346.383ZM397.604 290.223L406.951 249.192L443.753 257.577L434.405 298.607L397.604 290.223ZM453.934 172.815L463.281 131.784L500.084 140.168L490.736 181.199L453.934 172.815ZM487.115 309.093L477.767 350.123L514.571 358.508L523.918 317.477L487.115 309.093Z" fill="url(#paint0_linear_398_1327)"/>
<path d="M124.137 260.885C123.816 260.811 123.584 260.661 123.44 260.433C123.297 260.204 123.263 259.921 123.34 259.584L124.01 256.644L116.738 254.987C116.4 254.911 116.147 254.773 115.979 254.575C115.832 254.363 115.792 254.106 115.862 253.802C115.904 253.616 115.989 253.44 116.115 253.273C116.246 253.09 116.456 252.871 116.745 252.617L127.036 243.127C127.242 242.925 127.452 242.786 127.664 242.71C127.877 242.634 128.11 242.625 128.364 242.683C128.634 242.745 128.843 242.881 128.99 243.092C129.154 243.307 129.194 243.601 129.109 243.972L126.517 255.35L128.367 255.771C128.688 255.844 128.916 255.976 129.05 256.167C129.184 256.357 129.219 256.596 129.153 256.883C129.088 257.17 128.953 257.371 128.75 257.484C128.546 257.598 128.284 257.618 127.963 257.545L126.113 257.123L125.444 260.063C125.367 260.401 125.214 260.641 124.986 260.785C124.758 260.928 124.475 260.962 124.137 260.885ZM124.414 254.871L126.654 245.039L127.262 245.177L117.8 253.95L117.927 253.393L124.414 254.871Z" fill="black"/>
<path d="M132.707 262.65C132.403 262.581 132.183 262.451 132.049 262.261C131.919 262.053 131.886 261.806 131.952 261.519C132.017 261.232 132.15 261.04 132.349 260.943C132.553 260.829 132.807 260.807 133.111 260.877L136.405 261.627L139.678 247.26L140.768 247.508L136.539 249.104C136.293 249.172 136.07 249.174 135.871 249.111C135.689 249.052 135.544 248.948 135.436 248.799C135.348 248.637 135.299 248.465 135.286 248.285C135.278 248.088 135.329 247.904 135.439 247.733C135.553 247.546 135.735 247.41 135.985 247.325L140.007 245.815C140.258 245.73 140.494 245.669 140.716 245.63C140.938 245.592 141.15 245.596 141.353 245.642C141.589 245.696 141.766 245.816 141.884 246.003C142.022 246.177 142.056 246.415 141.987 246.72L138.483 262.1L141.523 262.793C141.827 262.862 142.047 262.992 142.181 263.183C142.319 263.356 142.355 263.587 142.29 263.874C142.221 264.178 142.084 264.387 141.881 264.501C141.677 264.614 141.423 264.636 141.119 264.567L132.707 262.65Z" fill="black"/>
<path d="M154.524 267.807C154.203 267.734 153.971 267.584 153.827 267.355C153.684 267.127 153.651 266.844 153.728 266.506L154.397 263.567L147.125 261.91C146.787 261.833 146.534 261.696 146.366 261.498C146.219 261.286 146.18 261.029 146.249 260.725C146.291 260.539 146.376 260.363 146.503 260.196C146.633 260.013 146.843 259.794 147.132 259.54L157.424 250.05C157.629 249.848 157.839 249.709 158.052 249.633C158.264 249.557 158.497 249.548 158.751 249.606C159.021 249.667 159.23 249.804 159.377 250.015C159.541 250.23 159.581 250.524 159.497 250.895L156.905 262.273L158.754 262.694C159.075 262.767 159.303 262.899 159.437 263.089C159.572 263.28 159.606 263.519 159.541 263.806C159.475 264.093 159.341 264.293 159.137 264.407C158.933 264.521 158.671 264.541 158.35 264.468L156.5 264.046L155.831 266.986C155.754 267.323 155.601 267.564 155.373 267.708C155.145 267.851 154.862 267.884 154.524 267.807ZM154.801 261.793L157.041 251.962L157.649 252.1L148.188 260.873L148.315 260.316L154.801 261.793Z" fill="black"/>
<path d="M163.383 269.826C163.146 269.772 162.957 269.666 162.815 269.51C162.673 269.353 162.6 269.167 162.595 268.953C162.612 268.726 162.716 268.501 162.909 268.278L174.639 254.345L174.432 255.257L165.31 253.179C165.005 253.11 164.786 252.98 164.652 252.789C164.522 252.582 164.489 252.335 164.554 252.048C164.62 251.76 164.754 251.56 164.958 251.446C165.162 251.333 165.415 251.311 165.719 251.38L175.779 253.672C176.083 253.741 176.311 253.873 176.462 254.067C176.613 254.262 176.656 254.502 176.591 254.79C176.537 255.026 176.455 255.23 176.345 255.4C176.256 255.557 176.135 255.734 175.984 255.931L164.71 269.382C164.538 269.591 164.346 269.734 164.133 269.81C163.92 269.886 163.67 269.891 163.383 269.826Z" fill="black"/>
<path d="M188.823 275.675C187.86 275.455 186.93 275.092 186.032 274.586C185.152 274.083 184.392 273.439 183.753 272.654C183.582 272.473 183.483 272.281 183.458 272.08C183.432 271.879 183.466 271.691 183.559 271.517C183.652 271.343 183.78 271.212 183.942 271.124C184.108 271.02 184.286 270.98 184.475 271.006C184.682 271.035 184.878 271.151 185.063 271.353C185.644 272.001 186.279 272.527 186.968 272.933C187.658 273.339 188.408 273.634 189.219 273.819C190.046 274.008 190.791 274.017 191.451 273.848C192.132 273.665 192.689 273.33 193.12 272.842C193.571 272.341 193.884 271.71 194.057 270.95C194.323 269.784 194.202 268.753 193.696 267.856C193.189 266.958 192.345 266.375 191.163 266.106C190.436 265.94 189.738 265.923 189.068 266.055C188.399 266.187 187.743 266.491 187.102 266.966C186.953 267.075 186.782 267.16 186.59 267.223C186.419 267.273 186.232 267.275 186.029 267.228C185.742 267.163 185.531 267.035 185.397 266.845C185.283 266.641 185.257 266.404 185.319 266.134L187.328 257.316C187.401 256.995 187.539 256.778 187.743 256.664C187.95 256.534 188.206 256.503 188.51 256.572L197.125 258.535C197.446 258.608 197.666 258.738 197.783 258.925C197.917 259.115 197.952 259.354 197.886 259.641C197.821 259.928 197.686 260.129 197.483 260.242C197.296 260.36 197.042 260.382 196.721 260.309L189.196 258.594L187.573 265.715L187.016 265.588C187.617 264.978 188.348 264.576 189.21 264.381C190.075 264.17 190.99 264.174 191.953 264.393C193.084 264.651 194.002 265.109 194.705 265.767C195.425 266.428 195.906 267.24 196.149 268.201C196.413 269.15 196.416 270.19 196.158 271.322C195.904 272.437 195.434 273.369 194.748 274.119C194.062 274.869 193.215 275.387 192.208 275.673C191.201 275.959 190.073 275.959 188.823 275.675Z" fill="black"/>
<path d="M202.395 278.767C201.634 278.593 200.875 278.26 200.117 277.768C199.358 277.275 198.732 276.67 198.238 275.954C198.083 275.776 198.001 275.589 197.993 275.391C198.001 275.198 198.05 275.023 198.139 274.865C198.232 274.691 198.351 274.558 198.496 274.467C198.662 274.362 198.838 274.331 199.024 274.374C199.214 274.399 199.393 274.511 199.561 274.709C200.023 275.33 200.534 275.819 201.092 276.178C201.65 276.536 202.242 276.786 202.867 276.928C203.965 277.179 204.955 277.12 205.839 276.753C206.739 276.389 207.508 275.702 208.147 274.693C208.803 273.687 209.315 272.374 209.685 270.752L210.221 268.395L210.45 268.447C210.133 269.37 209.657 270.133 209.022 270.734C208.405 271.34 207.69 271.746 206.879 271.952C206.068 272.158 205.206 272.157 204.294 271.949C203.247 271.711 202.372 271.263 201.668 270.605C200.965 269.947 200.484 269.136 200.224 268.17C199.964 267.205 199.957 266.181 200.204 265.1C200.462 263.968 200.925 263.026 201.594 262.272C202.285 261.505 203.108 260.973 204.064 260.675C205.041 260.365 206.087 260.337 207.202 260.591C208.604 260.91 209.716 261.528 210.538 262.444C211.381 263.346 211.907 264.506 212.118 265.922C212.328 267.338 212.224 268.967 211.804 270.808C211.45 272.362 210.978 273.694 210.387 274.804C209.797 275.913 209.095 276.81 208.282 277.496C207.472 278.164 206.571 278.607 205.58 278.826C204.588 279.044 203.526 279.024 202.395 278.767ZM205.123 270.299C205.883 270.472 206.589 270.455 207.24 270.248C207.892 270.041 208.445 269.679 208.901 269.161C209.36 268.626 209.679 267.97 209.856 267.193C210.033 266.415 210.028 265.695 209.842 265.03C209.656 264.366 209.314 263.799 208.816 263.331C208.319 262.862 207.69 262.541 206.93 262.368C206.187 262.199 205.49 262.217 204.838 262.424C204.204 262.635 203.65 262.998 203.178 263.512C202.722 264.03 202.406 264.678 202.229 265.455C202.052 266.232 202.054 266.961 202.237 267.642C202.44 268.311 202.782 268.877 203.262 269.342C203.76 269.811 204.38 270.13 205.123 270.299Z" fill="black"/>
<path d="M219.438 282.649C218.036 282.33 216.913 281.719 216.071 280.816C215.249 279.9 214.732 278.734 214.522 277.318C214.312 275.902 214.416 274.273 214.836 272.432C215.19 270.878 215.662 269.546 216.252 268.437C216.843 267.327 217.543 266.438 218.352 265.77C219.166 265.084 220.069 264.633 221.06 264.414C222.052 264.196 223.113 264.216 224.245 264.474C225.022 264.651 225.782 264.983 226.523 265.472C227.282 265.965 227.91 266.561 228.408 267.261C228.563 267.439 228.634 267.632 228.622 267.843C228.63 268.04 228.588 268.226 228.495 268.4C228.406 268.558 228.28 268.68 228.118 268.768C227.973 268.859 227.805 268.892 227.616 268.866C227.43 268.824 227.253 268.704 227.085 268.506C226.622 267.885 226.11 267.404 225.548 267.063C224.99 266.704 224.398 266.454 223.773 266.312C222.675 266.062 221.676 266.118 220.776 266.482C219.892 266.849 219.123 267.536 218.467 268.541C217.832 269.534 217.328 270.85 216.955 272.488L216.418 274.845L216.19 274.793C216.511 273.853 216.978 273.089 217.592 272.5C218.227 271.898 218.95 271.494 219.761 271.288C220.572 271.082 221.433 271.083 222.346 271.291C223.393 271.529 224.268 271.978 224.971 272.635C225.674 273.293 226.156 274.105 226.416 275.07C226.679 276.019 226.686 277.042 226.436 278.14C226.182 279.255 225.718 280.198 225.045 280.968C224.372 281.739 223.547 282.28 222.57 282.59C221.597 282.884 220.553 282.903 219.438 282.649ZM219.715 280.847C220.459 281.016 221.154 281.006 221.801 280.816C222.453 280.609 223.006 280.246 223.462 279.728C223.921 279.193 224.24 278.537 224.417 277.76C224.594 276.983 224.589 276.262 224.403 275.598C224.217 274.933 223.875 274.367 223.377 273.898C222.88 273.429 222.26 273.11 221.516 272.941C220.773 272.772 220.076 272.79 219.425 272.997C218.773 273.205 218.22 273.567 217.764 274.085C217.308 274.603 216.992 275.251 216.815 276.028C216.638 276.805 216.641 277.534 216.823 278.215C217.009 278.88 217.351 279.446 217.849 279.915C218.35 280.367 218.972 280.677 219.715 280.847Z" fill="black"/>
<path d="M240.353 287.414C239.374 287.191 238.418 286.822 237.487 286.308C236.573 285.798 235.816 285.181 235.216 284.458C235.031 284.256 234.926 284.055 234.901 283.853C234.88 283.635 234.905 283.446 234.977 283.284C235.07 283.11 235.198 282.979 235.36 282.892C235.526 282.787 235.704 282.748 235.893 282.773C236.1 282.803 236.304 282.92 236.506 283.126C237.138 283.785 237.8 284.309 238.493 284.698C239.187 285.087 239.93 285.372 240.724 285.553C241.586 285.749 242.341 285.788 242.99 285.67C243.639 285.551 244.171 285.281 244.587 284.861C245.006 284.423 245.299 283.841 245.464 283.115C245.703 282.067 245.538 281.194 244.968 280.496C244.399 279.798 243.455 279.298 242.138 278.998L240.338 278.588C240.017 278.515 239.79 278.383 239.656 278.193C239.525 277.986 239.493 277.738 239.558 277.451C239.62 277.181 239.752 276.989 239.956 276.875C240.163 276.745 240.427 276.716 240.748 276.789L242.37 277.159C243.147 277.336 243.837 277.351 244.439 277.204C245.058 277.06 245.575 276.778 245.991 276.358C246.41 275.92 246.701 275.347 246.863 274.637C247.078 273.691 246.938 272.904 246.441 272.276C245.948 271.63 245.128 271.177 243.979 270.915C243.219 270.742 242.476 270.688 241.75 270.754C241.024 270.819 240.273 271.039 239.494 271.413C239.257 271.519 239.037 271.548 238.834 271.502C238.652 271.443 238.505 271.347 238.393 271.215C238.302 271.07 238.244 270.897 238.218 270.696C238.21 270.498 238.261 270.314 238.371 270.144C238.485 269.957 238.67 269.803 238.929 269.685C239.735 269.264 240.629 269.006 241.611 268.91C242.592 268.813 243.564 268.875 244.527 269.094C245.676 269.356 246.613 269.765 247.34 270.321C248.086 270.865 248.601 271.533 248.882 272.325C249.167 273.101 249.2 273.97 248.981 274.933C248.815 275.66 248.52 276.294 248.094 276.837C247.689 277.367 247.185 277.785 246.582 278.092C245.996 278.402 245.327 278.57 244.575 278.594L244.639 278.315C245.826 278.799 246.665 279.523 247.156 280.488C247.667 281.44 247.785 282.524 247.508 283.74C247.273 284.771 246.824 285.61 246.161 286.259C245.519 286.894 244.702 287.321 243.71 287.539C242.722 287.741 241.604 287.699 240.353 287.414Z" fill="black"/>
<path d="M256.13 291.009C255.167 290.789 254.237 290.426 253.339 289.92C252.459 289.417 251.699 288.773 251.061 287.988C250.889 287.807 250.79 287.615 250.765 287.414C250.74 287.213 250.774 287.025 250.867 286.851C250.96 286.677 251.087 286.546 251.249 286.458C251.415 286.354 251.593 286.314 251.783 286.34C251.989 286.369 252.185 286.485 252.37 286.687C252.951 287.335 253.586 287.861 254.276 288.267C254.965 288.673 255.715 288.968 256.526 289.153C257.354 289.342 258.098 289.351 258.758 289.182C259.44 288.999 259.996 288.664 260.427 288.176C260.879 287.675 261.191 287.044 261.364 286.284C261.63 285.118 261.509 284.087 261.003 283.19C260.497 282.292 259.652 281.709 258.47 281.44C257.743 281.274 257.045 281.257 256.376 281.389C255.706 281.521 255.05 281.825 254.409 282.3C254.26 282.409 254.089 282.494 253.897 282.557C253.726 282.607 253.539 282.609 253.336 282.562C253.049 282.497 252.838 282.369 252.704 282.179C252.59 281.975 252.565 281.738 252.626 281.468L254.635 272.65C254.708 272.329 254.846 272.112 255.05 271.998C255.257 271.868 255.513 271.837 255.817 271.906L264.433 273.869C264.754 273.942 264.973 274.072 265.09 274.259C265.224 274.449 265.259 274.688 265.193 274.975C265.128 275.262 264.994 275.463 264.79 275.576C264.603 275.694 264.349 275.716 264.029 275.643L256.503 273.928L254.881 281.049L254.323 280.921C254.924 280.312 255.655 279.91 256.517 279.715C257.383 279.504 258.297 279.508 259.26 279.727C260.392 279.985 261.309 280.443 262.012 281.101C262.732 281.762 263.214 282.574 263.456 283.535C263.72 284.484 263.723 285.524 263.465 286.656C263.211 287.771 262.741 288.703 262.055 289.453C261.369 290.203 260.522 290.721 259.515 291.007C258.508 291.293 257.38 291.293 256.13 291.009Z" fill="black"/>
<path d="M273.945 295.014C273.624 294.941 273.392 294.79 273.248 294.562C273.105 294.334 273.072 294.051 273.148 293.713L273.818 290.774L266.546 289.117C266.208 289.04 265.955 288.902 265.787 288.704C265.64 288.493 265.601 288.235 265.67 287.931C265.712 287.745 265.797 287.569 265.924 287.403C266.054 287.219 266.264 287 266.553 286.746L276.844 277.256C277.05 277.054 277.26 276.916 277.472 276.84C277.685 276.764 277.918 276.755 278.172 276.812C278.442 276.874 278.651 277.01 278.798 277.222C278.962 277.437 279.002 277.73 278.917 278.102L276.325 289.479L278.175 289.901C278.496 289.974 278.724 290.105 278.858 290.296C278.992 290.486 279.027 290.725 278.961 291.013C278.896 291.3 278.761 291.5 278.558 291.614C278.354 291.727 278.092 291.747 277.771 291.674L275.921 291.253L275.252 294.192C275.175 294.53 275.022 294.771 274.794 294.914C274.566 295.058 274.283 295.091 273.945 295.014ZM274.222 289L276.462 279.168L277.07 279.307L267.608 288.08L267.735 287.522L274.222 289Z" fill="black"/>
<path d="M289.048 298.268C288.743 298.199 288.524 298.069 288.39 297.878C288.26 297.671 288.227 297.424 288.292 297.137C288.358 296.849 288.49 296.657 288.69 296.561C288.894 296.447 289.148 296.425 289.452 296.494L292.746 297.245L296.019 282.877L297.108 283.126L292.88 284.721C292.634 284.789 292.411 284.792 292.212 284.729C292.03 284.67 291.885 284.566 291.777 284.417C291.689 284.254 291.639 284.083 291.627 283.903C291.619 283.705 291.67 283.521 291.78 283.351C291.893 283.164 292.075 283.027 292.326 282.942L296.348 281.433C296.598 281.348 296.835 281.286 297.056 281.248C297.278 281.21 297.491 281.214 297.693 281.26C297.93 281.314 298.107 281.434 298.224 281.621C298.362 281.794 298.397 282.033 298.328 282.337L294.824 297.718L297.864 298.411C298.168 298.48 298.387 298.61 298.522 298.801C298.66 298.974 298.696 299.205 298.631 299.492C298.562 299.796 298.425 300.005 298.222 300.118C298.018 300.232 297.764 300.254 297.46 300.185L289.048 298.268Z" fill="black"/>
<path d="M155.535 94.9374C153.052 94.3718 150.576 95.9285 150.01 98.4101L142.387 131.874C141.821 134.355 143.379 136.831 145.862 137.396L194.868 148.561C197.351 149.127 199.828 147.57 200.394 145.089L208.017 111.625C208.583 109.144 207.024 106.668 204.541 106.102L155.535 94.9374ZM155.265 96.1208L172.37 100.018L170.354 108.869C168.466 109.212 166.772 110.255 165.642 111.791L149.068 108.015L151.194 98.6798C151.615 96.8332 153.418 95.7 155.265 96.1208ZM173.554 100.287L185.984 103.119L183.889 112.316C183.861 112.438 183.872 112.565 183.919 112.681C183.967 112.797 184.049 112.895 184.155 112.962C185.733 113.964 186.781 115.623 187.004 117.478C187.004 117.482 187.005 117.486 187.005 117.49C187.026 117.661 187.039 117.834 187.045 118.008L187.046 118.017C187.052 118.182 187.049 118.348 187.042 118.514C187.041 118.528 187.042 118.542 187.041 118.555C187.034 118.695 187.019 118.835 187.003 118.976C186.997 119.017 186.996 119.059 186.99 119.1C186.966 119.274 186.934 119.448 186.894 119.622L184.819 128.731C184.779 128.905 184.733 129.075 184.679 129.242C184.666 129.282 184.65 129.32 184.637 129.36C184.591 129.494 184.543 129.627 184.489 129.755C184.484 129.768 184.478 129.78 184.472 129.793C184.407 129.946 184.337 130.097 184.26 130.243L184.256 130.251C184.175 130.405 184.088 130.555 183.995 130.701C183.995 130.701 183.993 130.707 183.991 130.71C182.987 132.285 181.322 133.328 179.465 133.546C179.341 133.561 179.224 133.614 179.131 133.698C179.038 133.782 178.973 133.892 178.946 134.014L176.85 143.21L164.42 140.379L166.515 131.182C166.543 131.06 166.532 130.933 166.485 130.817C166.437 130.701 166.355 130.603 166.249 130.536C164.671 129.534 163.623 127.874 163.4 126.02C163.4 126.02 163.399 126.02 163.4 126.014L163.399 126.006C163.379 125.835 163.366 125.661 163.359 125.487V125.479C163.353 125.314 163.356 125.148 163.363 124.981C163.363 124.968 163.363 124.954 163.364 124.94C163.371 124.801 163.385 124.66 163.402 124.52C163.407 124.478 163.409 124.437 163.415 124.395C163.439 124.222 163.471 124.048 163.511 123.874L165.586 114.765C165.625 114.591 165.672 114.42 165.726 114.253C165.738 114.213 165.755 114.175 165.768 114.136C165.814 114.001 165.861 113.869 165.915 113.74C165.921 113.727 165.927 113.715 165.932 113.703C165.998 113.549 166.068 113.399 166.144 113.253L166.148 113.245C166.23 113.091 166.317 112.941 166.409 112.795C166.411 112.792 166.414 112.786 166.414 112.786C167.418 111.21 169.083 110.168 170.939 109.949C171.064 109.934 171.18 109.881 171.273 109.797C171.366 109.714 171.431 109.604 171.459 109.481L173.554 100.287ZM187.168 103.389L204.272 107.286C206.119 107.706 207.254 109.509 206.834 111.356L204.707 120.691L188.132 116.915C187.779 115.041 186.704 113.367 185.151 112.24L187.168 103.389ZM148.798 109.198L164.974 112.883C164.726 113.386 164.532 113.925 164.402 114.497L162.327 123.606C162.196 124.179 162.138 124.749 162.143 125.309L145.967 121.623L148.798 109.198ZM188.261 118.189L204.437 121.874L201.606 134.299L185.431 130.614C185.678 130.112 185.872 129.573 186.003 129L188.078 119.891C188.208 119.319 188.267 118.749 188.261 118.189ZM145.698 122.807L162.272 126.583C162.626 128.457 163.7 130.13 165.253 131.258L163.236 140.11L146.131 136.213C144.284 135.792 143.15 133.99 143.571 132.143L145.698 122.807ZM184.762 131.707L201.337 135.483L199.21 144.819C198.789 146.665 196.985 147.799 195.138 147.378L178.034 143.481L180.051 134.629C181.938 134.285 183.632 133.242 184.762 131.707Z" fill="black"/>
<path d="M310.739 395.596L298.527 449.199L572.599 511.638" stroke="white" stroke-linecap="round"/>
<path d="M53.2192 53.1301C58.9087 54.4263 64.5717 50.8648 65.8679 45.1753C67.164 39.4858 63.6026 33.8228 57.9131 32.5266C52.2236 31.2305 46.5606 34.7919 45.2644 40.4814C43.9682 46.1709 47.5297 51.8339 53.2192 53.1301Z" fill="#3FA046"/>
<path d="M409.35 485.283C415.04 486.579 420.703 483.017 421.999 477.328C423.295 471.638 419.733 465.975 414.044 464.679C408.354 463.383 402.691 466.945 401.395 472.634C400.099 478.324 403.661 483.987 409.35 485.283Z" fill="#3FA046"/>
<path d="M539.895 511.697C543.837 512.595 547.761 510.127 548.659 506.185C549.557 502.243 547.089 498.319 543.147 497.421C539.205 496.523 535.281 498.991 534.383 502.933C533.485 506.875 535.953 510.799 539.895 511.697Z" fill="#3FA046"/>
<defs>
<linearGradient id="paint0_linear_398_1327" x1="77.5944" y1="170.631" x2="550.583" y2="278.388" gradientUnits="userSpaceOnUse">
<stop offset="0.197917" stop-color="#3FA046"/>
<stop offset="0.932292" stop-color="#3FA046" stop-opacity="0.48"/>
</linearGradient>
</defs>
</svg>
