<svg width="485" height="370" viewBox="0 0 485 370" fill="none" xmlns="http://www.w3.org/2000/svg">
<path d="M341.666 368.311V326.366C464.496 326.366 483.348 222.203 483.348 184.626C483.348 147.05 468.421 111.013 441.85 84.4422C415.28 57.8717 379.242 42.9446 341.666 42.9446L341.666 1" stroke="white" stroke-linecap="round" stroke-dasharray="10 10"/>
<g clip-path="url(#clip0_3_891)">
<path d="M297.886 244.023V128.751L336.907 140.541V204.991H354.105V150.088L393.244 160.431V204.991H462.735C467.406 173.418 460.023 141.243 442.054 114.865C424.085 88.4878 396.846 69.8397 365.754 62.6297C334.663 55.4197 301.996 60.176 274.252 75.9528C246.507 91.7295 225.717 117.371 216.015 147.777C206.314 178.184 208.413 211.128 221.894 240.058C235.374 268.988 259.25 291.784 288.772 303.913C318.295 316.042 351.3 316.615 381.226 305.518C411.151 294.421 435.804 272.468 450.281 244.023H297.886Z" fill="white"/>
<path d="M330.977 118.623C335.531 120.307 337.322 123.023 335.994 126.628C334.487 130.685 331.25 132.25 325.568 130.186L308.157 123.734L313.755 120.022L327.905 125.264C329.269 125.774 330.04 125.585 330.419 124.553C330.799 123.521 330.336 122.904 328.96 122.394L318.784 118.623C313.981 116.843 312.617 113.748 313.874 110.32C315.262 106.584 318.5 105.03 324.181 107.142L340.465 113.143L334.843 116.903L321.868 112.099C320.528 111.613 319.757 111.72 319.377 112.728C318.998 113.736 319.508 114.353 320.848 114.851L330.977 118.623Z" fill="#3FA046"/>
<path d="M326.952 106.31L326.185 108.378L332.191 110.604L332.957 108.535L326.952 106.31Z" fill="#3FA046"/>
<path d="M318.884 127.488L318.117 129.556L324.123 131.781L324.889 129.713L318.884 127.488Z" fill="#3FA046"/>
<path d="M384.776 140.327C388.808 141.916 390.362 144.372 389.093 147.574C387.682 151.132 384.776 152.496 379.735 150.503L364.316 144.431L369.381 141.217L381.905 146.163C383.092 146.637 383.803 146.483 384.171 145.569C384.538 144.656 384.171 144.099 382.902 143.613L373.9 140.054C369.642 138.37 368.479 135.583 369.665 132.57C370.97 129.273 373.9 127.945 378.917 129.926L393.303 135.595L388.215 138.856L376.734 134.326C375.548 133.863 374.849 133.946 374.493 134.836C374.137 135.725 374.576 136.295 375.774 136.769L384.776 140.327Z" fill="#3FA046"/>
<path d="M381.4 129.295L380.678 131.127L385.996 133.224L386.719 131.392L381.4 129.295Z" fill="#3FA046"/>
<path d="M373.808 148.071L373.086 149.903L378.404 152L379.126 150.168L373.808 148.071Z" fill="#3FA046"/>
</g>
<path d="M252.516 283.983H255.423C255.423 283.983 261.089 288.421 262.09 289.19C267.237 293.147 271.544 295.313 271.544 295.574V303.018C271.544 303.279 271.493 303.538 271.394 303.78C271.294 304.022 271.147 304.241 270.962 304.426C270.777 304.611 270.558 304.758 270.316 304.858C270.074 304.958 269.816 305.009 269.554 305.008H252.516C251.989 305.008 251.483 304.798 251.11 304.425C250.736 304.052 250.527 303.546 250.526 303.018V285.974C250.527 285.446 250.736 284.94 251.11 284.567C251.483 284.193 251.989 283.984 252.516 283.983Z" fill="url(#paint0_linear_3_891)"/>
<path d="M216.713 225.988C216.713 225.988 219.129 233.138 221.037 237.521C222.698 241.334 225.607 246.895 225.607 246.895H216.727C216.199 246.895 215.693 246.685 215.32 246.311C214.947 245.938 214.737 245.432 214.737 244.904V227.86C214.739 227.333 214.949 226.827 215.322 226.454C215.694 226.081 216.185 225.99 216.713 225.988Z" fill="url(#paint1_linear_3_891)"/>
<path d="M216.727 254.926H230.22C230.22 254.926 231.593 257.028 232.492 258.362C233.744 260.22 235.755 262.941 235.755 262.941V273.961C235.755 274.223 235.704 274.482 235.604 274.723C235.504 274.965 235.358 275.185 235.173 275.37C234.988 275.555 234.768 275.701 234.527 275.801C234.285 275.901 234.026 275.952 233.765 275.952H216.727C216.199 275.951 215.693 275.742 215.32 275.368C214.947 274.995 214.737 274.489 214.737 273.961V256.917C214.739 256.39 214.949 255.884 215.322 255.511C215.694 255.138 216.2 254.928 216.727 254.926Z" fill="url(#paint2_linear_3_891)"/>
<path d="M216.727 283.983H233.765C234.026 283.983 234.285 284.034 234.527 284.134C234.768 284.234 234.988 284.38 235.173 284.565C235.358 284.75 235.504 284.97 235.604 285.212C235.704 285.453 235.755 285.712 235.755 285.974V303.018C235.755 303.279 235.704 303.538 235.604 303.78C235.504 304.022 235.358 304.241 235.173 304.426C234.988 304.611 234.768 304.758 234.527 304.858C234.285 304.958 234.026 305.009 233.765 305.008H216.727C216.199 305.008 215.693 304.798 215.32 304.425C214.947 304.052 214.737 303.546 214.737 303.018V285.974C214.737 285.446 214.947 284.94 215.32 284.567C215.693 284.193 216.199 283.984 216.727 283.983Z" fill="url(#paint3_linear_3_891)"/>
<path d="M180.938 167.756H197.983C198.509 167.758 199.014 167.968 199.385 168.342C199.757 168.715 199.966 169.22 199.965 169.747V186.798C199.965 187.324 199.756 187.828 199.385 188.2C199.013 188.572 198.509 188.781 197.983 188.781H180.938C180.411 188.781 179.906 188.573 179.533 188.201C179.16 187.829 178.95 187.325 178.948 186.798V169.747C178.949 169.219 179.159 168.714 179.532 168.341C179.905 167.968 180.41 167.758 180.938 167.756Z" fill="url(#paint4_linear_3_891)"/>
<path d="M180.938 196.813H197.983C198.509 196.815 199.014 197.025 199.385 197.398C199.757 197.772 199.966 198.277 199.965 198.804V215.855C199.965 216.381 199.756 216.885 199.385 217.257C199.013 217.629 198.509 217.838 197.983 217.838H180.938C180.411 217.838 179.906 217.63 179.533 217.258C179.16 216.886 178.949 216.382 178.948 215.855V198.804C178.949 198.276 179.159 197.771 179.532 197.398C179.905 197.025 180.41 196.814 180.938 196.813Z" fill="url(#paint5_linear_3_891)"/>
<path d="M180.938 225.87H197.983C198.509 225.872 199.014 226.082 199.385 226.455C199.757 226.828 199.966 227.334 199.965 227.86V244.904C199.966 245.165 199.915 245.424 199.816 245.665C199.717 245.906 199.571 246.126 199.387 246.311C199.203 246.496 198.984 246.642 198.743 246.743C198.502 246.843 198.244 246.894 197.983 246.895H180.938C180.41 246.895 179.904 246.685 179.531 246.311C179.158 245.938 178.948 245.432 178.948 244.904V227.86C178.949 227.333 179.159 226.827 179.532 226.454C179.905 226.081 180.41 225.871 180.938 225.87Z" fill="url(#paint6_linear_3_891)"/>
<path d="M180.938 254.926H197.983C198.509 254.928 199.014 255.139 199.385 255.512C199.757 255.885 199.966 256.391 199.965 256.917V273.961C199.966 274.222 199.915 274.48 199.816 274.722C199.717 274.963 199.571 275.183 199.387 275.367C199.203 275.552 198.984 275.699 198.743 275.799C198.502 275.9 198.244 275.951 197.983 275.952H180.938C180.41 275.951 179.904 275.742 179.531 275.368C179.158 274.995 178.948 274.489 178.948 273.961V256.917C178.949 256.39 179.159 255.884 179.532 255.511C179.905 255.138 180.41 254.928 180.938 254.926Z" fill="url(#paint7_linear_3_891)"/>
<path d="M180.938 283.983H197.983C198.244 283.984 198.502 284.035 198.743 284.136C198.984 284.236 199.203 284.383 199.387 284.567C199.571 284.752 199.717 284.972 199.816 285.213C199.915 285.454 199.966 285.713 199.965 285.974V303.018C199.966 303.279 199.915 303.537 199.816 303.779C199.717 304.02 199.571 304.239 199.387 304.424C199.203 304.609 198.984 304.756 198.743 304.856C198.502 304.956 198.244 305.008 197.983 305.008H180.938C180.41 305.008 179.904 304.798 179.531 304.425C179.158 304.052 178.948 303.546 178.948 303.018V285.974C178.948 285.446 179.158 284.94 179.531 284.567C179.904 284.193 180.41 283.984 180.938 283.983Z" fill="url(#paint8_linear_3_891)"/>
<path d="M145.148 167.756H162.194C162.72 167.758 163.225 167.968 163.596 168.342C163.968 168.715 164.176 169.22 164.176 169.747V186.798C164.176 187.324 163.967 187.828 163.595 188.2C163.224 188.572 162.719 188.781 162.194 188.781H145.148C144.622 188.781 144.117 188.573 143.744 188.201C143.371 187.829 143.16 187.325 143.158 186.798V169.747C143.16 169.219 143.37 168.714 143.743 168.341C144.116 167.968 144.621 167.758 145.148 167.756Z" fill="url(#paint9_linear_3_891)"/>
<path d="M145.148 196.813H162.194C162.72 196.815 163.225 197.025 163.596 197.398C163.968 197.772 164.176 198.277 164.176 198.804V215.855C164.176 216.381 163.967 216.885 163.595 217.257C163.224 217.629 162.719 217.838 162.194 217.838H145.148C144.622 217.838 144.117 217.63 143.744 217.258C143.371 216.886 143.16 216.382 143.158 215.855V198.804C143.16 198.276 143.37 197.771 143.743 197.398C144.116 197.025 144.621 196.814 145.148 196.813Z" fill="url(#paint10_linear_3_891)"/>
<path d="M145.148 225.87H162.194C162.72 225.872 163.225 226.082 163.596 226.455C163.968 226.828 164.176 227.334 164.176 227.86V244.904C164.177 245.165 164.126 245.424 164.027 245.665C163.927 245.906 163.782 246.126 163.598 246.311C163.413 246.496 163.195 246.642 162.954 246.743C162.713 246.843 162.455 246.894 162.194 246.895H145.148C144.621 246.895 144.115 246.685 143.742 246.311C143.368 245.938 143.159 245.432 143.158 244.904V227.86C143.16 227.333 143.37 226.827 143.743 226.454C144.116 226.081 144.621 225.871 145.148 225.87Z" fill="url(#paint11_linear_3_891)"/>
<path d="M145.148 254.926H162.194C162.72 254.928 163.224 255.139 163.596 255.512C163.968 255.885 164.176 256.391 164.176 256.917V273.961C164.177 274.222 164.126 274.48 164.027 274.722C163.928 274.963 163.782 275.183 163.598 275.367C163.413 275.552 163.195 275.699 162.954 275.799C162.713 275.9 162.455 275.951 162.194 275.952H145.148C144.621 275.951 144.115 275.742 143.742 275.368C143.368 274.995 143.159 274.489 143.158 273.961V256.917C143.16 256.39 143.37 255.884 143.743 255.511C144.116 255.138 144.621 254.928 145.148 254.926Z" fill="url(#paint12_linear_3_891)"/>
<path d="M145.148 283.983H162.194C162.455 283.984 162.713 284.035 162.954 284.136C163.195 284.236 163.413 284.383 163.598 284.567C163.782 284.752 163.928 284.972 164.027 285.213C164.126 285.454 164.177 285.713 164.176 285.974V303.018C164.177 303.279 164.126 303.537 164.027 303.779C163.928 304.02 163.782 304.239 163.598 304.424C163.413 304.609 163.195 304.756 162.954 304.856C162.713 304.956 162.455 305.008 162.194 305.008H145.148C144.621 305.008 144.115 304.798 143.742 304.425C143.368 304.052 143.159 303.545 143.158 303.018V285.974C143.159 285.446 143.368 284.94 143.742 284.567C144.115 284.193 144.621 283.984 145.148 283.983Z" fill="url(#paint13_linear_3_891)"/>
<path d="M109.359 167.756H126.404C126.931 167.758 127.435 167.968 127.807 168.342C128.178 168.715 128.387 169.22 128.387 169.747V186.798C128.387 187.324 128.178 187.828 127.806 188.2C127.434 188.572 126.93 188.781 126.404 188.781H109.359C108.833 188.781 108.328 188.573 107.955 188.201C107.581 187.829 107.371 187.325 107.369 186.798V169.747C107.371 169.219 107.581 168.714 107.954 168.341C108.327 167.968 108.832 167.758 109.359 167.756Z" fill="url(#paint14_linear_3_891)"/>
<path d="M109.359 196.813H126.404C126.931 196.815 127.435 197.025 127.807 197.398C128.178 197.772 128.387 198.277 128.387 198.804V215.855C128.387 216.381 128.178 216.885 127.806 217.257C127.434 217.629 126.93 217.838 126.404 217.838H109.359C108.833 217.838 108.328 217.63 107.955 217.258C107.581 216.886 107.371 216.382 107.369 215.855V198.804C107.371 198.276 107.581 197.771 107.954 197.398C108.327 197.025 108.832 196.814 109.359 196.813Z" fill="url(#paint15_linear_3_891)"/>
<path d="M109.359 225.87H126.404C126.931 225.872 127.435 226.082 127.807 226.455C128.178 226.828 128.387 227.334 128.387 227.86V244.904C128.387 245.165 128.337 245.424 128.238 245.665C128.138 245.906 127.992 246.126 127.808 246.311C127.624 246.496 127.405 246.642 127.164 246.743C126.924 246.843 126.665 246.894 126.404 246.895H109.359C108.831 246.895 108.325 246.685 107.952 246.311C107.579 245.938 107.369 245.432 107.369 244.904V227.86C107.371 227.333 107.581 226.827 107.954 226.454C108.327 226.081 108.832 225.871 109.359 225.87Z" fill="url(#paint16_linear_3_891)"/>
<path d="M109.359 283.983H126.404C126.665 283.984 126.924 284.035 127.164 284.136C127.405 284.236 127.624 284.383 127.808 284.567C127.992 284.752 128.138 284.972 128.238 285.213C128.337 285.454 128.387 285.713 128.387 285.974V303.018C128.387 303.279 128.337 303.537 128.238 303.779C128.138 304.02 127.992 304.239 127.808 304.424C127.624 304.609 127.405 304.756 127.164 304.856C126.924 304.956 126.665 305.008 126.404 305.008H109.359C108.831 305.008 108.325 304.798 107.952 304.425C107.579 304.052 107.369 303.545 107.369 303.018V285.974C107.369 285.446 107.579 284.94 107.952 284.567C108.325 284.193 108.831 283.984 109.359 283.983Z" fill="url(#paint17_linear_3_891)"/>
<path d="M73.5687 167.756H90.6139C91.1404 167.758 91.6447 167.968 92.0163 168.342C92.3879 168.715 92.5965 169.22 92.5963 169.747V186.798C92.5962 187.324 92.3873 187.828 92.0156 188.2C91.6438 188.572 91.1396 188.781 90.6139 188.781H73.5687C73.0422 188.781 72.5371 188.573 72.164 188.201C71.791 187.829 71.5805 187.325 71.5787 186.798V169.747C71.5803 169.219 71.7904 168.714 72.1633 168.341C72.5362 167.968 73.0414 167.758 73.5687 167.756Z" fill="url(#paint18_linear_3_891)"/>
<path d="M73.5687 225.87H90.6139C91.1404 225.872 91.6448 226.082 92.0164 226.455C92.3879 226.828 92.5965 227.334 92.5963 227.86V244.904C92.597 245.165 92.5463 245.424 92.447 245.665C92.3478 245.906 92.2019 246.126 92.0178 246.311C91.8336 246.496 91.6149 246.642 91.374 246.743C91.1331 246.843 90.8748 246.894 90.6139 246.895H73.5687C73.041 246.895 72.535 246.685 72.1619 246.311C71.7887 245.938 71.5789 245.432 71.5787 244.904V227.86C71.5802 227.333 71.7904 226.827 72.1632 226.454C72.5361 226.081 73.0414 225.871 73.5687 225.87Z" fill="url(#paint19_linear_3_891)"/>
<path d="M73.5687 254.926H90.6139C91.1404 254.928 91.6447 255.139 92.0163 255.512C92.3879 255.885 92.5965 256.391 92.5963 256.917V273.961C92.597 274.222 92.5463 274.48 92.447 274.722C92.3478 274.963 92.2019 275.183 92.0178 275.367C91.8336 275.552 91.6149 275.699 91.374 275.799C91.1331 275.9 90.8748 275.951 90.6139 275.952H73.5687C73.041 275.951 72.535 275.742 72.1618 275.368C71.7887 274.995 71.5789 274.489 71.5787 273.961V256.917C71.5802 256.39 71.7904 255.884 72.1633 255.511C72.5362 255.138 73.0414 254.928 73.5687 254.926Z" fill="url(#paint20_linear_3_891)"/>
<path d="M73.5687 283.983H90.6139C90.8748 283.984 91.1331 284.035 91.374 284.136C91.6149 284.236 91.8336 284.383 92.0178 284.567C92.2019 284.752 92.3478 284.972 92.447 285.213C92.5463 285.454 92.597 285.713 92.5963 285.974V303.018C92.597 303.279 92.5463 303.537 92.447 303.779C92.3478 304.02 92.2019 304.239 92.0178 304.424C91.8336 304.609 91.6149 304.756 91.374 304.856C91.1331 304.956 90.8748 305.008 90.6139 305.008H73.5687C73.041 305.008 72.535 304.798 72.1618 304.425C71.7887 304.052 71.5789 303.545 71.5787 303.018V285.974C71.5789 285.446 71.7887 284.94 72.1618 284.567C72.535 284.193 73.041 283.984 73.5687 283.983Z" fill="url(#paint21_linear_3_891)"/>
<path d="M37.7794 196.813H54.8247C55.3512 196.815 55.8555 197.025 56.2271 197.398C56.5987 197.772 56.8072 198.277 56.807 198.804V215.855C56.8069 216.381 56.598 216.885 56.2263 217.257C55.8545 217.629 55.3504 217.838 54.8247 217.838H37.7794C37.2529 217.838 36.7478 217.63 36.3748 217.258C36.0018 216.886 35.7913 216.382 35.7894 215.855V198.804C35.791 198.276 36.0011 197.771 36.374 197.398C36.7469 197.025 37.2521 196.814 37.7794 196.813Z" fill="url(#paint22_linear_3_891)"/>
<path d="M37.7794 225.87H54.8247C55.3512 225.872 55.8555 226.082 56.2271 226.455C56.5987 226.828 56.8072 227.334 56.807 227.86V244.904C56.8077 245.165 56.757 245.424 56.6577 245.665C56.5585 245.906 56.4126 246.126 56.2285 246.311C56.0443 246.496 55.8256 246.642 55.5847 246.743C55.3438 246.843 55.0855 246.894 54.8247 246.895H37.7794C37.2517 246.895 36.7457 246.685 36.3726 246.311C35.9994 245.938 35.7897 245.432 35.7894 244.904V227.86C35.791 227.333 36.0011 226.827 36.374 226.454C36.7468 226.081 37.2521 225.871 37.7794 225.87Z" fill="url(#paint23_linear_3_891)"/>
<path d="M37.7794 283.983H54.8247C55.0855 283.984 55.3438 284.035 55.5847 284.136C55.8256 284.236 56.0443 284.383 56.2285 284.567C56.4126 284.752 56.5585 284.972 56.6577 285.213C56.757 285.454 56.8077 285.713 56.807 285.974V303.018C56.8077 303.279 56.757 303.537 56.6577 303.779C56.5585 304.02 56.4126 304.239 56.2285 304.424C56.0443 304.609 55.8256 304.756 55.5847 304.856C55.3438 304.956 55.0856 305.008 54.8247 305.008H37.7794C37.2517 305.008 36.7457 304.798 36.3726 304.425C35.9994 304.052 35.7897 303.545 35.7894 303.018V285.974C35.7897 285.446 35.9994 284.94 36.3726 284.567C36.7457 284.193 37.2517 283.984 37.7794 283.983Z" fill="url(#paint24_linear_3_891)"/>
<path d="M1.99007 196.813H19.0353C19.5618 196.815 20.0661 197.025 20.4377 197.398C20.8093 197.772 21.0179 198.277 21.0177 198.804V215.855C21.0176 216.381 20.8087 216.885 20.4369 217.257C20.0652 217.629 19.561 217.838 19.0353 217.838H1.99007C1.46355 217.838 0.958395 217.63 0.585374 217.258C0.212353 216.886 0.00183534 216.382 0 215.855V198.804C0.00153666 198.276 0.21174 197.771 0.584607 197.398C0.957474 197.025 1.46276 196.814 1.99007 196.813Z" fill="url(#paint25_linear_3_891)"/>
<path d="M472.408 260.207C471.51 264.149 467.586 266.617 463.644 265.718C459.702 264.82 457.235 260.897 458.133 256.955C459.031 253.013 462.954 250.545 466.896 251.443C470.838 252.341 473.306 256.265 472.408 260.207Z" fill="#3FA046"/>
<path d="M432.465 306.83C431.168 312.52 425.505 316.081 419.816 314.785C414.126 313.489 410.565 307.826 411.861 302.136C413.157 296.447 418.82 292.885 424.51 294.182C430.199 295.478 433.761 301.141 432.465 306.83Z" fill="#3FA046"/>
<path d="M270.845 44.9351C270.845 54.0167 263.483 61.3789 254.401 61.3789C245.319 61.3789 237.957 54.0167 237.957 44.9351C237.957 35.8534 245.319 28.4912 254.401 28.4912C263.483 28.4912 270.845 35.8534 270.845 44.9351Z" fill="white"/>
<path d="M224.805 90.2375C224.805 94.7067 221.182 98.3298 216.713 98.3298C212.244 98.3298 208.621 94.7067 208.621 90.2375C208.621 85.7682 212.244 82.1452 216.713 82.1452C221.182 82.1452 224.805 85.7682 224.805 90.2375Z" fill="white"/>
<defs>
<linearGradient id="paint0_linear_3_891" x1="5.56883e-06" y1="171.652" x2="490.086" y2="171.652" gradientUnits="userSpaceOnUse">
<stop offset="0.197917" stop-color="#3FA046"/>
<stop offset="0.932292" stop-color="#3FA046" stop-opacity="0.48"/>
</linearGradient>
<linearGradient id="paint1_linear_3_891" x1="5.56883e-06" y1="171.652" x2="490.086" y2="171.652" gradientUnits="userSpaceOnUse">
<stop offset="0.197917" stop-color="#3FA046"/>
<stop offset="0.932292" stop-color="#3FA046" stop-opacity="0.48"/>
</linearGradient>
<linearGradient id="paint2_linear_3_891" x1="5.56883e-06" y1="171.652" x2="490.086" y2="171.652" gradientUnits="userSpaceOnUse">
<stop offset="0.197917" stop-color="#3FA046"/>
<stop offset="0.932292" stop-color="#3FA046" stop-opacity="0.48"/>
</linearGradient>
<linearGradient id="paint3_linear_3_891" x1="5.56883e-06" y1="171.652" x2="490.086" y2="171.652" gradientUnits="userSpaceOnUse">
<stop offset="0.197917" stop-color="#3FA046"/>
<stop offset="0.932292" stop-color="#3FA046" stop-opacity="0.48"/>
</linearGradient>
<linearGradient id="paint4_linear_3_891" x1="5.56883e-06" y1="171.652" x2="490.086" y2="171.652" gradientUnits="userSpaceOnUse">
<stop offset="0.197917" stop-color="#3FA046"/>
<stop offset="0.932292" stop-color="#3FA046" stop-opacity="0.48"/>
</linearGradient>
<linearGradient id="paint5_linear_3_891" x1="5.56883e-06" y1="171.652" x2="490.086" y2="171.652" gradientUnits="userSpaceOnUse">
<stop offset="0.197917" stop-color="#3FA046"/>
<stop offset="0.932292" stop-color="#3FA046" stop-opacity="0.48"/>
</linearGradient>
<linearGradient id="paint6_linear_3_891" x1="5.56883e-06" y1="171.652" x2="490.086" y2="171.652" gradientUnits="userSpaceOnUse">
<stop offset="0.197917" stop-color="#3FA046"/>
<stop offset="0.932292" stop-color="#3FA046" stop-opacity="0.48"/>
</linearGradient>
<linearGradient id="paint7_linear_3_891" x1="5.56883e-06" y1="171.652" x2="490.086" y2="171.652" gradientUnits="userSpaceOnUse">
<stop offset="0.197917" stop-color="#3FA046"/>
<stop offset="0.932292" stop-color="#3FA046" stop-opacity="0.48"/>
</linearGradient>
<linearGradient id="paint8_linear_3_891" x1="5.56883e-06" y1="171.652" x2="490.086" y2="171.652" gradientUnits="userSpaceOnUse">
<stop offset="0.197917" stop-color="#3FA046"/>
<stop offset="0.932292" stop-color="#3FA046" stop-opacity="0.48"/>
</linearGradient>
<linearGradient id="paint9_linear_3_891" x1="5.56883e-06" y1="171.652" x2="490.086" y2="171.652" gradientUnits="userSpaceOnUse">
<stop offset="0.197917" stop-color="#3FA046"/>
<stop offset="0.932292" stop-color="#3FA046" stop-opacity="0.48"/>
</linearGradient>
<linearGradient id="paint10_linear_3_891" x1="5.56883e-06" y1="171.652" x2="490.086" y2="171.652" gradientUnits="userSpaceOnUse">
<stop offset="0.197917" stop-color="#3FA046"/>
<stop offset="0.932292" stop-color="#3FA046" stop-opacity="0.48"/>
</linearGradient>
<linearGradient id="paint11_linear_3_891" x1="5.56883e-06" y1="171.652" x2="490.086" y2="171.652" gradientUnits="userSpaceOnUse">
<stop offset="0.197917" stop-color="#3FA046"/>
<stop offset="0.932292" stop-color="#3FA046" stop-opacity="0.48"/>
</linearGradient>
<linearGradient id="paint12_linear_3_891" x1="5.56883e-06" y1="171.652" x2="490.086" y2="171.652" gradientUnits="userSpaceOnUse">
<stop offset="0.197917" stop-color="#3FA046"/>
<stop offset="0.932292" stop-color="#3FA046" stop-opacity="0.48"/>
</linearGradient>
<linearGradient id="paint13_linear_3_891" x1="5.56883e-06" y1="171.652" x2="490.086" y2="171.652" gradientUnits="userSpaceOnUse">
<stop offset="0.197917" stop-color="#3FA046"/>
<stop offset="0.932292" stop-color="#3FA046" stop-opacity="0.48"/>
</linearGradient>
<linearGradient id="paint14_linear_3_891" x1="5.56883e-06" y1="171.652" x2="490.086" y2="171.652" gradientUnits="userSpaceOnUse">
<stop offset="0.197917" stop-color="#3FA046"/>
<stop offset="0.932292" stop-color="#3FA046" stop-opacity="0.48"/>
</linearGradient>
<linearGradient id="paint15_linear_3_891" x1="5.56883e-06" y1="171.652" x2="490.086" y2="171.652" gradientUnits="userSpaceOnUse">
<stop offset="0.197917" stop-color="#3FA046"/>
<stop offset="0.932292" stop-color="#3FA046" stop-opacity="0.48"/>
</linearGradient>
<linearGradient id="paint16_linear_3_891" x1="5.56883e-06" y1="171.652" x2="490.086" y2="171.652" gradientUnits="userSpaceOnUse">
<stop offset="0.197917" stop-color="#3FA046"/>
<stop offset="0.932292" stop-color="#3FA046" stop-opacity="0.48"/>
</linearGradient>
<linearGradient id="paint17_linear_3_891" x1="5.56883e-06" y1="171.652" x2="490.086" y2="171.652" gradientUnits="userSpaceOnUse">
<stop offset="0.197917" stop-color="#3FA046"/>
<stop offset="0.932292" stop-color="#3FA046" stop-opacity="0.48"/>
</linearGradient>
<linearGradient id="paint18_linear_3_891" x1="5.56883e-06" y1="171.652" x2="490.086" y2="171.652" gradientUnits="userSpaceOnUse">
<stop offset="0.197917" stop-color="#3FA046"/>
<stop offset="0.932292" stop-color="#3FA046" stop-opacity="0.48"/>
</linearGradient>
<linearGradient id="paint19_linear_3_891" x1="5.56883e-06" y1="171.652" x2="490.086" y2="171.652" gradientUnits="userSpaceOnUse">
<stop offset="0.197917" stop-color="#3FA046"/>
<stop offset="0.932292" stop-color="#3FA046" stop-opacity="0.48"/>
</linearGradient>
<linearGradient id="paint20_linear_3_891" x1="5.56883e-06" y1="171.652" x2="490.086" y2="171.652" gradientUnits="userSpaceOnUse">
<stop offset="0.197917" stop-color="#3FA046"/>
<stop offset="0.932292" stop-color="#3FA046" stop-opacity="0.48"/>
</linearGradient>
<linearGradient id="paint21_linear_3_891" x1="5.56883e-06" y1="171.652" x2="490.086" y2="171.652" gradientUnits="userSpaceOnUse">
<stop offset="0.197917" stop-color="#3FA046"/>
<stop offset="0.932292" stop-color="#3FA046" stop-opacity="0.48"/>
</linearGradient>
<linearGradient id="paint22_linear_3_891" x1="5.56883e-06" y1="171.652" x2="490.086" y2="171.652" gradientUnits="userSpaceOnUse">
<stop offset="0.197917" stop-color="#3FA046"/>
<stop offset="0.932292" stop-color="#3FA046" stop-opacity="0.48"/>
</linearGradient>
<linearGradient id="paint23_linear_3_891" x1="5.56883e-06" y1="171.652" x2="490.086" y2="171.652" gradientUnits="userSpaceOnUse">
<stop offset="0.197917" stop-color="#3FA046"/>
<stop offset="0.932292" stop-color="#3FA046" stop-opacity="0.48"/>
</linearGradient>
<linearGradient id="paint24_linear_3_891" x1="5.56883e-06" y1="171.652" x2="490.086" y2="171.652" gradientUnits="userSpaceOnUse">
<stop offset="0.197917" stop-color="#3FA046"/>
<stop offset="0.932292" stop-color="#3FA046" stop-opacity="0.48"/>
</linearGradient>
<linearGradient id="paint25_linear_3_891" x1="5.56883e-06" y1="171.652" x2="490.086" y2="171.652" gradientUnits="userSpaceOnUse">
<stop offset="0.197917" stop-color="#3FA046"/>
<stop offset="0.932292" stop-color="#3FA046" stop-opacity="0.48"/>
</linearGradient>
<clipPath id="clip0_3_891">
<rect width="255" height="255" fill="white" transform="translate(210 59)"/>
</clipPath>
</defs>
</svg>
