<svg width="505" height="292" viewBox="0 0 505 292" fill="none" xmlns="http://www.w3.org/2000/svg">
<circle cx="146" cy="146" r="145" stroke="#3FA046" stroke-width="2"/>
<rect x="96" y="96" width="99" height="100" rx="49.5" fill="#3FA046"/>
<path d="M129.808 166L125.5 161.692L155.038 132.154H128.577V126H165.5V162.923H159.346V136.462L129.808 166Z" fill="white"/>
<path d="M264.356 146.587L265.747 148.116C264.429 149.119 263.744 150.311 263.69 151.691C263.663 152.402 263.845 153.022 264.237 153.55C264.643 154.079 265.173 154.356 265.826 154.381C266.507 154.407 267.064 154.165 267.496 153.655C267.927 153.158 268.354 152.42 268.775 151.439C269.211 150.472 269.571 149.788 269.857 149.386C270.743 148.152 271.861 147.562 273.209 147.614C274.302 147.656 275.216 148.119 275.949 149.002C276.697 149.9 277.045 150.996 276.995 152.291C276.938 153.771 276.39 155.089 275.35 156.245L273.844 154.926C274.557 154.142 274.932 153.266 274.969 152.298C274.995 151.63 274.833 151.039 274.483 150.527C274.147 150.029 273.673 149.769 273.063 149.745C272.495 149.723 272.01 149.968 271.606 150.48C271.217 150.992 270.805 151.717 270.371 152.655C269.95 153.607 269.59 154.291 269.289 154.707C268.388 155.969 267.227 156.572 265.808 156.517C264.516 156.467 263.489 155.986 262.728 155.073C261.968 154.16 261.613 153.042 261.664 151.719C261.745 149.614 262.642 147.903 264.356 146.587Z" fill="white"/>
<path d="M261.019 157.388L270.984 158.393L270.781 160.411L260.816 159.407L261.019 157.388ZM273.585 158.719C273.865 158.49 274.189 158.394 274.557 158.431C274.924 158.468 275.222 158.627 275.451 158.907C275.694 159.189 275.797 159.515 275.76 159.883C275.723 160.251 275.558 160.549 275.263 160.777C274.982 161.021 274.657 161.124 274.29 161.087C273.922 161.05 273.625 160.884 273.398 160.589C273.169 160.309 273.073 159.984 273.11 159.616C273.147 159.247 273.305 158.949 273.585 158.719Z" fill="white"/>
<path d="M260.679 169.437C260.106 168.487 259.919 167.429 260.118 166.265C260.276 165.338 260.634 164.548 261.193 163.892C261.772 163.197 262.494 162.685 263.357 162.356C264.232 162.044 265.152 161.971 266.118 162.136C267.085 162.302 267.927 162.685 268.646 163.284C269.366 163.884 269.883 164.609 270.2 165.457C270.498 166.245 270.57 167.088 270.417 167.986C270.213 169.179 269.666 170.147 268.776 170.89L269.679 171.045L269.348 172.981L259.896 171.362C258.51 171.124 257.466 170.743 256.762 170.218C256.062 169.679 255.565 169.002 255.272 168.186C254.962 167.382 254.89 166.496 255.055 165.527C255.254 164.362 255.656 163.399 256.262 162.636C256.865 161.887 257.5 161.375 258.167 161.099L259.281 162.806C257.954 163.489 257.18 164.476 256.96 165.767C256.771 166.876 257.012 167.74 257.685 168.361C258.182 168.822 258.998 169.15 260.133 169.344L260.679 169.437ZM262.905 169.819L266.602 170.452C267.662 169.897 268.292 169.037 268.491 167.873C268.649 166.946 268.457 166.126 267.916 165.413C267.386 164.715 266.673 164.29 265.777 164.136C264.881 163.983 264.058 164.159 263.309 164.667C262.571 165.19 262.122 165.922 261.961 166.862C261.772 167.971 262.087 168.956 262.905 169.819Z" fill="white"/>
<path d="M268.405 177.792L267.479 177.54C268.021 178.529 268.137 179.6 267.824 180.754C267.43 182.211 266.544 183.231 265.164 183.815C264.198 184.231 262.968 184.237 261.473 183.831L256.743 182.546L257.272 180.588L262.105 181.9C263.12 182.176 263.919 182.187 264.503 181.932C265.268 181.609 265.763 181.028 265.99 180.19C266.287 179.09 266.079 178.038 265.365 177.033L258.721 175.229L259.251 173.27L268.917 175.895L268.405 177.792Z" fill="white"/>
<path d="M252.038 192.463C252.618 191.102 253.6 190.23 254.984 189.847C255.917 189.58 257.088 189.749 258.499 190.353L263.202 192.368L262.406 194.233L257.41 192.093C256.6 191.746 255.91 191.66 255.341 191.835C254.616 192.05 254.094 192.531 253.776 193.277C253.357 194.259 253.426 195.311 253.983 196.432L260.312 199.143L259.517 201.008L250.307 197.064L251.078 195.257L251.92 195.618C251.771 195.244 251.688 194.768 251.673 194.188C251.67 193.614 251.792 193.039 252.038 192.463Z" fill="white"/>
<path d="M249.357 201.044L244.103 198.165L245.074 196.385L258.349 203.659L257.408 205.383L256.604 204.943C256.842 206.079 256.672 207.178 256.092 208.24C255.656 209.04 255.077 209.655 254.356 210.088C253.582 210.556 252.727 210.802 251.792 210.825C250.856 210.847 249.959 210.623 249.099 210.152C248.239 209.681 247.566 209.044 247.08 208.243C246.6 207.46 246.348 206.617 246.325 205.711C246.293 204.85 246.502 204.007 246.951 203.182C247.517 202.146 248.319 201.433 249.357 201.044ZM254.629 203.933L251.339 202.13C250.163 202.297 249.305 202.874 248.767 203.861C248.31 204.698 248.212 205.545 248.473 206.402C248.74 207.278 249.272 207.935 250.07 208.372C250.868 208.809 251.694 208.913 252.548 208.683C253.407 208.473 254.062 207.955 254.512 207.131C255.078 206.094 255.117 205.028 254.629 203.933Z" fill="white"/>
<path d="M234.572 225.237L234.625 227.306C232.973 227.199 231.676 227.649 230.734 228.657C230.248 229.176 229.981 229.764 229.932 230.421C229.894 231.087 230.113 231.644 230.59 232.091C231.087 232.558 231.666 232.741 232.326 232.639C232.977 232.547 233.782 232.269 234.741 231.804C235.702 231.36 236.421 231.079 236.9 230.963C238.376 230.612 239.607 230.899 240.592 231.824C241.39 232.573 241.778 233.522 241.755 234.671C241.733 235.84 241.28 236.898 240.396 237.843C239.386 238.924 238.11 239.56 236.569 239.752L236.293 237.766C237.344 237.641 238.2 237.225 238.86 236.519C239.317 236.03 239.58 235.478 239.651 234.861C239.722 234.265 239.534 233.757 239.088 233.339C238.674 232.949 238.147 232.815 237.507 232.937C236.878 233.069 236.093 233.346 235.152 233.77C234.212 234.214 233.492 234.494 232.994 234.611C231.488 234.973 230.216 234.667 229.18 233.694C228.236 232.808 227.775 231.771 227.796 230.581C227.818 229.392 228.28 228.314 229.183 227.348C230.621 225.81 232.417 225.107 234.572 225.237Z" fill="white"/>
<path d="M225.923 231.54L232.796 238.84L231.324 240.233L224.451 232.932L225.923 231.54ZM234.549 240.795C234.91 240.805 235.218 240.945 235.471 241.214C235.725 241.484 235.846 241.799 235.836 242.162C235.835 242.534 235.7 242.848 235.432 243.102C235.163 243.356 234.843 243.472 234.472 243.451C234.1 243.451 233.787 243.316 233.534 243.046C233.28 242.777 233.164 242.456 233.185 242.084C233.195 241.722 233.335 241.414 233.604 241.16C233.872 240.906 234.187 240.784 234.549 240.795Z" fill="white"/>
<path d="M216.735 239.962C216.919 238.867 217.465 237.943 218.374 237.19C219.097 236.592 219.883 236.227 220.733 236.095C221.625 235.947 222.505 236.031 223.373 236.346C224.24 236.681 224.985 237.227 225.61 237.984C226.234 238.741 226.624 239.582 226.779 240.507C226.933 241.432 226.855 242.319 226.542 243.169C226.255 243.961 225.761 244.647 225.061 245.228C224.13 245.999 223.085 246.375 221.927 246.356L222.511 247.064L221 248.315L214.889 240.909C213.993 239.823 213.449 238.851 213.258 237.994C213.077 237.127 213.142 236.289 213.45 235.479C213.739 234.667 214.261 233.948 215.017 233.322C215.925 232.569 216.858 232.102 217.813 231.919C218.758 231.746 219.573 231.773 220.258 232L219.991 234.022C218.54 233.672 217.312 233.914 216.304 234.749C215.439 235.466 215.06 236.279 215.165 237.189C215.243 237.864 215.648 238.645 216.382 239.534L216.735 239.962ZM218.174 241.707L220.564 244.603C221.729 244.876 222.766 244.636 223.674 243.883C224.397 243.284 224.786 242.537 224.84 241.642C224.892 240.768 224.629 239.979 224.05 239.277C223.47 238.575 222.731 238.171 221.833 238.065C220.933 237.98 220.116 238.241 219.383 238.849C218.518 239.565 218.115 240.518 218.174 241.707Z" fill="white"/>
<path d="M217.149 250.814L216.61 250.019C216.379 251.123 215.769 252.01 214.782 252.681C213.535 253.528 212.199 253.723 210.773 253.264C209.77 252.948 208.833 252.148 207.964 250.864L205.213 246.799L206.888 245.66L209.699 249.814C210.289 250.686 210.889 251.216 211.497 251.404C212.287 251.659 213.041 251.542 213.758 251.055C214.698 250.415 215.225 249.481 215.337 248.252L211.473 242.544L213.149 241.405L218.771 249.712L217.149 250.814Z" fill="white"/>
<path d="M195.479 251.491C196.805 250.839 198.118 250.82 199.415 251.435C200.295 251.843 201.073 252.737 201.749 254.118L204.001 258.719L202.183 259.613L199.791 254.723C199.403 253.931 198.936 253.415 198.392 253.175C197.702 252.864 196.993 252.887 196.266 253.245C195.309 253.715 194.677 254.557 194.369 255.77L197.4 261.964L195.583 262.857L191.172 253.845L192.933 252.98L193.336 253.805C193.466 253.424 193.714 253.008 194.079 252.559C194.451 252.123 194.918 251.766 195.479 251.491Z" fill="white"/>
<path d="M187.498 256.4L185.394 250.781L187.29 250.069L192.605 264.265L190.77 264.955L190.448 264.096C189.888 265.112 189.042 265.833 187.912 266.258C187.061 266.578 186.221 266.666 185.393 266.521C184.502 266.369 183.694 265.996 182.971 265.402C182.247 264.807 181.714 264.049 181.369 263.13C181.025 262.21 180.93 261.288 181.084 260.363C181.23 259.456 181.589 258.652 182.161 257.951C182.698 257.277 183.405 256.776 184.283 256.446C185.387 256.03 186.459 256.015 187.498 256.4ZM189.609 262.039L188.292 258.519C187.292 257.876 186.267 257.752 185.216 258.148C184.325 258.483 183.699 259.06 183.339 259.88C182.97 260.718 182.945 261.564 183.265 262.417C183.584 263.27 184.142 263.889 184.938 264.274C185.727 264.677 186.56 264.714 187.438 264.383C188.541 263.968 189.265 263.187 189.609 262.039Z" fill="white"/>
<path d="M161.286 265.371L159.974 266.968C158.796 265.803 157.521 265.292 156.151 265.436C155.444 265.51 154.858 265.779 154.392 266.243C153.928 266.721 153.73 267.285 153.798 267.937C153.869 268.616 154.187 269.134 154.752 269.49C155.304 269.848 156.094 270.166 157.123 270.444C158.139 270.739 158.866 270.999 159.304 271.225C160.648 271.929 161.391 272.954 161.531 274.299C161.645 275.389 161.318 276.361 160.55 277.215C159.769 278.084 158.736 278.585 157.45 278.72C155.981 278.874 154.601 278.517 153.311 277.65L154.399 275.969C155.276 276.564 156.194 276.812 157.155 276.711C157.819 276.642 158.379 276.397 158.835 275.977C159.279 275.573 159.469 275.066 159.405 274.457C159.346 273.891 159.035 273.444 158.473 273.116C157.911 272.803 157.137 272.497 156.149 272.2C155.148 271.918 154.421 271.658 153.968 271.419C152.594 270.704 151.833 269.638 151.685 268.222C151.551 266.934 151.88 265.847 152.673 264.962C153.467 264.078 154.52 263.567 155.834 263.429C157.926 263.21 159.743 263.857 161.286 265.371Z" fill="white"/>
<path d="M150.114 264.019L150.578 274.045L148.556 274.139L148.092 264.112L150.114 264.019ZM150.635 276.672C150.902 276.916 151.045 277.223 151.062 277.593C151.079 277.963 150.966 278.282 150.722 278.55C150.479 278.832 150.173 278.981 149.804 278.998C149.435 279.016 149.117 278.895 148.849 278.637C148.567 278.393 148.418 278.086 148.401 277.717C148.384 277.347 148.504 277.028 148.762 276.759C149.006 276.491 149.312 276.349 149.681 276.332C150.05 276.315 150.368 276.428 150.635 276.672Z" fill="white"/>
<path d="M138.171 264.554C139.029 263.85 140.047 263.515 141.226 263.547C142.163 263.572 142.995 263.815 143.721 264.277C144.49 264.753 145.098 265.396 145.545 266.206C145.978 267.03 146.181 267.932 146.154 268.914C146.128 269.897 145.869 270.787 145.379 271.585C144.888 272.384 144.246 273 143.453 273.435C142.717 273.842 141.895 274.033 140.986 274.009C139.779 273.976 138.745 273.571 137.885 272.792L137.861 273.71L135.901 273.657L136.16 264.051C136.198 262.642 136.426 261.551 136.845 260.779C137.278 260.007 137.876 259.418 138.641 259.012C139.391 258.59 140.256 258.393 141.236 258.42C142.415 258.452 143.424 258.714 144.263 259.207C145.088 259.699 145.684 260.256 146.051 260.879L144.523 262.226C143.66 261.006 142.576 260.379 141.269 260.343C140.147 260.313 139.328 260.675 138.81 261.43C138.425 261.99 138.217 262.846 138.186 263.999L138.171 264.554ZM138.11 266.817L138.009 270.574C138.708 271.547 139.646 272.05 140.825 272.082C141.762 272.107 142.545 271.801 143.173 271.162C143.787 270.538 144.106 269.771 144.131 268.86C144.155 267.949 143.864 267.158 143.257 266.486C142.635 265.828 141.848 265.486 140.897 265.461C139.775 265.43 138.846 265.882 138.11 266.817Z" fill="white"/>
<path d="M131.169 273.532L131.287 272.578C130.387 273.256 129.345 273.521 128.161 273.374C126.667 273.188 125.534 272.452 124.763 271.165C124.215 270.265 124.037 269.045 124.228 267.505L124.83 262.631L126.839 262.88L126.223 267.861C126.094 268.906 126.196 269.701 126.53 270.244C126.957 270.957 127.6 271.367 128.46 271.474C129.588 271.614 130.598 271.259 131.491 270.409L132.338 263.563L134.347 263.813L133.115 273.774L131.169 273.532Z" fill="white"/>
<path d="M114.019 259.755C115.446 260.137 116.448 260.987 117.023 262.305C117.419 263.192 117.419 264.378 117.023 265.864L115.704 270.816L113.749 270.293L115.15 265.031C115.377 264.178 115.364 263.482 115.111 262.943C114.794 262.254 114.245 261.805 113.463 261.596C112.433 261.32 111.405 261.539 110.377 262.251L108.601 268.916L106.646 268.393L109.229 258.695L111.123 259.202L110.887 260.089C111.234 259.887 111.693 259.737 112.263 259.639C112.83 259.555 113.415 259.594 114.019 259.755Z" fill="white"/>
<path d="M104.733 257.577L106.816 251.95L108.714 252.656L103.452 266.872L101.613 266.189L101.932 265.328C100.845 265.728 99.7346 265.718 98.6025 265.297C97.7501 264.98 97.0583 264.495 96.5273 263.842C95.9528 263.143 95.5867 262.331 95.4288 261.407C95.2709 260.483 95.3624 259.56 95.7033 258.639C96.0443 257.718 96.5753 256.959 97.2965 256.361C97.9994 255.772 98.7962 255.4 99.6869 255.245C100.533 255.089 101.395 255.174 102.274 255.501C103.38 255.912 104.199 256.604 104.733 257.577ZM102.643 263.223L103.948 259.699C103.613 258.557 102.919 257.791 101.867 257.399C100.974 257.068 100.124 257.093 99.3157 257.476C98.489 257.867 97.9176 258.49 97.6013 259.344C97.2851 260.199 97.3022 261.033 97.6525 261.846C97.9847 262.668 98.5903 263.243 99.4693 263.569C100.575 263.98 101.633 263.865 102.643 263.223Z" fill="white"/>
<path d="M83.6897 249.51L81.6697 249.937C81.4752 248.289 80.7979 247.093 79.638 246.347C79.0401 245.963 78.4147 245.806 77.7618 245.877C77.1012 245.96 76.5945 246.277 76.2416 246.828C75.8735 247.403 75.7994 248.007 76.0193 248.639C76.2274 249.263 76.6464 250.006 77.2763 250.868C77.8866 251.734 78.2923 252.392 78.4934 252.842C79.105 254.234 79.0465 255.498 78.3178 256.637C77.7272 257.56 76.8661 258.114 75.7344 258.3C74.5831 258.49 73.4633 258.236 72.3752 257.536C71.1315 256.737 70.276 255.595 69.8085 254.11L71.7066 253.478C72.0201 254.492 72.5833 255.26 73.3965 255.782C73.9585 256.144 74.5485 256.303 75.1664 256.26C75.7648 256.222 76.2288 255.945 76.5587 255.43C76.8655 254.951 76.9012 254.407 76.6659 253.799C76.4229 253.203 76.0082 252.48 75.4218 251.629C74.8158 250.783 74.4101 250.125 74.2048 249.655C73.5768 248.236 73.6464 246.928 74.4134 245.729C75.1115 244.639 76.0459 243.996 77.2169 243.802C78.3878 243.607 79.5293 243.867 80.6414 244.582C82.4111 245.72 83.4273 247.362 83.6897 249.51Z" fill="white"/>
<path d="M76.026 241.554L70.1342 249.67L68.4971 248.477L74.3889 240.36L76.026 241.554ZM68.5406 251.757C68.5969 252.115 68.5165 252.444 68.2992 252.743C68.0819 253.042 67.7946 253.22 67.4374 253.277C67.0718 253.345 66.7397 253.27 66.441 253.052C66.1423 252.834 65.9689 252.541 65.9209 252.171C65.8531 251.805 65.9278 251.472 66.1451 251.173C66.3624 250.873 66.6554 250.7 67.0241 250.651C67.3813 250.595 67.7093 250.676 68.008 250.893C68.3067 251.111 68.4842 251.399 68.5406 251.757Z" fill="white"/>
<path d="M65.994 235.208C67.1018 235.192 68.1073 235.564 69.0106 236.323C69.7288 236.927 70.2294 237.636 70.5122 238.45C70.8185 239.302 70.8955 240.185 70.7432 241.098C70.5709 242.012 70.1697 242.846 69.5396 243.598C68.9095 244.351 68.1546 244.887 67.2749 245.206C66.3953 245.526 65.5101 245.609 64.6193 245.454C63.7903 245.315 63.0276 244.952 62.3311 244.367C61.406 243.589 60.8482 242.627 60.6574 241.482L60.0684 242.185L58.5666 240.922L64.7309 233.561C65.6349 232.481 66.4905 231.769 67.2975 231.426C68.1153 231.091 68.9496 231.003 69.8004 231.161C70.6494 231.299 71.4493 231.683 72.2002 232.315C73.1035 233.074 73.7309 233.909 74.0825 234.818C74.4232 235.717 74.5442 236.525 74.4453 237.241L72.4123 237.344C72.4938 235.851 72.0339 234.684 71.0327 233.842C70.173 233.119 69.3061 232.892 68.432 233.16C67.7838 233.359 67.0898 233.9 66.3501 234.783L65.994 235.208ZM64.5419 236.942L62.131 239.822C62.0742 241.019 62.4974 241.997 63.4007 242.757C64.1189 243.361 64.9221 243.609 65.8101 243.501C66.6781 243.394 67.4044 242.992 67.9888 242.294C68.5733 241.596 68.8362 240.795 68.7774 239.891C68.6986 238.988 68.2947 238.23 67.5655 237.617C66.7058 236.894 65.6979 236.669 64.5419 236.942Z" fill="white"/>
<path d="M55.1021 236.984L55.7851 236.309C54.6602 236.281 53.6789 235.841 52.8412 234.989C51.7841 233.914 51.3514 232.632 51.543 231.144C51.6712 230.098 52.2867 229.03 53.3896 227.941L56.8804 224.493L58.3015 225.938L54.7348 229.461C53.986 230.2 53.5742 230.887 53.4992 231.521C53.3928 232.345 53.6437 233.067 54.2521 233.685C55.0498 234.497 56.062 234.846 57.2884 234.734L62.1907 229.893L63.6118 231.337L56.4783 238.383L55.1021 236.984Z" fill="white"/>
<path d="M50.2304 215.659C51.1125 216.847 51.3707 218.136 51.0048 219.527C50.7655 220.469 50.0305 221.399 48.7997 222.317L44.6971 225.377L43.4883 223.749L47.8474 220.498C48.5539 219.971 48.975 219.417 49.1107 218.837C49.2895 218.1 49.1372 217.406 48.6537 216.755C48.0175 215.899 47.0759 215.43 45.8288 215.348L40.3073 219.467L39.0986 217.839L47.1329 211.846L48.3035 213.422L47.5685 213.971C47.966 214.029 48.4186 214.197 48.9262 214.475C49.4224 214.762 49.8571 215.157 50.2304 215.659Z" fill="white"/>
<path d="M44.0257 209.354L49.1474 206.245L50.1963 207.98L37.2554 215.835L36.2397 214.155L37.0234 213.679C35.9231 213.315 35.0601 212.616 34.4344 211.581C33.9633 210.801 33.7224 209.99 33.7115 209.148C33.6955 208.242 33.9124 207.378 34.3621 206.556C34.8118 205.734 35.4558 205.068 36.2943 204.559C37.1327 204.05 38.0196 203.786 38.9552 203.768C39.8711 203.745 40.726 203.95 41.5196 204.383C42.2791 204.788 42.9017 205.392 43.3875 206.196C43.9984 207.207 44.2112 208.259 44.0257 209.354ZM38.8859 212.474L42.0937 210.527C42.5398 209.424 42.4721 208.391 41.8906 207.429C41.3975 206.613 40.7156 206.103 39.8449 205.899C38.9547 205.691 38.1208 205.822 37.3431 206.294C36.5655 206.766 36.0615 207.43 35.8312 208.286C35.5814 209.137 35.6994 209.964 36.1852 210.767C36.7961 211.778 37.6964 212.347 38.8859 212.474Z" fill="white"/>
<path d="M30.485 184.755L28.6749 183.76C29.5978 182.383 29.8615 181.033 29.4659 179.71C29.262 179.028 28.8893 178.501 28.3478 178.129C27.7928 177.76 27.2022 177.67 26.5763 177.858C25.9231 178.054 25.4746 178.464 25.2309 179.087C24.983 179.696 24.8182 180.534 24.7362 181.599C24.6366 182.654 24.5166 183.419 24.3764 183.892C23.9365 185.347 23.0701 186.268 21.7773 186.656C20.7295 186.971 19.7158 186.83 18.7363 186.232C17.739 185.625 17.0549 184.701 16.6837 183.46C16.2596 182.041 16.3525 180.616 16.9625 179.184L18.8135 179.944C18.3928 180.918 18.3211 181.868 18.5984 182.795C18.7901 183.436 19.1342 183.942 19.6308 184.314C20.1097 184.675 20.6417 184.768 21.2268 184.592C21.7711 184.429 22.1516 184.04 22.3681 183.425C22.571 182.814 22.7264 181.994 22.8341 180.966C22.9242 179.928 23.0442 179.164 23.194 178.673C23.6394 177.187 24.5425 176.239 25.9033 175.831C27.1416 175.459 28.2683 175.581 29.2832 176.198C30.2981 176.815 30.9952 177.757 31.3745 179.026C31.978 181.044 31.6816 182.954 30.485 184.755Z" fill="white"/>
<path d="M29.7958 173.234L20.0366 175.489L19.5817 173.512L29.3409 171.257L29.7958 173.234ZM17.4683 176.017C17.2766 176.324 17.0007 176.52 16.6408 176.603C16.2809 176.686 15.9477 176.631 15.641 176.439C15.3205 176.25 15.1188 175.975 15.0358 175.615C14.9528 175.254 15.0141 174.918 15.2196 174.608C15.4082 174.287 15.6824 174.085 16.0423 174.001C16.4022 173.918 16.7371 173.98 17.0469 174.186C17.3535 174.378 17.5483 174.654 17.6313 175.015C17.7143 175.376 17.66 175.71 17.4683 176.017Z" fill="white"/>
<path d="M27.1512 161.401C27.9984 162.116 28.5147 163.058 28.7001 164.225C28.8475 165.153 28.7618 166.017 28.4431 166.817C28.117 167.662 27.5979 168.379 26.886 168.969C26.1578 169.546 25.3097 169.912 24.3417 170.067C23.3736 170.221 22.4529 170.13 21.5796 169.794C20.7062 169.457 19.9836 168.938 19.4118 168.236C18.877 167.586 18.5382 166.811 18.3952 165.912C18.2054 164.716 18.413 163.624 19.0181 162.633L18.1132 162.778L17.805 160.837L27.2748 159.327C28.6637 159.105 29.7753 159.13 30.6094 159.4C31.4458 159.685 32.1336 160.166 32.6729 160.844C33.2239 161.506 33.5765 162.322 33.7306 163.292C33.916 164.459 33.8442 165.502 33.5152 166.419C33.184 167.323 32.7469 168.012 32.204 168.488L30.6016 167.23C31.6393 166.156 32.0555 164.972 31.85 163.679C31.6736 162.568 31.1675 161.827 30.3317 161.456C29.7125 161.18 28.8347 161.132 27.6983 161.314L27.1512 161.401ZM24.9205 161.757L21.2167 162.347C20.3907 163.215 20.0703 164.232 20.2557 165.399C20.4031 166.327 20.8475 167.041 21.5889 167.543C22.314 168.033 23.1255 168.206 24.0234 168.063C24.9213 167.92 25.6438 167.487 26.1908 166.766C26.7217 166.032 26.9122 165.195 26.7626 164.252C26.5862 163.142 25.9721 162.31 24.9205 161.757Z" fill="white"/>
<path d="M17.419 156.887L18.3759 156.824C17.5431 156.066 17.0877 155.09 17.0095 153.896C16.9108 152.391 17.4194 151.137 18.5355 150.136C19.3148 149.429 20.477 149.024 22.0221 148.922L26.9127 148.6L27.0453 150.625L22.0485 150.954C20.9995 151.023 20.24 151.273 19.7699 151.703C19.1514 152.257 18.8705 152.968 18.9273 153.834C19.0018 154.971 19.5395 155.899 20.5405 156.618L27.4085 156.166L27.5412 158.19L17.5475 158.848L17.419 156.887Z" fill="white"/>
<path d="M27.3403 136.687C27.2321 138.164 26.5856 139.308 25.4008 140.12C24.6052 140.676 23.4423 140.897 21.9122 140.785L16.8118 140.409L16.96 138.386L22.3792 138.785C23.2576 138.849 23.9375 138.707 24.419 138.357C25.0353 137.916 25.373 137.292 25.4323 136.482C25.5104 135.417 25.1044 134.445 24.2145 133.566L17.3502 133.061L17.4984 131.038L27.4867 131.773L27.3432 133.732L26.4293 133.665C26.6919 133.97 26.9243 134.394 27.1267 134.937C27.3149 135.479 27.3861 136.062 27.3403 136.687Z" fill="white"/>
<path d="M27.2569 127.665L33.1591 128.677L32.8179 130.677L17.9049 128.121L18.2354 126.185L19.1385 126.339C18.5449 125.342 18.3498 124.247 18.5533 123.054C18.7066 122.156 19.0543 121.385 19.5965 120.741C20.1763 120.046 20.9047 119.536 21.7819 119.209C22.6591 118.883 23.5808 118.802 24.547 118.968C25.5132 119.134 26.3558 119.516 27.075 120.116C27.7825 120.7 28.2945 121.416 28.6108 122.264C28.9204 123.068 28.9962 123.934 28.8382 124.86C28.6394 126.025 28.1123 126.96 27.2569 127.665ZM21.3337 126.651L25.0305 127.284C26.0884 126.743 26.7119 125.918 26.9011 124.81C27.0615 123.869 26.8793 123.036 26.3546 122.311C25.8182 121.569 25.1019 121.121 24.2058 120.968C23.3096 120.814 22.4949 120.985 21.7619 121.481C21.0172 121.96 20.5658 122.662 20.4078 123.589C20.209 124.753 20.5177 125.774 21.3337 126.651Z" fill="white"/>
<path d="M33.2124 100.873L32.5009 98.9305C34.0998 98.501 35.1841 97.6575 35.7539 96.4C36.0476 95.7519 36.1126 95.1091 35.949 94.4717C35.7724 93.8285 35.3866 93.3715 34.7916 93.1007C34.1707 92.8182 33.564 92.8314 32.9715 93.1403C32.385 93.4363 31.7115 93.9586 30.951 94.7071C30.1835 95.4367 29.5917 95.9336 29.1756 96.1977C27.8897 97.0042 26.6323 97.1278 25.4034 96.5686C24.4074 96.1154 23.7364 95.341 23.3903 94.2453C23.0372 93.1308 23.1279 91.9837 23.6625 90.8041C24.2734 89.4559 25.2783 88.4433 26.6772 87.7664L27.5737 89.5582C26.618 90.0146 25.9404 90.6835 25.541 91.5651C25.2649 92.1743 25.1922 92.7824 25.3229 93.3891C25.4466 93.977 25.7865 94.3975 26.3427 94.6506C26.8601 94.8861 27.4021 94.8434 27.9687 94.5227C28.5224 94.1961 29.1771 93.6809 29.9328 92.9772C30.6815 92.2546 31.2733 91.7577 31.7082 91.4865C33.0189 90.66 34.321 90.5411 35.6145 91.1297C36.7916 91.6653 37.5602 92.4998 37.9204 93.6332C38.2805 94.7665 38.1875 95.936 37.6412 97.1416C36.7718 99.0602 35.2956 100.304 33.2124 100.873Z" fill="white"/>
<path d="M40.2866 90.9988L31.4464 86.2814L32.398 84.4907L41.2382 89.2081L40.2866 90.9988ZM29.163 84.9903C28.8171 85.096 28.4811 85.0619 28.1551 84.888C27.8291 84.714 27.6133 84.4537 27.5078 84.107C27.3898 83.7537 27.4176 83.4137 27.5912 83.0869C27.7648 82.7602 28.0308 82.5473 28.3893 82.4482C28.7419 82.3299 29.0812 82.3578 29.4072 82.5317C29.7332 82.7057 29.9456 82.9723 30.0445 83.3315C30.15 83.6782 30.1159 84.0148 29.9423 84.3416C29.7687 84.6683 29.5089 84.8845 29.163 84.9903Z" fill="white"/>
<path d="M44.8948 80.4674C45.0682 81.564 44.8439 82.6142 44.2219 83.6181C43.7272 84.4164 43.098 85.0137 42.3342 85.4098C41.5358 85.8347 40.675 86.0365 39.7518 86.0151C38.8241 85.9741 37.9438 85.6945 37.111 85.1764C36.2783 84.6582 35.6416 83.9855 35.2009 83.1583C34.7603 82.3312 34.553 81.4648 34.5789 80.5592C34.599 79.7171 34.8489 78.909 35.3285 78.1349C35.9655 77.1068 36.8362 76.4168 37.9405 76.0649L37.162 75.5805L38.1962 73.9114L46.3429 78.9803C47.5377 79.7238 48.3622 80.4714 48.8161 81.2231C49.2626 81.9869 49.4683 82.8019 49.4332 83.6683C49.4176 84.53 49.1513 85.3782 48.6342 86.2128C48.0122 87.2167 47.2772 87.9576 46.4293 88.4355C45.5888 88.9013 44.808 89.136 44.0867 89.1397L43.6968 87.1375C45.1827 87.0063 46.2704 86.3843 46.9599 85.2715C47.5519 84.316 47.6532 83.4238 47.2638 82.595C46.9759 81.9801 46.3431 81.3685 45.3655 80.7602L44.8948 80.4674ZM42.9758 79.2733L39.7896 77.2908C38.5987 77.4045 37.6923 77.9633 37.0703 78.9672C36.5757 79.7655 36.4448 80.5974 36.6778 81.463C36.9061 82.3089 37.4065 82.9722 38.1789 83.4528C38.9514 83.9334 39.78 84.0804 40.665 83.8936C41.5453 83.6872 42.2365 83.1789 42.7387 82.3685C43.3307 81.413 43.4097 80.3813 42.9758 79.2733Z" fill="white"/>
<path d="M41.1203 70.0905L41.8832 70.6727C41.7521 69.5527 42.0481 68.517 42.771 67.5655C43.6834 66.3648 44.8883 65.7543 46.3859 65.7339C47.4374 65.7131 48.5791 66.1728 49.8111 67.1129L53.7105 70.0884L52.4841 71.7025L48.4999 68.6623C47.6634 68.024 46.927 67.7126 46.2904 67.7279C45.4606 67.7389 44.7832 68.0899 44.2582 68.7808C43.5696 69.687 43.3673 70.7405 43.6512 71.9413L49.1274 76.12L47.901 77.7341L39.9325 71.6537L41.1203 70.0905Z" fill="white"/>
<path d="M61.4756 62.0939C60.4271 63.137 59.1898 63.5755 57.764 63.4092C56.7999 63.305 55.7774 62.7074 54.6965 61.6162L51.0932 57.979L52.5299 56.5497L56.3584 60.4142C56.9789 61.0406 57.5855 61.3801 58.178 61.4326C58.9311 61.5058 59.5951 61.2565 60.1697 60.6848C60.9259 59.9325 61.256 58.9321 61.1601 57.6834L56.3107 52.7883L57.7474 51.359L64.8038 58.4819L63.4125 59.8661L62.7669 59.2144C62.7654 59.6171 62.6632 60.0899 62.4604 60.6327C62.2475 61.1655 61.9192 61.6526 61.4756 62.0939Z" fill="white"/>
<path d="M67.0566 55.362L70.8555 60.0007L69.2906 61.2877L59.6919 49.5672L61.2074 48.3208L61.7887 49.0306C61.9919 47.8874 62.5602 46.9319 63.4937 46.1642C64.1965 45.5862 64.9632 45.2319 65.7936 45.1015C66.686 44.9569 67.5703 45.0492 68.4464 45.3785C69.3225 45.7077 70.0716 46.252 70.6934 47.0114C71.3153 47.7708 71.7019 48.6131 71.8533 49.5384C72.0066 50.4438 71.9254 51.3209 71.6098 52.1698C71.3182 52.9806 70.81 53.684 70.0852 54.2801C69.1737 55.0298 68.1642 55.3904 67.0566 55.362ZM63.2442 50.7068L65.6235 53.6122C66.7765 53.8979 67.7867 53.684 68.6543 52.9705C69.3901 52.3654 69.7968 51.6165 69.8744 50.7239C69.954 49.8112 69.7054 49.0028 69.1285 48.2984C68.5517 47.5941 67.8244 47.1885 66.9466 47.0816C66.0708 46.9547 65.2705 47.1893 64.5457 47.7854C63.6342 48.535 63.2004 49.5088 63.2442 50.7068Z" fill="white"/>
<path d="M90.006 38.8078L90.7313 36.8708C92.2225 37.5909 93.5934 37.6607 94.8438 37.0805C95.4883 36.7813 95.9561 36.3368 96.247 35.7467C96.532 35.1438 96.5372 34.5452 96.2625 33.9509C95.976 33.3308 95.5076 32.9441 94.8575 32.7908C94.2203 32.6315 93.3699 32.5868 92.3064 32.6567C91.2497 32.7078 90.4778 32.6973 89.9905 32.6254C88.491 32.3956 87.4576 31.667 86.8904 30.4397C86.4307 29.4449 86.4264 28.4192 86.8775 27.3626C87.3355 26.2871 88.151 25.4772 89.3241 24.9328C90.6648 24.3106 92.0855 24.2005 93.5862 24.6023L93.0991 26.5464C92.0778 26.2673 91.1288 26.3311 90.2522 26.7379C89.6463 27.0191 89.1954 27.4323 88.8994 27.9776C88.6104 28.504 88.5942 29.0449 88.8509 29.6004C89.0898 30.1172 89.5282 30.4393 90.1664 30.5668C90.7986 30.6814 91.6301 30.7191 92.661 30.68C93.6988 30.622 94.4707 30.6325 94.9769 30.7114C96.5082 30.9422 97.5723 31.7035 98.1693 32.9954C98.7126 34.1711 98.7518 35.3061 98.2869 36.4005C97.822 37.4948 96.9901 38.3202 95.7912 38.8766C93.8834 39.762 91.9549 39.739 90.006 38.8078Z" fill="white"/>
<path d="M100.853 36.0258L97.2294 26.6685L99.1166 25.9345L102.741 35.2918L100.853 36.0258ZM96.3406 24.1965C96.0096 24.0503 95.7774 23.8046 95.6437 23.4595C95.5101 23.1145 95.5162 22.7761 95.662 22.4445C95.8027 22.0996 96.0453 21.8602 96.3896 21.7262C96.7339 21.5923 97.0741 21.6051 97.4102 21.7645C97.7543 21.9056 97.9932 22.1487 98.1269 22.4938C98.2606 22.8388 98.2478 23.1798 98.0887 23.5166C97.9429 23.8482 97.6978 24.081 97.3534 24.2149C97.0091 24.3488 96.6715 24.3427 96.3406 24.1965Z" fill="white"/>
<path d="M111.402 31.5488C110.818 32.4921 109.963 33.1398 108.837 33.4918C107.942 33.7717 107.077 33.8112 106.24 33.6104C105.359 33.4088 104.576 32.9974 103.891 32.3762C103.216 31.7373 102.733 30.9489 102.441 30.0111C102.149 29.0733 102.106 28.1471 102.312 27.2325C102.518 26.3178 102.927 25.5264 103.537 24.8583C104.102 24.2343 104.818 23.7865 105.686 23.5151C106.839 23.1546 107.947 23.2031 109.012 23.6605L108.74 22.7839L110.611 22.1986L113.468 31.3725C113.887 32.718 114.023 33.8239 113.876 34.6902C113.715 35.5607 113.339 36.3122 112.748 36.9447C112.174 37.5865 111.419 38.0537 110.483 38.3464C109.357 38.6984 108.318 38.7773 107.365 38.5833C106.425 38.385 105.681 38.0509 105.133 37.581L106.144 35.8106C107.354 36.685 108.583 36.9272 109.83 36.537C110.902 36.202 111.56 35.5933 111.806 34.711C111.99 34.0571 111.91 33.1797 111.567 32.0788L111.402 31.5488ZM110.729 29.3878L109.612 25.7998C108.637 25.1055 107.586 24.9343 106.461 25.2863C105.566 25.5662 104.924 26.1099 104.535 26.9175C104.156 27.7072 104.102 28.5369 104.373 29.4068C104.644 30.2766 105.175 30.9308 105.966 31.3694C106.767 31.7901 107.622 31.8584 108.53 31.5743C109.602 31.2393 110.335 30.5104 110.729 29.3878Z" fill="white"/>
<path d="M115.812 20.9762L116.01 21.9166C116.641 20.9831 117.541 20.3932 118.708 20.1467C120.182 19.8358 121.492 20.1631 122.639 21.1287C123.448 21.8018 124.012 22.8977 124.331 24.4162L125.341 29.2227L123.36 29.6408L122.328 24.7298C122.112 23.6989 121.757 22.9806 121.266 22.5752C120.631 22.0399 119.889 21.8618 119.041 22.0407C117.929 22.2754 117.089 22.9402 116.52 24.035L117.939 30.785L115.958 31.203L113.894 21.3811L115.812 20.9762Z" fill="white"/>
<path d="M135.575 28.7517C134.101 28.8544 132.879 28.3759 131.908 27.316C131.246 26.6057 130.862 25.4836 130.756 23.9497L130.401 18.8365L132.42 18.6957L132.797 24.1285C132.859 25.0091 133.096 25.6633 133.51 26.0911C134.033 26.6399 134.698 26.8861 135.505 26.8298C136.568 26.7557 137.471 26.2147 138.212 25.2068L137.735 18.3253L139.754 18.1846L140.449 28.1979L138.493 28.3342L138.43 27.4181C138.166 27.7219 137.781 28.0128 137.273 28.2908C136.764 28.5546 136.198 28.7082 135.575 28.7517Z" fill="white"/>
<path d="M146.337 27.2637L146.152 33.2619L144.129 33.1993L144.596 18.0435L146.556 18.1042L146.527 19.0221C147.431 18.2951 148.486 17.9503 149.693 17.9876C150.602 18.0158 151.412 18.2545 152.123 18.7038C152.89 19.1834 153.495 19.836 153.938 20.6616C154.382 21.4873 154.589 22.3911 154.558 23.373C154.528 24.3549 154.266 25.2442 153.773 26.0409C153.294 26.8237 152.657 27.4308 151.862 27.862C151.11 28.2803 150.265 28.4749 149.328 28.4459C148.15 28.4094 147.153 28.0154 146.337 27.2637ZM146.523 21.244L146.407 25.001C147.088 25.9764 147.989 26.4815 149.11 26.5162C150.062 26.5456 150.86 26.2498 151.504 25.6288C152.163 24.994 152.507 24.2212 152.535 23.3104C152.563 22.3996 152.282 21.6146 151.691 20.9553C151.115 20.2822 150.358 19.9312 149.421 19.9022C148.242 19.8657 147.276 20.313 146.523 21.244Z" fill="white"/>
<path d="M168.499 28.4225L170.273 27.3654C170.988 28.8618 172.014 29.7754 173.352 30.1061C174.041 30.2766 174.684 30.2228 175.279 29.9446C175.878 29.6527 176.255 29.1888 176.412 28.5529C176.575 27.8894 176.451 27.2941 176.039 26.7671C175.641 26.2435 175.006 25.6758 174.132 25.0639C173.276 24.4416 172.68 23.9496 172.344 23.5881C171.318 22.4691 170.966 21.253 171.289 19.9398C171.551 18.8754 172.188 18.0723 173.199 17.5304C174.228 16.9782 175.369 16.8571 176.625 17.1674C178.059 17.522 179.236 18.3263 180.157 19.5803L178.564 20.7922C177.941 19.9344 177.16 19.3895 176.222 19.1577C175.574 18.9974 174.964 19.0373 174.393 19.2774C173.839 19.507 173.489 19.9191 173.343 20.5135C173.207 21.0664 173.348 21.5925 173.766 22.0919C174.188 22.5775 174.813 23.128 175.642 23.7435C176.488 24.3485 177.084 24.8404 177.43 25.2192C178.481 26.3588 178.836 27.6198 178.496 29.0021C178.186 30.26 177.509 31.1703 176.463 31.733C175.417 32.2957 174.253 32.4186 172.97 32.1015C170.929 31.5969 169.439 30.3705 168.499 28.4225Z" fill="white"/>
<path d="M178.81 32.7167L181.794 23.135L183.727 23.7394L180.743 33.321L178.81 32.7167ZM182.636 20.6466C182.468 20.3256 182.439 19.9884 182.549 19.6351C182.659 19.2817 182.874 19.0209 183.195 18.8526C183.519 18.6707 183.858 18.6349 184.21 18.7451C184.563 18.8554 184.821 19.0778 184.985 19.4124C185.166 19.7376 185.202 20.0769 185.092 20.4302C184.982 20.7836 184.76 21.0423 184.426 21.2064C184.106 21.3747 183.769 21.4037 183.417 21.2934C183.064 21.1832 182.804 20.9676 182.636 20.6466Z" fill="white"/>
<path d="M190.598 36.2494C189.553 36.6185 188.482 36.5872 187.384 36.1556C186.511 35.8123 185.811 35.3001 185.285 34.6188C184.723 33.9086 184.37 33.0967 184.224 32.1829C184.097 31.261 184.212 30.3428 184.57 29.4283C184.928 28.5139 185.473 27.7647 186.206 27.1809C186.938 26.5971 187.751 26.2361 188.644 26.0981C189.474 25.9657 190.313 26.0659 191.159 26.3988C192.283 26.8408 193.117 27.5743 193.662 28.5991L193.997 27.7443L195.822 28.462L192.319 37.408C191.805 38.7201 191.22 39.6678 190.564 40.2511C189.895 40.8292 189.133 41.1792 188.276 41.3012C187.428 41.4416 186.547 41.3324 185.635 40.9736C184.537 40.5419 183.677 39.9514 183.055 39.202C182.446 38.4578 182.074 37.7306 181.941 37.0203L183.835 36.2741C184.232 37.715 185.039 38.6747 186.256 39.1532C187.301 39.564 188.194 39.5026 188.938 38.969C189.489 38.574 189.975 37.8398 190.395 36.7663L190.598 36.2494ZM191.423 34.1421L192.793 30.6432C192.466 29.49 191.754 28.6976 190.657 28.266C189.784 27.9227 188.944 27.9441 188.136 28.3301C187.347 28.7081 186.787 29.3212 186.455 30.1694C186.122 31.0176 186.128 31.861 186.471 32.6995C186.833 33.5299 187.456 34.1193 188.342 34.4678C189.387 34.8786 190.414 34.7701 191.423 34.1421Z" fill="white"/>
<path d="M199.063 30.7524L198.631 31.6104C199.706 31.2767 200.776 31.379 201.842 31.9175C203.186 32.5971 204.005 33.6727 204.299 35.1445C204.511 36.1767 204.269 37.3856 203.572 38.7712L201.364 43.1569L199.557 42.2434L201.812 37.7624C202.285 36.8217 202.457 36.0391 202.325 35.4147C202.163 34.5992 201.695 33.9959 200.921 33.6048C199.906 33.092 198.836 33.0851 197.71 33.5842L194.61 39.7432L192.802 38.8297L197.313 29.8677L199.063 30.7524Z" fill="white"/>
<path d="M211.626 49.2853C210.412 48.4408 209.758 47.3008 209.663 45.8654C209.591 44.8965 209.992 43.7805 210.867 42.5175L213.785 38.3077L215.447 39.4648L212.348 43.9378C211.845 44.6628 211.622 45.3221 211.678 45.9155C211.742 46.6711 212.107 47.2802 212.772 47.7431C213.647 48.3521 214.689 48.4963 215.897 48.1756L219.823 42.5098L221.486 43.667L215.773 51.9113L214.163 50.7907L214.686 50.0364C214.29 50.1079 213.808 50.0928 213.238 49.9912C212.677 49.8779 212.139 49.6425 211.626 49.2853Z" fill="white"/>
<path d="M218.773 53.3503L214.907 57.9331L213.361 56.6234L223.129 45.0442L224.626 46.3125L224.034 47.0138C225.193 47.0074 226.233 47.3948 227.156 48.176C227.85 48.7643 228.336 49.4558 228.614 50.2507C228.918 51.1042 228.987 51.9924 228.822 52.9154C228.657 53.8385 228.259 54.6751 227.626 55.4253C226.993 56.1755 226.236 56.7088 225.355 57.0252C224.494 57.34 223.619 57.4186 222.729 57.261C221.88 57.1201 221.098 56.7464 220.382 56.1398C219.481 55.3769 218.945 54.4471 218.773 53.3503ZM222.652 48.7513L220.231 51.6216C220.159 52.8096 220.551 53.7667 221.409 54.4928C222.135 55.1085 222.944 55.374 223.834 55.2892C224.744 55.2026 225.493 54.8114 226.08 54.1156C226.667 53.4197 226.933 52.6296 226.88 51.7451C226.846 50.8589 226.471 50.1126 225.755 49.506C224.854 48.7431 223.82 48.4915 222.652 48.7513Z" fill="white"/>
<path d="M236.527 68.6701L238.573 68.9478C238.204 70.565 238.441 71.9198 239.284 73.0124C239.719 73.5756 240.255 73.9337 240.894 74.0867C241.544 74.231 242.128 74.1029 242.645 73.7023C243.184 73.2844 243.456 72.7408 243.461 72.0715C243.474 71.4135 243.328 70.5727 243.023 69.5492C242.738 68.5282 242.577 67.7716 242.538 67.2796C242.428 65.7634 242.907 64.5917 243.975 63.7645C244.84 63.094 245.837 62.8616 246.965 63.0673C248.113 63.2755 249.083 63.8921 249.874 64.9171C250.777 66.0885 251.201 67.4521 251.144 69.0077L249.144 68.9643C249.188 67.9043 248.915 66.9914 248.324 66.2254C247.916 65.696 247.413 65.3474 246.817 65.1796C246.241 65.0143 245.711 65.1188 245.227 65.4932C244.778 65.8415 244.562 66.3416 244.58 66.9934C244.609 67.6366 244.758 68.4574 245.025 69.4559C245.313 70.4569 245.474 71.2134 245.51 71.7255C245.626 73.2729 245.123 74.482 243.999 75.3527C242.976 76.1451 241.88 76.4359 240.712 76.2251C239.544 76.0144 238.556 75.3852 237.748 74.3377C236.462 72.6706 236.055 70.7815 236.527 68.6701Z" fill="white"/>
<path d="M241.564 79.0188L249.853 73.3849L250.99 75.0639L242.701 80.6978L241.564 79.0188ZM252.058 71.9636C252.126 71.6076 252.313 71.3258 252.619 71.118C252.925 70.9102 253.255 70.8405 253.61 70.9087C253.977 70.969 254.264 71.1523 254.472 71.4586C254.679 71.765 254.743 72.1001 254.663 72.464C254.603 72.8317 254.42 73.1195 254.114 73.3272C253.809 73.535 253.474 73.5989 253.111 73.5189C252.756 73.4506 252.475 73.2633 252.267 72.957C252.06 72.6506 251.99 72.3195 252.058 71.9636Z" fill="white"/>
<path d="M248.239 88.8913C247.19 88.5335 246.368 87.8448 245.772 86.8251C245.298 86.0144 245.064 85.178 245.071 84.3162C245.068 83.4103 245.291 82.5531 245.741 81.7448C246.21 80.9415 246.867 80.2916 247.713 79.7951C248.559 79.2986 249.449 79.048 250.385 79.0432C251.321 79.0384 252.182 79.2587 252.969 79.7041C253.703 80.1148 254.3 80.7132 254.76 81.4994C255.37 82.5436 255.573 83.6372 255.369 84.7802L256.159 84.3161L257.15 86.0114L248.876 90.8685C247.662 91.5809 246.618 91.963 245.743 92.0148C244.86 92.0543 244.045 91.8565 243.297 91.4212C242.543 91.0055 241.919 90.3738 241.423 89.5262C240.827 88.5066 240.516 87.5095 240.49 86.535C240.471 85.5727 240.628 84.771 240.961 84.1299L242.91 84.7182C242.333 86.0966 242.374 87.3509 243.035 88.4811C243.602 89.4515 244.343 89.9575 245.256 89.9989C245.933 90.0304 246.768 89.7548 247.761 89.1719L248.239 88.8913ZM250.188 87.7472L253.424 85.8475C253.879 84.7388 253.809 83.6747 253.213 82.6551C252.739 81.8443 252.065 81.3403 251.193 81.1431C250.339 80.9509 249.521 81.0851 248.736 81.5457C247.952 82.0062 247.435 82.6722 247.187 83.5437C246.959 84.4204 247.085 85.2702 247.566 86.0933C248.134 87.0638 249.008 87.6151 250.188 87.7472Z" fill="white"/>
<path d="M259.67 90.0693L258.8 90.4731C259.849 90.8805 260.625 91.6268 261.126 92.712C261.759 94.0814 261.734 95.4343 261.052 96.7706C260.579 97.7119 259.64 98.5085 258.235 99.1606L253.788 101.225L252.937 99.3835L257.481 97.2747C258.435 96.832 259.054 96.3251 259.338 95.754C259.716 95.0137 259.723 94.2496 259.359 93.4615C258.881 92.428 258.046 91.7563 256.854 91.4466L250.609 94.3451L249.758 92.5041L258.846 88.2865L259.67 90.0693Z" fill="white"/>
<path d="M256.573 112.204C256.143 110.787 256.336 109.486 257.149 108.301C257.692 107.496 258.697 106.87 260.165 106.423L265.059 104.933L265.647 106.875L260.448 108.458C259.605 108.714 259.022 109.092 258.699 109.593C258.282 110.226 258.191 110.93 258.427 111.707C258.736 112.728 259.464 113.489 260.61 113.988L267.196 111.983L267.784 113.924L258.202 116.842L257.632 114.962L258.508 114.695C258.154 114.505 257.785 114.194 257.401 113.76C257.031 113.322 256.755 112.803 256.573 112.204Z" fill="white"/>
<path d="M260.118 121.05L254.245 122.219L253.851 120.229L268.69 117.275L269.072 119.202L268.173 119.381C269.083 120.099 269.656 121.052 269.891 122.239C270.069 123.133 270.019 123.978 269.742 124.773C269.448 125.63 268.95 126.368 268.247 126.987C267.544 127.606 266.712 128.011 265.751 128.202C264.789 128.394 263.866 128.338 262.98 128.035C262.111 127.744 261.378 127.258 260.78 126.579C260.204 125.939 259.825 125.158 259.642 124.236C259.412 123.077 259.571 122.015 260.118 121.05ZM266.012 119.876L262.334 120.609C261.538 121.493 261.25 122.486 261.469 123.59C261.654 124.525 262.122 125.238 262.87 125.727C263.636 126.228 264.465 126.39 265.356 126.212C266.248 126.035 266.948 125.583 267.456 124.858C267.981 124.144 268.152 123.326 267.969 122.404C267.739 121.245 267.087 120.403 266.012 119.876Z" fill="white"/>
<path d="M314.298 210.771V79.2125L358.832 92.6675V166.223H378.46V103.564L423.129 115.368V166.223H502.438C507.77 130.189 499.343 93.469 478.835 63.3646C458.327 33.2601 427.24 11.9773 391.755 3.74855C356.271 -4.48015 318.989 0.9482 287.325 18.954C255.66 36.9598 231.933 66.224 220.861 100.927C209.789 135.629 212.184 173.228 227.569 206.245C242.955 239.262 270.204 265.279 303.897 279.122C337.59 292.964 375.26 293.619 409.413 280.954C443.567 268.289 471.702 243.234 488.225 210.771H314.298Z" fill="white"/>
<path d="M352.134 67.9774C357.349 69.871 359.401 72.9246 357.879 76.9784C356.154 81.539 352.446 83.2992 345.94 80.9789L326 73.7247L332.411 69.5509L348.616 75.4449C350.178 76.0183 351.061 75.805 351.495 74.6448C351.93 73.4847 351.4 72.7913 349.825 72.2179L338.17 67.9774C332.669 65.9772 331.107 62.4968 332.547 58.643C334.136 54.4425 337.844 52.6957 344.351 55.0693L363 61.8167L356.562 66.0439L341.702 60.6432C340.167 60.0965 339.284 60.2165 338.849 61.35C338.415 62.4834 338.999 63.1769 340.534 63.7369L352.134 67.9774Z" fill="#3FA046"/>
<path d="M348.042 53.1869L347 56L353.564 58.432L354.606 55.6189L348.042 53.1869Z" fill="#3FA046"/>
<path d="M338.042 78.1869L337 81L343.564 83.432L344.606 80.6189L338.042 78.1869Z" fill="#3FA046"/>
<path d="M413.292 93.1357C417.883 94.9782 419.651 97.8244 418.207 101.537C416.6 105.662 413.292 107.243 407.553 104.933L390 97.8932L395.766 94.1669L410.024 99.9007C411.374 100.451 412.185 100.272 412.603 99.2132C413.022 98.1544 412.603 97.5082 411.158 96.9444L400.91 92.8194C396.063 90.8669 394.739 87.6356 396.09 84.1431C397.575 80.3206 400.91 78.7806 406.622 81.0768L423 87.6494L417.207 91.4306L404.137 86.1781C402.787 85.6419 401.99 85.7381 401.585 86.7694C401.18 87.8006 401.68 88.4606 403.043 89.0107L413.292 93.1357Z" fill="#3FA046"/>
<path d="M409.734 80.1394L409 82L415.512 84.5678L416.246 82.7072L409.734 80.1394Z" fill="#3FA046"/>
<path d="M400.734 102.139L400 104L406.512 106.568L407.246 104.707L400.734 102.139Z" fill="#3FA046"/>
</svg>
