<svg width="180" height="22" viewBox="0 0 180 22" fill="none" xmlns="http://www.w3.org/2000/svg">
<path d="M15.4964 5.54507L16.4577 1.8287C15.642 1.22928 13.9236 0.629852 11.5642 0.629852C7.07847 0.629852 0 2.78779 0 11.2397C0 19.332 6.5831 21.8495 11.3311 21.8495C13.4865 21.8495 15.4383 21.34 16.2246 20.7706V16.9641C15.1761 17.6536 13.4574 18.1631 11.8553 18.1631C8.06869 18.1631 4.01976 16.1551 4.01976 10.9999C4.01976 6.05478 8.12703 4.43616 11.1855 4.43616C13.1662 4.43616 14.5354 4.94559 15.4964 5.54507Z" fill="white"/>
<path d="M21.5384 16.8147C21.5384 15.586 22.3831 15.0466 24.1307 14.8668L26.1989 14.6569V15.7058C26.1989 17.564 25.0337 18.7029 23.6939 18.7029C22.2083 18.7029 21.5384 17.8639 21.5384 16.8147ZM29.8983 11.7196C29.8983 7.82335 26.9855 6.17498 23.5772 6.17498C22.15 6.17498 20.6063 6.41483 19.1788 7.16411L18.2758 10.7007C19.7033 9.89138 21.1887 9.47172 22.7326 9.47172C24.7717 9.47172 26.1989 10.281 26.1989 11.8096V12.1392L24.2763 12.319C21.3345 12.5889 17.7807 13.1284 17.7807 17.2644C17.7807 19.6921 19.5866 21.7601 22.4703 21.7601C24.393 21.7601 25.6746 20.741 26.3445 19.0026L26.3737 21.5203H29.8983V11.7196Z" fill="white"/>
<path d="M42.4331 7.19206C41.4718 6.47279 39.899 6.08314 38.3842 6.08314C34.452 6.08314 32.1506 8.03138 32.1506 10.8487C32.1506 13.1566 33.3742 14.2655 35.2966 15.0448L37.6852 16.0036C38.7921 16.4533 39.1708 16.6932 39.1708 17.3524C39.1708 18.2217 38.4425 18.7012 37.0153 18.7012C35.7045 18.7012 34.1024 18.3715 32.4712 17.1426V20.6194C33.4031 21.5185 35.3549 21.9381 36.9861 21.9381C40.5397 21.9381 42.841 20.1099 42.841 17.0828C42.841 14.8947 41.6758 13.8158 39.5495 12.9467L37.219 11.9876C36.1123 11.538 35.85 11.2383 35.85 10.6389C35.85 9.82955 36.5783 9.35013 38.093 9.35013C39.1416 9.35013 40.5105 9.64974 41.6174 10.4591L42.4331 7.19206Z" fill="white"/>
<path d="M45.11 21.5194H48.8675V13.0374C48.8675 10.8196 49.9163 9.62091 51.7223 9.62091C53.4407 9.62091 54.2856 10.7896 54.2856 12.588V21.5194H58.0431V11.5989C58.0431 8.3319 56.208 6.1741 53.1495 6.1741C51.1977 6.1741 49.6832 7.13321 48.8675 8.72155V0H45.11V21.5194Z" fill="white"/>
<path d="M67.5796 21.5178H71.4827V12.946H78.0366L78.9687 9.31941H71.4827V4.55413H80.1631L81.1242 0.897516H67.5796V21.5178Z" fill="white"/>
<path d="M84.2832 16.8147C84.2832 15.586 85.1278 15.0466 86.8757 14.8668L88.9439 14.6569V15.7058C88.9439 17.564 87.7787 18.7029 86.4387 18.7029C84.9531 18.7029 84.2832 17.8639 84.2832 16.8147ZM92.6431 11.7196C92.6431 7.82335 89.7302 6.17498 86.3222 6.17498C84.895 6.17498 83.351 6.41483 81.9238 7.16411L81.0208 10.7007C82.4481 9.89138 83.9337 9.47172 85.4776 9.47172C87.5164 9.47172 88.9439 10.281 88.9439 11.8096V12.1392L87.0213 12.319C84.0793 12.5889 80.5257 13.1284 80.5257 17.2644C80.5257 19.6921 82.3316 21.7601 85.2153 21.7601C87.1377 21.7601 88.4194 20.741 89.0895 19.0026L89.1187 21.5203H92.6431V11.7196Z" fill="white"/>
<path d="M106.081 10.46L106.955 7.13323C106.168 6.56376 104.945 6.1441 103.139 6.1441C99.8182 6.1441 94.7207 7.79247 94.7207 13.9966C94.7207 19.871 99.5268 21.879 103.081 21.879C104.712 21.879 106.139 21.4293 106.809 21.01V17.5932C105.964 18.1626 104.712 18.5223 103.634 18.5223C100.983 18.5223 98.5366 17.1137 98.5366 13.7867C98.5366 10.6998 100.983 9.59091 103.081 9.59091C104.246 9.59091 105.294 9.95054 106.081 10.46Z" fill="white"/>
<path d="M113.388 6.44405V3.17734H112.252L107.65 8.72192V9.56124H109.631V16.8142C109.631 19.8414 111.32 21.6996 114.699 21.6996C115.718 21.6996 116.913 21.4597 117.495 20.9803V17.8634C116.971 18.133 116.301 18.2828 115.806 18.2828C114.175 18.2828 113.388 17.6235 113.388 15.9752V9.56124H117.379V6.44405H113.388Z" fill="white"/>
<path d="M126.395 9.32223C129.074 9.32223 130.473 11.4803 130.473 13.9677C130.473 16.4554 129.074 18.6432 126.395 18.6432C123.715 18.6432 122.317 16.4554 122.317 13.9677C122.317 11.4803 123.715 9.32223 126.395 9.32223ZM126.395 5.96547C121.443 5.96547 118.53 9.47204 118.53 13.9677C118.53 18.4934 121.443 22 126.395 22C131.347 22 134.259 18.4934 134.259 13.9677C134.259 9.47204 131.347 5.96547 126.395 5.96547Z" fill="white"/>
<path d="M145.149 10.7585L145.848 6.89231C145.44 6.44264 144.77 6.20306 144.1 6.20306C142.003 6.20306 140.809 7.73164 140.168 9.70962L140.139 6.44263H136.585V21.5183H140.343V14.0555C140.343 11.2382 141.566 10.2791 143.343 10.2791C143.984 10.2791 144.654 10.4589 145.149 10.7585Z" fill="white"/>
<path d="M147.451 21.5194H151.209V6.44369H147.451V21.5194ZM147.422 4.01603H151.238V0H147.422V4.01603Z" fill="white"/>
<path d="M166.858 20.8008V17.414C165.897 18.1333 164.237 18.6427 162.606 18.6427C159.576 18.6427 157.916 17.4741 157.45 15.346H167.412C167.499 14.8666 167.528 14.1173 167.528 13.5776C167.528 9.53156 165.111 6.055 160.974 6.055C156.226 6.055 153.547 9.71137 153.547 13.9372C153.547 18.553 156.43 21.9097 162.198 21.9097C163.771 21.9097 165.81 21.5201 166.858 20.8008ZM163.858 12.6485H157.392C157.712 10.5804 158.936 9.29171 160.829 9.29171C162.518 9.29171 163.625 10.6105 163.858 12.6485Z" fill="white"/>
<path d="M179.592 7.19206C178.631 6.47279 177.058 6.08314 175.543 6.08314C171.611 6.08314 169.31 8.03138 169.31 10.8487C169.31 13.1566 170.533 14.2655 172.456 15.0448L174.844 16.0036C175.951 16.4533 176.33 16.6932 176.33 17.3524C176.33 18.2217 175.602 18.7012 174.174 18.7012C172.863 18.7012 171.261 18.3715 169.63 17.1426V20.6194C170.562 21.5185 172.514 21.9381 174.145 21.9381C177.699 21.9381 180 20.1099 180 17.0828C180 14.8947 178.835 13.8158 176.708 12.9467L174.378 11.9876C173.271 11.538 173.009 11.2383 173.009 10.6389C173.009 9.82955 173.737 9.35013 175.252 9.35013C176.301 9.35013 177.67 9.64974 178.777 10.4591L179.592 7.19206Z" fill="white"/>
</svg>
