<svg width="40" height="40" viewBox="0 0 40 40" fill="none" xmlns="http://www.w3.org/2000/svg">
<path fill-rule="evenodd" clip-rule="evenodd" d="M20 0C8.95431 0 0 8.95431 0 20C0 31.0457 8.95431 40 20 40C31.0457 40 40 31.0457 40 20C40 8.95431 31.0457 0 20 0ZM30 15.8C30 12.6 27.4 10 24.2 10H15.8C14.2617 10 12.7865 10.6111 11.6988 11.6988C10.6111 12.7865 10 14.2617 10 15.8V24.2C10 27.4 12.6 30 15.8 30H24.2C25.7383 30 27.2135 29.3889 28.3012 28.3012C29.3889 27.2135 30 25.7383 30 24.2V15.8ZM13.0544 13.0544C13.7295 12.3793 14.6452 12 15.6 12H24.4C26.39 12 28 13.61 28 15.6V24.4C28 25.3548 27.6207 26.2705 26.9456 26.9456C26.2705 27.6207 25.3548 28 24.4 28H15.6C13.61 28 12 26.39 12 24.4V15.6C12 14.6452 12.3793 13.7295 13.0544 13.0544ZM26.1339 13.8661C25.8995 13.6317 25.5815 13.5 25.25 13.5C24.9185 13.5 24.6005 13.6317 24.3661 13.8661C24.1317 14.1005 24 14.4185 24 14.75C24 15.0815 24.1317 15.3995 24.3661 15.6339C24.6005 15.8683 24.9185 16 25.25 16C25.5815 16 25.8995 15.8683 26.1339 15.6339C26.3683 15.3995 26.5 15.0815 26.5 14.75C26.5 14.4185 26.3683 14.1005 26.1339 13.8661ZM23.5355 16.4645C22.5979 15.5268 21.3261 15 20 15C18.6739 15 17.4021 15.5268 16.4645 16.4645C15.5268 17.4021 15 18.6739 15 20C15 21.3261 15.5268 22.5979 16.4645 23.5355C17.4021 24.4732 18.6739 25 20 25C21.3261 25 22.5979 24.4732 23.5355 23.5355C24.4732 22.5979 25 21.3261 25 20C25 18.6739 24.4732 17.4021 23.5355 16.4645ZM17.8787 17.8787C18.4413 17.3161 19.2044 17 20 17C20.7956 17 21.5587 17.3161 22.1213 17.8787C22.6839 18.4413 23 19.2044 23 20C23 20.7956 22.6839 21.5587 22.1213 22.1213C21.5587 22.6839 20.7956 23 20 23C19.2044 23 18.4413 22.6839 17.8787 22.1213C17.3161 21.5587 17 20.7956 17 20C17 19.2044 17.3161 18.4413 17.8787 17.8787Z" fill="white"/>
</svg>
