<svg width="40" height="40" viewBox="0 0 40 40" fill="none" xmlns="http://www.w3.org/2000/svg">
<g clip-path="url(#clip0_333_189)">
<path d="M19.9999 0C8.95411 0 -6.10352e-05 8.95417 -6.10352e-05 20C-6.10352e-05 31.0458 8.95411 40 19.9999 40C31.0458 40 39.9999 31.0458 39.9999 20C39.9999 8.95417 31.0458 0 19.9999 0ZM15.1041 28.2896H11.0541V15.2562H15.1041V28.2896ZM13.0541 13.6562C11.7749 13.6562 10.9479 12.75 10.9479 11.6292C10.9479 10.4854 11.7999 9.60625 13.1062 9.60625C14.4124 9.60625 15.2124 10.4854 15.2374 11.6292C15.2374 12.75 14.4124 13.6562 13.0541 13.6562ZM29.8958 28.2896H25.8458V21.0667C25.8458 19.3854 25.2583 18.2437 23.7937 18.2437C22.6749 18.2437 22.0104 19.0167 21.7166 19.7604C21.6083 20.025 21.5812 20.4 21.5812 20.7729V28.2875H17.5291V19.4125C17.5291 17.7854 17.477 16.425 17.4229 15.2542H20.9416L21.127 17.0646H21.2083C21.7416 16.2146 23.0479 14.9604 25.2333 14.9604C27.8979 14.9604 29.8958 16.7458 29.8958 20.5833V28.2896Z" fill="white"/>
</g>
<defs>
<clipPath id="clip0_333_189">
<rect width="40" height="40" fill="white"/>
</clipPath>
</defs>
</svg>
