<svg width="180" height="42" viewBox="0 0 180 42" fill="none" xmlns="http://www.w3.org/2000/svg">
<path d="M15.4964 5.65151L16.4577 1.8638C15.642 1.25287 13.9236 0.641942 11.5642 0.641942C7.07847 0.641942 0 2.8413 0 11.4555C0 19.7031 6.5831 22.2689 11.3311 22.2689C13.4865 22.2689 15.4383 21.7496 16.2246 21.1692V17.2897C15.1761 17.9925 13.4574 18.5117 11.8553 18.5117C8.06869 18.5117 4.01976 16.4652 4.01976 11.211C4.01976 6.171 8.12703 4.52131 11.1855 4.52131C13.1662 4.52131 14.5354 5.04052 15.4964 5.65151Z" fill="white"/>
<path d="M21.5384 17.1375C21.5384 15.8852 22.3831 15.3354 24.1307 15.1521L26.1989 14.9383V16.0073C26.1989 17.9012 25.0337 19.0619 23.6939 19.0619C22.2083 19.0619 21.5384 18.2068 21.5384 17.1375ZM29.8983 11.9445C29.8983 7.97351 26.9855 6.29351 23.5772 6.29351C22.15 6.29351 20.6063 6.53796 19.1788 7.30163L18.2758 10.9061C19.7033 10.0812 21.1887 9.65352 22.7326 9.65352C24.7717 9.65352 26.1989 10.4784 26.1989 12.0363V12.3722L24.2763 12.5555C21.3345 12.8305 17.7807 13.3803 17.7807 17.5958C17.7807 20.0701 19.5866 22.1778 22.4703 22.1778C24.393 22.1778 25.6746 21.1391 26.3445 19.3673L26.3737 21.9333H29.8983V11.9445Z" fill="white"/>
<path d="M42.4331 7.33011C41.4718 6.59703 39.899 6.19991 38.3842 6.19991C34.452 6.19991 32.1506 8.18554 32.1506 11.0569C32.1506 13.4091 33.3742 14.5393 35.2966 15.3336L37.6852 16.3108C38.7921 16.7691 39.1708 17.0136 39.1708 17.6855C39.1708 18.5715 38.4425 19.0601 37.0153 19.0601C35.7045 19.0601 34.1024 18.7242 32.4712 17.4716V21.0152C33.4031 21.9315 35.3549 22.3592 36.9861 22.3592C40.5397 22.3592 42.841 20.4959 42.841 17.4107C42.841 15.1806 41.6758 14.081 39.5495 13.1953L37.219 12.2177C36.1123 11.7594 35.85 11.4541 35.85 10.8431C35.85 10.0182 36.5783 9.5296 38.093 9.5296C39.1416 9.5296 40.5105 9.83496 41.6174 10.6598L42.4331 7.33011Z" fill="white"/>
<path d="M45.11 21.9324H48.8675V13.2877C48.8675 11.0273 49.9163 9.80558 51.7223 9.80558C53.4407 9.80558 54.2856 10.9967 54.2856 12.8296V21.9324H58.0431V11.8215C58.0431 8.49183 56.208 6.29261 53.1495 6.29261C51.1977 6.29261 49.6832 7.27013 48.8675 8.88896V0H45.11V21.9324Z" fill="white"/>
<path d="M67.5796 21.9308H71.4827V13.1945H78.0366L78.9687 9.49829H71.4827V4.64154H80.1631L81.1242 0.914743H67.5796V21.9308Z" fill="white"/>
<path d="M84.2832 17.1375C84.2832 15.8852 85.1278 15.3354 86.8757 15.1521L88.9439 14.9383V16.0073C88.9439 17.9012 87.7787 19.0619 86.4387 19.0619C84.9531 19.0619 84.2832 18.2068 84.2832 17.1375ZM92.6431 11.9445C92.6431 7.97351 89.7302 6.29351 86.3222 6.29351C84.895 6.29351 83.351 6.53796 81.9238 7.30163L81.0208 10.9061C82.4481 10.0812 83.9337 9.65352 85.4776 9.65352C87.5164 9.65352 88.9439 10.4784 88.9439 12.0363V12.3722L87.0213 12.5555C84.0793 12.8305 80.5257 13.3803 80.5257 17.5958C80.5257 20.0701 82.3316 22.1778 85.2153 22.1778C87.1377 22.1778 88.4194 21.1391 89.0895 19.3673L89.1187 21.9333H92.6431V11.9445Z" fill="white"/>
<path d="M106.081 10.6608L106.955 7.27015C106.168 6.68975 104.945 6.26203 103.139 6.26203C99.8182 6.26203 94.7207 7.94204 94.7207 14.2652C94.7207 20.2524 99.5268 22.299 103.081 22.299C104.712 22.299 106.139 21.8407 106.809 21.4132V17.9309C105.964 18.5113 104.712 18.8778 103.634 18.8778C100.983 18.8778 98.5366 17.4422 98.5366 14.0514C98.5366 10.9052 100.983 9.775 103.081 9.775C104.246 9.775 105.294 10.1415 106.081 10.6608Z" fill="white"/>
<path d="M113.388 6.56775V3.23832H112.252L107.65 8.88933V9.74477H109.631V17.137C109.631 20.2222 111.32 22.1161 114.699 22.1161C115.718 22.1161 116.913 21.8716 117.495 21.383V18.2063C116.971 18.481 116.301 18.6337 115.806 18.6337C114.175 18.6337 113.388 17.9618 113.388 16.2818V9.74477H117.379V6.56775H113.388Z" fill="white"/>
<path d="M126.395 9.50117C129.074 9.50117 130.473 11.7007 130.473 14.2358C130.473 16.7713 129.074 19.0011 126.395 19.0011C123.715 19.0011 122.317 16.7713 122.317 14.2358C122.317 11.7007 123.715 9.50117 126.395 9.50117ZM126.395 6.07998C121.443 6.07998 118.53 9.65385 118.53 14.2358C118.53 18.8484 121.443 22.4223 126.395 22.4223C131.347 22.4223 134.259 18.8484 134.259 14.2358C134.259 9.65385 131.347 6.07998 126.395 6.07998Z" fill="white"/>
<path d="M145.149 10.965L145.848 7.02461C145.44 6.5663 144.77 6.32213 144.1 6.32213C142.003 6.32213 140.809 7.88005 140.168 9.896L140.139 6.5663H136.585V21.9314H140.343V14.3253C140.343 11.4539 141.566 10.4764 143.343 10.4764C143.984 10.4764 144.654 10.6597 145.149 10.965Z" fill="white"/>
<path d="M147.451 21.9324H151.209V6.56737H147.451V21.9324ZM147.422 4.09311H151.238V0H147.422V4.09311Z" fill="white"/>
<path d="M166.858 21.2001V17.7483C165.897 18.4814 164.237 19.0006 162.606 19.0006C159.576 19.0006 157.916 17.8095 157.45 15.6406H167.412C167.499 15.1519 167.528 14.3883 167.528 13.8382C167.528 9.71451 165.111 6.17123 160.974 6.17123C156.226 6.17123 153.547 9.89778 153.547 14.2047C153.547 18.9091 156.43 22.3303 162.198 22.3303C163.771 22.3303 165.81 21.9331 166.858 21.2001ZM163.858 12.8913H157.392C157.712 10.7835 158.936 9.47006 160.829 9.47006C162.518 9.47006 163.625 10.8141 163.858 12.8913Z" fill="white"/>
<path d="M179.592 7.33011C178.631 6.59703 177.058 6.19991 175.543 6.19991C171.611 6.19991 169.31 8.18554 169.31 11.0569C169.31 13.4091 170.533 14.5393 172.456 15.3336L174.844 16.3108C175.951 16.7691 176.33 17.0136 176.33 17.6855C176.33 18.5715 175.602 19.0601 174.174 19.0601C172.863 19.0601 171.261 18.7242 169.63 17.4716V21.0152C170.562 21.9315 172.514 22.3592 174.145 22.3592C177.699 22.3592 180 20.4959 180 17.4107C180 15.1806 178.835 14.081 176.708 13.1953L174.378 12.2177C173.271 11.7594 173.009 11.4541 173.009 10.8431C173.009 10.0182 173.737 9.5296 175.252 9.5296C176.301 9.5296 177.67 9.83496 178.777 10.6598L179.592 7.33011Z" fill="white"/>
<path d="M1.39679e-06 38.9336H1.59592L2.20613 37.0019H5.30355L5.90208 38.9336H7.56828L4.8225 30.4679H2.78106L1.39679e-06 38.9336ZM2.64024 35.6114L3.76651 32.0431L4.86944 35.6114H2.64024Z" fill="white"/>
<path d="M8.28676 38.9344H9.8002V30.0997H8.28676V38.9344Z" fill="white"/>
<path d="M11.0939 38.9344H12.6073V30.0997H11.0939V38.9344Z" fill="white"/>
<path d="M15.2508 32.7437L17.41 38.8837C17.3042 39.3267 17.0109 39.585 16.4243 39.585C16.1896 39.585 15.8727 39.5236 15.6499 39.4004V40.7047C15.8494 40.8893 16.2718 41 16.659 41C17.9613 41 18.5715 40.2002 19.029 38.8467L21.0707 32.7437H19.51L18.243 37.0257L16.917 32.7437H15.2508Z" fill="white"/>
<path d="M24.4403 33.9262C25.5196 33.9262 26.0829 34.8122 26.0829 35.8334C26.0829 36.8549 25.5196 37.7531 24.4403 37.7531C23.3607 37.7531 22.7974 36.8549 22.7974 35.8334C22.7974 34.8122 23.3607 33.9262 24.4403 33.9262ZM24.4403 32.5482C22.4455 32.5482 21.272 33.9879 21.272 35.8334C21.272 37.6914 22.4455 39.1311 24.4403 39.1311C26.4348 39.1311 27.6082 37.6914 27.6082 35.8334C27.6082 33.9879 26.4348 32.5482 24.4403 32.5482Z" fill="white"/>
<path d="M33.6607 32.7437H32.1472V36.2014C32.1472 37.1733 31.7248 37.6286 31.009 37.6286C30.3169 37.6286 29.9883 37.1489 29.9883 36.435V32.7437H28.4746V36.8165C28.4746 38.1578 29.214 39.0436 30.4694 39.0436C31.3493 39.0436 31.9359 38.5516 32.2058 37.9117L32.2175 38.9329H33.6607V32.7437Z" fill="white"/>
<path d="M38.3999 34.5175L38.6815 32.9301C38.5171 32.7457 38.2474 32.6473 37.9775 32.6473C37.1328 32.6473 36.6518 33.2747 36.3935 34.087L36.3818 32.7457H34.9503V38.9349H36.464V35.871C36.464 34.7144 36.9567 34.3206 37.6725 34.3206C37.9305 34.3206 38.2005 34.3946 38.3999 34.5175Z" fill="white"/>
<path d="M44.9599 35.2673V38.9341H46.4736V34.8613C46.4736 33.52 45.7342 32.6342 44.5022 32.6342C43.6809 32.6342 43.059 33.0525 42.7424 33.7539L42.7304 32.7449H41.2639V38.9341H42.7774V35.452C42.7774 34.5415 43.1998 34.0492 43.9272 34.0492C44.6313 34.0492 44.9599 34.5415 44.9599 35.2673Z" fill="white"/>
<path d="M52.7021 38.6382V37.248C52.3149 37.5431 51.6461 37.7525 50.989 37.7525C49.7688 37.7525 49.1 37.2725 48.9123 36.399H52.9251C52.9604 36.2021 52.9721 35.8945 52.9721 35.6728C52.9721 34.0117 51.998 32.5845 50.3321 32.5845C48.4196 32.5845 47.34 34.0857 47.34 35.8205C47.34 37.7155 48.5015 39.0935 50.8248 39.0935C51.4584 39.0935 52.2797 38.9336 52.7021 38.6382ZM51.4937 35.2916H48.8887C49.0178 34.4425 49.5106 33.9133 50.2732 33.9133C50.954 33.9133 51.3998 34.4547 51.4937 35.2916Z" fill="white"/>
<path d="M58.9813 38.6382V37.248C58.5941 37.5431 57.9253 37.7525 57.2682 37.7525C56.048 37.7525 55.3792 37.2725 55.1915 36.399H59.2043C59.2396 36.2021 59.2513 35.8945 59.2513 35.6728C59.2513 34.0117 58.2775 32.5845 56.6113 32.5845C54.6988 32.5845 53.6192 34.0857 53.6192 35.8205C53.6192 37.7155 54.7807 39.0935 57.104 39.0935C57.7376 39.0935 58.5589 38.9336 58.9813 38.6382ZM57.7728 35.2916H55.1681C55.297 34.4425 55.79 33.9133 56.5524 33.9133C57.2332 33.9133 57.679 34.4547 57.7728 35.2916Z" fill="white"/>
<path d="M63.0077 33.9756C64.0404 33.9756 64.58 34.8124 64.58 35.8336C64.58 36.8551 64.0404 37.7041 63.0077 37.7041C61.9753 37.7041 61.4237 36.8551 61.4237 35.8336C61.4237 34.8124 61.9753 33.9756 63.0077 33.9756ZM64.6153 37.7778L64.627 38.9344H66.0937V30.0997H64.58V33.8035C64.2398 33.0899 63.5357 32.6099 62.6205 32.6099C60.9427 32.6099 59.8983 34.0126 59.8983 35.8336C59.8983 37.6671 60.9427 39.0699 62.5972 39.0699C63.571 39.0699 64.2867 38.5406 64.6153 37.7778Z" fill="white"/>
<path d="M71.2493 33.053C70.8621 32.7577 70.2286 32.5977 69.6184 32.5977C68.0344 32.5977 67.1073 33.3976 67.1073 34.5542C67.1073 35.5017 67.6003 35.9569 68.3747 36.2767L69.3368 36.6705C69.7826 36.8552 69.9353 36.9536 69.9353 37.2242C69.9353 37.581 69.6417 37.7779 69.0668 37.7779C68.5388 37.7779 67.8936 37.6425 67.2365 37.138V38.5655C67.612 38.9345 68.398 39.107 69.0551 39.107C70.4866 39.107 71.4135 38.3564 71.4135 37.1135C71.4135 36.2153 70.9444 35.7723 70.0878 35.4155L69.149 35.0217C68.7032 34.837 68.5977 34.7141 68.5977 34.468C68.5977 34.1359 68.891 33.939 69.5009 33.939C69.9234 33.939 70.475 34.0619 70.9208 34.3943L71.2493 33.053Z" fill="white"/>
<path d="M74.2639 38.9344H75.7776V32.7453H74.2639V38.9344ZM74.2522 31.7486H75.7892V30.0997H74.2522V31.7486Z" fill="white"/>
<path d="M80.7673 35.2673V38.9341H82.281V34.8613C82.281 33.52 81.5419 32.6342 80.3098 32.6342C79.4885 32.6342 78.8667 33.0525 78.5498 33.7539L78.5381 32.7449H77.0713V38.9341H78.585V35.452C78.585 34.5415 79.0075 34.0492 79.7349 34.0492C80.439 34.0492 80.7673 34.5415 80.7673 35.2673Z" fill="white"/>
<path d="M88.252 33.9262C89.3316 33.9262 89.8946 34.8122 89.8946 35.8334C89.8946 36.8549 89.3316 37.7531 88.252 37.7531C87.1724 37.7531 86.6094 36.8549 86.6094 35.8334C86.6094 34.8122 87.1724 33.9262 88.252 33.9262ZM88.252 32.5482C86.2573 32.5482 85.0841 33.9879 85.0841 35.8334C85.0841 37.6914 86.2573 39.1311 88.252 39.1311C90.2468 39.1311 91.42 37.6914 91.42 35.8334C91.42 33.9879 90.2468 32.5482 88.252 32.5482Z" fill="white"/>
<path d="M96.0528 35.2673V38.9341H97.5665V34.8613C97.5665 33.52 96.8272 32.6342 95.5954 32.6342C94.7738 32.6342 94.1519 33.0525 93.8353 33.7539L93.8236 32.7449H92.3568V38.9341H93.8706V35.452C93.8706 34.5415 94.2927 34.0492 95.0204 34.0492C95.7242 34.0492 96.0528 34.5415 96.0528 35.2673Z" fill="white"/>
<path d="M103.795 38.6382V37.248C103.408 37.5431 102.739 37.7525 102.082 37.7525C100.862 37.7525 100.193 37.2725 100.005 36.399H104.018C104.053 36.2021 104.065 35.8945 104.065 35.6728C104.065 34.0117 103.091 32.5845 101.425 32.5845C99.5125 32.5845 98.4329 34.0857 98.4329 35.8205C98.4329 37.7155 99.5947 39.0935 101.918 39.0935C102.551 39.0935 103.373 38.9336 103.795 38.6382ZM102.587 35.2916H99.9819C100.111 34.4425 100.604 33.9133 101.366 33.9133C102.047 33.9133 102.493 34.4547 102.587 35.2916Z" fill="white"/>
<path d="M110.086 37.7024C109.054 37.7024 108.514 36.8656 108.514 35.8444C108.514 34.823 109.054 33.9739 110.086 33.9739C111.119 33.9739 111.671 34.823 111.671 35.8444C111.671 36.8656 111.119 37.7024 110.086 37.7024ZM108.479 33.814L108.467 32.7436H107.001V40.9632H108.514V37.936C108.902 38.6252 109.594 39.0682 110.474 39.0682C112.152 39.0682 113.196 37.6654 113.196 35.8444C113.196 34.0109 112.152 32.6082 110.497 32.6082C109.57 32.6082 108.866 33.0882 108.479 33.814Z" fill="white"/>
<path d="M114.139 38.9344H115.653V30.0997H114.139V38.9344Z" fill="white"/>
<path d="M118.097 37.0024C118.097 36.4979 118.437 36.2762 119.141 36.2025L119.974 36.1163V36.5471C119.974 37.3099 119.504 37.7774 118.965 37.7774C118.366 37.7774 118.097 37.4329 118.097 37.0024ZM121.464 34.9105C121.464 33.3109 120.291 32.6342 118.918 32.6342C118.343 32.6342 117.721 32.7327 117.146 33.0403L116.782 34.4922C117.357 34.1599 117.956 33.9878 118.578 33.9878C119.399 33.9878 119.974 34.3198 119.974 34.9475V35.0826L119.199 35.1566C118.014 35.2673 116.583 35.4887 116.583 37.1867C116.583 38.1835 117.31 39.0325 118.472 39.0325C119.246 39.0325 119.763 38.6142 120.032 37.9006L120.044 38.9341H121.464V34.9105Z" fill="white"/>
<path d="M126.877 34.3928L127.229 33.0268C126.912 32.7932 126.419 32.6208 125.692 32.6208C124.354 32.6208 122.301 33.2977 122.301 35.8448C122.301 38.2565 124.237 39.0808 125.668 39.0808C126.325 39.0808 126.9 38.8961 127.17 38.724V37.3212C126.83 37.5551 126.325 37.7028 125.891 37.7028C124.824 37.7028 123.838 37.1243 123.838 35.7586C123.838 34.4913 124.824 34.036 125.668 34.036C126.138 34.036 126.56 34.1837 126.877 34.3928Z" fill="white"/>
<path d="M132.991 38.6382V37.248C132.604 37.5431 131.935 37.7525 131.278 37.7525C130.058 37.7525 129.389 37.2725 129.201 36.399H133.214C133.249 36.2021 133.261 35.8945 133.261 35.6728C133.261 34.0117 132.287 32.5845 130.621 32.5845C128.708 32.5845 127.629 34.0857 127.629 35.8205C127.629 37.7155 128.791 39.0935 131.114 39.0935C131.747 39.0935 132.569 38.9336 132.991 38.6382ZM131.783 35.2916H129.178C129.307 34.4425 129.8 33.9133 130.562 33.9133C131.243 33.9133 131.689 34.4547 131.783 35.2916Z" fill="white"/>
<path d="M134.086 38.9341H135.787V37.0639H134.086V38.9341Z" fill="white"/>
</svg>
